<?xml version="1.0" encoding="UTF-8"?>
<!DOCTYPE svg PUBLIC "-//W3C//DTD SVG 1.1//EN" "http://www.w3.org/Graphics/SVG/1.1/DTD/svg11.dtd">
<!-- Creator: CorelDRAW 2018 (64 Bit Versão de avaliação) -->
<svg xmlns="http://www.w3.org/2000/svg" xml:space="preserve" width="250px" height="200px" version="1.1" style="shape-rendering:geometricPrecision; text-rendering:geometricPrecision; image-rendering:optimizeQuality; fill-rule:evenodd; clip-rule:evenodd"
viewBox="0 0 250 200"
 xmlns:xlink="http://www.w3.org/1999/xlink">
 <defs>
  <style type="text/css">
   <![CDATA[
    .fil0 {fill:none}
    .fil19 {fill:#FEFEFE}
    .fil25 {fill:#BDBC88}
    .fil21 {fill:#BDBB88}
    .fil20 {fill:#BDBB86}
    .fil1 {fill:#BDBA87}
    .fil16 {fill:#BDBA86}
    .fil18 {fill:#B4B47D}
    .fil6 {fill:#AFA873}
    .fil14 {fill:#ACAB72}
    .fil2 {fill:#A38D54}
    .fil9 {fill:#9F8D5C}
    .fil4 {fill:#927844}
    .fil24 {fill:#8E9753}
    .fil13 {fill:#8F9E51}
    .fil15 {fill:#868D43}
    .fil23 {fill:#7C7A3E}
    .fil10 {fill:#889549}
    .fil8 {fill:#839546}
    .fil12 {fill:#666037}
    .fil11 {fill:#6F703D}
    .fil3 {fill:#7B8D45}
    .fil17 {fill:#575936}
    .fil7 {fill:#687F43}
    .fil29 {fill:#2B2B2A}
    .fil5 {fill:#384531}
    .fil28 {fill:#292929}
    .fil26 {fill:#29292A}
    .fil22 {fill:#29292A}
    .fil27 {fill:#29292B}
   ]]>
  </style>
 </defs>
 <g id="Camada_x0020_1">
  <metadata id="CorelCorpID_0Corel-Layer"/>
  <rect class="fil0" width="250" height="200"/>
  <g id="_3096374074576">
   <path class="fil1" d="M167.69 22.8c-0.02,-1.26 -0.4,-1.83 0.97,-1.65l-0.03 9.65 -0.95 -0.04 -0.01 -1.64c-0.53,0.21 -0.59,0.52 -1.14,0.9 -3.1,2.13 -7.45,-0.1 -7.55,-3.93 -0.06,-2.33 1.55,-4.04 2.99,-4.62 3.42,-1.35 4.84,1.03 5.72,1.33zm-69.82 5.43c-0.3,0.88 -1.48,1.86 -2.32,2.22 -1.08,0.47 -2.75,0.51 -3.86,-0.02 -5.34,-2.55 -2.69,-10.43 3.11,-9.19 1.9,0.41 4.19,2.78 3.6,5.23l-8.55 0c0.14,1.7 1.48,3.1 3.15,3.32 2.95,0.39 3.42,-1.61 4.28,-2.02l0.59 0.46zm14.89 -7.09c1.28,-0.11 2.89,-0.03 4.2,-0.03 1.72,0 2.36,-0.12 3.3,0.92 0.77,0.85 0.99,2.15 0.26,3.2 -0.74,1.06 -1.4,1.18 -3.06,1.22 0.23,0.93 3.75,3.44 3.96,4.37 -1.59,0 -1.29,-0.16 -2.12,-0.97l-2.96 -2.98c-0.63,-0.59 -1.55,-0.41 -2.65,-0.39l-0.03 4.31 -0.96 -0.02 0.06 -9.63zm23.19 -0.01c1.32,-0.09 2.87,-0.02 4.22,-0.02 1.67,0 2.34,-0.07 3.28,0.94 1.14,1.22 1.23,4.45 -2.77,4.41 0.41,1.15 3.64,3.38 3.92,4.36 -1.5,0.02 -1.37,-0.17 -2.12,-0.93l-2.97 -2.99c-0.67,-0.65 -1.47,-0.42 -2.64,-0.43l-0.02 4.31 -0.97 0 0.07 -9.65zm-61.45 0l-0.03 0.96 -2.61 0.02 -0.02 8.68 -0.97 -0.02 -0.04 -8.63c-0.62,-0.07 -2.07,0.19 -2.45,-0.17 -0.2,-0.2 -0.23,-0.62 0.1,-0.8l6.02 -0.04zm-24.34 30.2c1.05,-0.4 1.95,-0.94 2.95,-1.33 3.77,-1.47 5.7,-1.89 9.93,-2.5 4.66,-0.68 10.93,0.33 12.24,4.26 1.92,5.79 -4.97,12.29 -8.98,15.43 -1.68,1.31 -4.98,3.07 -5.14,-0.14 4.15,-2.3 9.09,-5.7 10.92,-10.12 4.29,-10.33 -12.94,-6.98 -20.08,-3.44 -0.69,0.35 -2.05,0.9 -2.38,1.36 0.42,-0.22 0.22,-0.13 0.7,-0.29 -0.28,9.75 -0.02,21.56 -0.02,31.68l-0.01 9.77c-0.16,0.78 0.26,-0.34 -0.23,0.52 -0.02,0.03 -0.05,0.08 -0.09,0.12 10.98,-1.32 20.84,-7.21 28.52,-14.37 0.15,-0.14 1.77,-2.17 1.85,-0.32 0.09,2.15 -3.89,5.28 -5.21,6.41 -3.85,3.32 -10.89,7.18 -15.83,8.94 -2.73,0.96 -6.05,1.75 -9.04,1.83 -0.25,0 -0.46,0 -0.67,0.03l-0.73 0.27 1.46 -0.11 -0.06 36.22c-0.01,2.35 -0.28,10.7 0.02,12.37l-0.03 3.54 1.43 -0.61c0.49,-0.21 0.93,-0.38 1.41,-0.56 0.87,-0.33 2.01,-0.73 2.9,-1.03 6.69,-2.2 14.08,-2.46 20.97,-1.53l0.07 -0.23c-0.82,-0.1 -1.95,-0.54 -2.96,-0.75 -7.11,-1.46 -13.53,-1.52 -20.58,0.11 -0.94,0.21 -2.24,0.69 -3.07,0.76 -0.12,-1.31 -0.19,-10.03 0.03,-10.96 0.28,-1.31 0.1,-15.76 0.1,-18.38 1.33,-0.87 10.84,-1.08 13.28,-1.08 10.23,0.01 20.55,2.44 29.82,6.39l5.04 2.39c0.11,-0.7 0.14,-1.27 -0.08,-1.93 -2.75,-1.25 -4.89,-3.81 -4.38,-7.86 0.21,-1.69 0.76,-3.15 1.71,-4.41 0.5,-0.66 2.56,-2.61 3.89,-2.35 3.49,0.68 8.12,8.79 2.16,13.6 -0.74,0.6 -1.34,0.66 -2.06,1.05 -0.19,0.77 -0.14,1.66 -0.06,2.47 0.54,0.46 0.97,0.59 1.67,1.03l0.47 -0.17 4.86 -2.73c1.11,-0.6 4.37,-1.94 5.15,-2.56l-0.02 -4.7c-1.36,-0.97 -3.69,-1.37 -6.09,-4.86 -4.08,-5.96 -2.08,-15.83 3.83,-19.8 0.63,-0.42 3,-1.89 3.86,-1.62l-0.61 -0.01c0.05,-0.06 0.12,-0.21 0.16,-0.17l0.6 -0.44c-0.21,-0.3 -0.42,-0.62 -0.61,-0.77l74.66 0 0 -12.36c0.33,0.12 0.34,-0.18 0.31,1.21 -0.01,0.51 -0.01,1.02 -0.01,1.54l0 46.56c-0.77,-0.29 -0.05,-0.39 -0.82,-0.54 -0.61,-0.12 -1.53,-0.73 -2.15,-1.12 -0.19,-0.12 -0.26,-0.17 -0.39,-0.33l-0.89 0.46c0.58,-0.12 2.27,1.11 2.91,1.49 1.69,1 1.57,0.57 1.57,2.94 0,2.4 -0.26,7.04 0.07,9.16 0.48,-0.63 0.03,-14.53 0.03,-15.27 0,-4.86 -0.2,-45.89 0.11,-46.87 -2.09,0.07 -2.43,-0.35 -3.95,-0.73 -0.82,0.58 -1.73,1.54 -2.83,-0.4 -0.66,-1.17 -0.76,-3.07 -1.14,-3.75 -0.99,0.7 -3.73,7.56 -9.51,6.18 -1.96,-0.46 -3.18,-2.42 -3.7,-4.29 -0.98,-3.53 -0.39,-5.2 -0.65,-6.77l-0.12 -0.39c-0.02,-0.03 -0.04,-0.08 -0.06,-0.12 -0.92,1.32 -0.89,8.82 -3.66,11.66 -2.1,2.15 -3.37,-0.35 -3.73,-2.42 -0.25,-1.43 -0.16,-5.79 -1.16,-6.55 -1.3,0.47 -2.11,9 -4.6,11.24 -2.26,2.03 -3.37,-0.98 -3.67,-2.98 -0.19,-1.21 -0.14,-6 -0.58,-6.9 -0.2,-0.43 -0.09,-0.21 -0.31,-0.42 -0.58,0.32 -0.22,-0.09 -0.56,1.36 -0.7,2.95 -2.73,6.46 -4.72,8.4 -1.33,1.29 -2.47,2.55 -5.26,2.27 -0.99,-0.11 -1.94,-0.8 -2.51,-1.34l-1.61 -2.14c-0.96,1.77 -2.03,5.02 -4.58,5.14 -3.95,0.17 -4.26,-4.03 -4.88,-5.05 -0.97,0.61 -2.3,5.05 -5.82,5.79 -2.68,0.56 -4.52,-0.5 -6.18,-2.2 -0.5,-0.52 -0.99,-1.31 -1.66,-1.55 -0.3,1.52 -1.06,3.48 -1.5,5.06 -0.44,1.55 -0.95,3.79 -1.6,4.96 -2.2,-0.13 -0.94,-2.7 -0.53,-4.02l2.06 -6.82c0.43,-1.33 0.54,-1.01 -0.05,-2.27 -0.59,-1.25 -1,-3.41 -2.28,-3.73 -1.42,0.17 -1.36,5.81 -5.59,10.79 -1.95,2.29 -5.07,4.44 -8.15,1.92 -0.55,-0.46 -1.02,-0.99 -1.39,-1.66l-0.44 -0.66c-0.51,0.56 -0.67,1.29 -1.1,2 -1.24,2.04 -3.25,4.28 -5.89,2.43 -4.75,-3.33 -2.96,-14.76 2.64,-17.46 1.78,-0.86 3.82,-0.43 4.86,0.8 1.13,1.35 1.05,4.66 -0.82,3.9 -0.51,-0.91 -0.23,-2.73 -2.13,-2.84 -3.96,-0.24 -4.89,7.61 -4.47,10.33 0.89,5.73 4.27,3.41 5.65,-2.58 0.14,-0.62 0.61,-3.86 0.8,-4.19 1.04,-0.57 2.12,-0.06 2.69,0.61 0.32,0.77 -1.7,8.16 2.96,7.8 3.17,-0.24 5.39,-4.74 6.61,-7.43 0.9,-1.98 0.57,-3.87 2.17,-6.4 0.94,-1.49 2.46,-1.69 3.66,-0.3 0.75,0.88 1.61,3.25 2.06,3.67 0.31,-0.47 0.88,-2.31 1.12,-2.93 0.41,-1.12 0.76,-2 1.22,-3.09 0.4,-0.95 0.75,-1.92 1.16,-2.94 0.44,-1.11 0.93,-2.24 2.25,-1.01 0.41,0.81 -4.68,10.73 -4.63,12.47 0.03,0.93 4.44,9.58 9.44,2.18 3.33,-4.94 3.15,-8.97 5.56,-11.7 1.15,-1.3 3.52,-3.19 6.07,-2.12 2.55,1.06 2.87,5.41 0.44,4.89 -0.47,-1.27 -0.2,-2.78 -2.17,-2.85 -3.89,-0.13 -4.79,7.4 -4.38,10.29 0.51,3.65 2.77,4.5 4.39,1.16 1.71,-3.54 1.13,-5.35 1.99,-7.93 1.19,-0.43 1.95,-0.12 2.69,0.46 0.28,1.62 -0.51,3.39 0.04,5.47 0.43,1.65 1.27,2.88 3.46,2.43 3.21,-0.65 5.28,-5.36 6.55,-8.32 0.5,-1.19 0.26,-3.54 1.64,-4.27 0.86,-0.46 1.68,0.11 2.11,0.53 2.2,2.2 0.94,9.17 2.12,9.79 1.77,-0.97 2.94,-10.4 4.43,-11.76 0.76,-0.69 1.89,-0.85 2.87,-0.12 1.7,1.27 1.17,5.73 1.62,8.6 0.04,0.27 0.08,0.68 0.14,0.92 0.01,0.05 0.1,0.32 0.11,0.36 0.19,0.38 -0.01,0.13 0.29,0.35 1.39,-1.24 2.28,-9.43 3.19,-11.51 0.76,-1.74 3.98,-1.35 4.12,1.11 0.13,2.33 -0.18,5.01 0.41,7.11l0.52 1.3c1.73,3.5 5.34,2 7.65,-1.37 3.36,-4.91 2.78,-6 2.79,-12.09 0,-4.88 -0.1,-9.86 -0.24,-14.65 -0.04,-1.36 -0.33,-6.2 -0.12,-7.16 0.45,-2.08 3.9,-1.16 3.68,1.65 -0.18,2.28 -0.38,4.54 -0.55,6.88 -0.3,4.13 -0.92,18.44 -0.07,21.13 0.73,-1.26 0.73,-5.77 3.51,-8.61 0.37,-0.39 0.61,-0.62 1.06,-0.92l1.34 -0.68c0.02,-0.02 0.06,-0.05 0.09,-0.08l-0.91 0.12c0.35,-0.58 0.12,-10.24 0.12,-11.72 0,-3.77 0.17,-34.87 -0.1,-35.72 -0.8,-0.38 -33.94,-0.15 -34.42,-0.15l-94.96 0c-1.56,0 -7.54,-0.19 -8.6,0.1 -0.24,2.57 -0.05,16.73 -0.05,20.5 0,2.64 0.19,19.58 -0.14,20.66z"/>
   <path class="fil2" d="M112.02 122.12c-0.78,0.62 -4.04,1.96 -5.15,2.56l-4.86 2.73c-0.32,0.42 -0.39,0.33 -0.84,0.6 -2.71,1.59 -7.97,5.63 -10.16,7.7 -0.55,0.52 -0.87,1.08 -1.72,0.9l0.37 0.37 -0.36 0.25 -8.67 9.77c-0.26,0.35 -0.34,0.51 -0.56,0.81 -0.35,0.49 -0.23,0.53 -0.81,0.52 0.21,0.61 0.23,0.14 -0.64,1.39l-1.34 2.17c-0.02,0.03 -0.04,0.07 -0.06,0.1 -0.46,0.81 -2.08,3.4 -3.22,5.63l-0.16 0.29c-0.01,0.03 -0.04,0.06 -0.05,0.09l-0.85 1.61c-0.21,0.34 -0.3,0.48 -0.38,0.83l-1.53 0.19 1.41 0.05c0,0.49 -0.31,0.83 -0.5,1.27 -0.2,0.71 -0.65,1.62 -0.97,2.38 -0.34,0.81 -0.51,1.92 -1.06,2.55l5.9 1.31c6.9,1.47 11.61,2.07 18.54,3.21 0.16,-2.09 2.71,-7.81 3.69,-9.73 9.38,-18.37 27.26,-30.2 48.1,-31.88 5.3,-0.43 7.97,0.05 12.75,0.28 2.31,0.14 4.41,1.16 6.37,1.32l-0.32 -0.5c4.05,0.29 9.26,1.74 12.8,2.97 2.91,1.02 5.47,2.17 8.07,3.53 0.74,0.38 1.83,1.1 2.59,1.37 -0.33,-2.12 -0.07,-6.76 -0.07,-9.16 0,-2.37 0.12,-1.94 -1.57,-2.94 -0.64,-0.38 -2.33,-1.61 -2.91,-1.49 -0.35,-0.41 -0.29,-0.35 -0.89,-0.66 -4.69,-2.45 -9.23,-4.32 -14.29,-5.86 -11.79,-3.59 -26.3,-4.48 -38.37,-2.06 -2.88,0.58 -5.75,1.23 -8.55,2.06l-8.05 2.76 -1.68 0.71z"/>
   <path class="fil1" d="M104.31 94.47c-13.19,9 -39.22,5.54 9.39,26.94l8.05 -2.76c2.8,-0.83 5.67,-1.48 8.55,-2.06 12.07,-2.42 26.58,-1.53 38.37,2.06 5.06,1.54 9.6,3.41 14.29,5.86 0.6,0.31 0.54,0.25 0.89,0.66l0.89 -0.46c0.13,0.16 0.2,0.21 0.39,0.33 0.62,0.39 1.54,1 2.15,1.12 0.77,0.15 0.05,0.25 0.82,0.54l0 -46.56c0,-0.52 0,-1.03 0.01,-1.54 0.03,-1.39 0.02,-1.09 -0.31,-1.21l0 9.85 -74.66 0c-1.91,1.26 -11.45,3.5 -8.83,7.23z"/>
   <path class="fil3" d="M96.61 171.54c0.39,0.32 0.98,0.27 1.5,0.25l3.12 0.14c0.57,-0.75 2.51,-5.52 5.65,-9.51 1.21,-1.53 2.35,-3 3.51,-4.13 1.2,-1.15 2.71,-2.96 4.07,-3.65 0.48,-0.85 4.8,-3.65 6.26,-4.49 2.14,-1.23 4.61,-2.49 7.33,-3.5 5.07,-1.89 12.04,-3.53 18.4,-3.17l2.33 0.06c0.7,-0.44 5.74,-0.19 6.9,-0.09 12.99,1.18 22.74,5.94 31.65,15.01 0.65,0.66 1.27,1.06 0.77,2.28 0.77,-0.16 0.43,-1.18 0.43,-1.98 -0.04,-3.48 -0.15,-13.75 0.01,-15.88 -0.04,-0.03 -0.08,-0.06 -0.11,-0.08l-0.23 -0.15c-0.03,-0.02 -0.07,-0.05 -0.1,-0.07l-4.69 -3.4c-1.72,-1.16 -3.61,-2.25 -5.52,-3.19 -2.54,-1.24 -9.9,-4.49 -12.63,-4.6 -1.96,-0.16 -4.06,-1.18 -6.37,-1.32 0.03,0.03 -0.03,0.14 0.69,0.3 0.27,0.06 0.41,0.02 0.7,0.11 -2.05,0.08 -4.16,-0.08 -6.13,0.06 -6.03,0.45 -10.3,1.05 -16.17,2.99 -9.06,2.99 -17.12,7.84 -23.69,14.46 -2.17,2.18 -3.95,4.12 -5.9,6.77 -3.7,5 -6.4,10.26 -8.46,16.97 -1.24,0.05 -2.16,-0.29 -3.32,-0.19z"/>
   <path class="fil4" d="M116.87 157.85l-2.81 3.2c-1.01,1.18 -1.77,2.28 -2.6,3.49 -1.32,1.92 -3.4,5.37 -4.28,7.88 2.23,0.28 10.51,0.31 12.68,0.24 0.91,-0.03 3.58,-0.23 4.21,-0.08l3.57 -0.1c0.86,-0.19 -0.37,0.15 0.25,-0.08l0.22 -0.12c-1.53,-0.16 -3,0.43 -4.39,0.16 1.85,-2.47 1.81,-2.97 4.31,-5.51 1.65,-1.67 3.28,-3.13 5.48,-4.61 3.28,-2.21 9.78,-5.2 14.75,-5.39 1.36,-0.58 6.25,0.06 8.08,0.04 -0.98,-0.54 -2.9,-0.28 -4.17,-0.34 0.43,-0.47 1.14,-0.45 1.86,-0.55 5.86,-0.82 9.16,-0.69 15.1,0.76 3.3,0.81 7.09,2.63 9.84,4.48 0.87,0.59 2.01,1.79 3.05,1.81 0.36,-0.04 0.55,-0.12 0.91,-0.25 0.19,-0.06 0.26,-0.09 0.43,-0.16l0.55 -0.31c-0.65,-0.2 -0.58,-0.39 -0.98,-0.92 -1.64,-2.15 -3.69,-4.29 -5.69,-6.06 -6.48,-5.75 -13.94,-9.33 -22.63,-11.1 -1.91,-0.39 -4.14,-0.41 -5.83,-0.79l-2.33 -0.06c-0.18,0.14 -0.06,0.07 -0.35,0.18 -0.35,0.14 0.05,0 -0.24,0.08l-1.71 0.28c-8.74,1.38 -18.07,5.41 -24.45,11.22l-2.83 2.61z"/>
   <path class="fil5" d="M188.78 73.72c-1.1,0.92 -3.06,0.64 -3.77,-0.73 -0.68,-1.32 1,-8.15 2.24,-10.5l1.2 -1.49c0.92,-1.23 2.8,-1.2 3.5,0.32 1.12,2.41 0.49,6.96 -0.76,9.39 -0.55,1.08 -1.38,2.56 -2.41,3.01zm-0.24 2.9c3.33,-0.85 6,-5.52 6.12,-9.3 0.1,-3.15 0.02,-7.27 -2.34,-9.27 -1.1,-0.92 -1.82,-0.47 -3.1,-0.51 -0.03,0.03 -0.07,0.06 -0.09,0.08l-1.34 0.68c-0.45,0.3 -0.69,0.53 -1.06,0.92 -2.78,2.84 -2.78,7.35 -3.51,8.61 -0.85,-2.69 -0.23,-17 0.07,-21.13 0.17,-2.34 0.37,-4.6 0.55,-6.88 0.22,-2.81 -3.23,-3.73 -3.68,-1.65 -0.21,0.96 0.08,5.8 0.12,7.16 0.14,4.79 0.24,9.77 0.24,14.65 -0.01,6.09 0.57,7.18 -2.79,12.09 -2.31,3.37 -5.92,4.87 -7.65,1.37l-0.52 -1.3c-0.59,-2.1 -0.28,-4.78 -0.41,-7.11 -0.14,-2.46 -3.36,-2.85 -4.12,-1.11 -0.91,2.08 -1.8,10.27 -3.19,11.51 -0.3,-0.22 -0.1,0.03 -0.29,-0.35 -0.01,-0.04 -0.1,-0.31 -0.11,-0.36 -0.06,-0.24 -0.1,-0.65 -0.14,-0.92 -0.45,-2.87 0.08,-7.33 -1.62,-8.6 -0.98,-0.73 -2.11,-0.57 -2.87,0.12 -1.49,1.36 -2.66,10.79 -4.43,11.76 -1.18,-0.62 0.08,-7.59 -2.12,-9.79 -0.43,-0.42 -1.25,-0.99 -2.11,-0.53 -1.38,0.73 -1.14,3.08 -1.64,4.27 -1.27,2.96 -3.34,7.67 -6.55,8.32 -2.19,0.45 -3.03,-0.78 -3.46,-2.43 -0.55,-2.08 0.24,-3.85 -0.04,-5.47 -0.74,-0.58 -1.5,-0.89 -2.69,-0.46 -0.86,2.58 -0.28,4.39 -1.99,7.93 -1.62,3.34 -3.88,2.49 -4.39,-1.16 -0.41,-2.89 0.49,-10.42 4.38,-10.29 1.97,0.07 1.7,1.58 2.17,2.85 2.43,0.52 2.11,-3.83 -0.44,-4.89 -2.55,-1.07 -4.92,0.82 -6.07,2.12 -2.41,2.73 -2.23,6.76 -5.56,11.7 -5,7.4 -9.41,-1.25 -9.44,-2.18 -0.05,-1.74 5.04,-11.66 4.63,-12.47 -1.32,-1.23 -1.81,-0.1 -2.25,1.01 -0.41,1.02 -0.76,1.99 -1.16,2.94 -0.46,1.09 -0.81,1.97 -1.22,3.09 -0.24,0.62 -0.81,2.46 -1.12,2.93 -0.45,-0.42 -1.31,-2.79 -2.06,-3.67 -1.2,-1.39 -2.72,-1.19 -3.66,0.3 -1.6,2.53 -1.27,4.42 -2.17,6.4 -1.22,2.69 -3.44,7.19 -6.61,7.43 -4.66,0.36 -2.64,-7.03 -2.96,-7.8 -0.57,-0.67 -1.65,-1.18 -2.69,-0.61 -0.19,0.33 -0.66,3.57 -0.8,4.19 -1.38,5.99 -4.76,8.31 -5.65,2.58 -0.42,-2.72 0.51,-10.57 4.47,-10.33 1.9,0.11 1.62,1.93 2.13,2.84 1.87,0.76 1.95,-2.55 0.82,-3.9 -1.04,-1.23 -3.08,-1.66 -4.86,-0.8 -5.6,2.7 -7.39,14.13 -2.64,17.46 2.64,1.85 4.65,-0.39 5.89,-2.43 0.43,-0.71 0.59,-1.44 1.1,-2l0.44 0.66c0.37,0.67 0.84,1.2 1.39,1.66 3.08,2.52 6.2,0.37 8.15,-1.92 4.23,-4.98 4.17,-10.62 5.59,-10.79 1.28,0.32 1.69,2.48 2.28,3.73 0.59,1.26 0.48,0.94 0.05,2.27l-2.06 6.82c-0.41,1.32 -1.67,3.89 0.53,4.02 0.65,-1.17 1.16,-3.41 1.6,-4.96 0.44,-1.58 1.2,-3.54 1.5,-5.06 0.67,0.24 1.16,1.03 1.66,1.55 1.66,1.7 3.5,2.76 6.18,2.2 3.52,-0.74 4.85,-5.18 5.82,-5.79 0.62,1.02 0.93,5.22 4.88,5.05 2.55,-0.12 3.62,-3.37 4.58,-5.14l1.61 2.14c0.57,0.54 1.52,1.23 2.51,1.34 2.79,0.28 3.93,-0.98 5.26,-2.27 1.99,-1.94 4.02,-5.45 4.72,-8.4 0.34,-1.45 -0.02,-1.04 0.56,-1.36 0.22,0.21 0.11,-0.01 0.31,0.42 0.44,0.9 0.39,5.69 0.58,6.9 0.3,2 1.41,5.01 3.67,2.98 2.49,-2.24 3.3,-10.77 4.6,-11.24 1,0.76 0.91,5.12 1.16,6.55 0.36,2.07 1.63,4.57 3.73,2.42 2.77,-2.84 2.74,-10.34 3.66,-11.66 0.02,0.04 0.04,0.09 0.06,0.12l0.12 0.39c0.26,1.57 -0.33,3.24 0.65,6.77 0.52,1.87 1.74,3.83 3.7,4.29 5.78,1.38 8.52,-5.48 9.51,-6.18 0.38,0.68 0.48,2.58 1.14,3.75 1.1,1.94 2.01,0.98 2.83,0.4 1.52,0.38 1.86,0.8 3.95,0.73z"/>
   <path class="fil6" d="M50.45 136.66l0.21 0c0.21,-0.24 1.45,-0.63 1.87,-0.75 10.88,-3.14 21.32,-3.77 32.39,-0.66 1.44,0.4 3.06,1.03 4.37,1.36 0.85,0.18 1.17,-0.38 1.72,-0.9 2.19,-2.07 7.45,-6.11 10.16,-7.7 0.45,-0.27 0.52,-0.18 0.84,-0.6l-0.47 0.17c-0.7,-0.44 -1.13,-0.57 -1.67,-1.03l-1.01 -0.49 -0.17 -0.08 -5.04 -2.39c-9.27,-3.95 -19.59,-6.38 -29.82,-6.39 -2.44,0 -11.95,0.21 -13.28,1.08 0,2.62 0.18,17.07 -0.1,18.38z"/>
   <path class="fil7" d="M148.26 156.93c0.6,-0.04 1.13,-0.22 1.51,0.15 -2.6,0.88 -3.99,1.35 -6.23,2.45 -4.8,2.38 -9.87,6.92 -12.72,11.42 -0.73,1.15 -0.24,0.4 -1.02,1.17 -0.03,0.03 -0.07,0.07 -0.1,0.11 2,-0.28 4,-0.19 6.04,-0.36 13.91,-1.14 19.99,-1.91 33.59,-4.91 1.42,-0.31 3.87,-1.18 5.03,-1.27l0.35 -0.56c-0.54,-0.29 -1.24,-0.93 -1.81,-1.4 -0.55,-0.45 -1.11,-0.86 -1.94,-1.41 -3.5,-2.33 -10.73,-5.59 -14.62,-5.35 -1.83,0.02 -6.72,-0.62 -8.08,-0.04z"/>
   <path class="fil5" d="M50.16 51.33c-0.37,0.25 -1.22,0.6 -1.63,0.85 -8.51,5.25 -16.2,12.71 -18.66,22.97 -2.16,9 0.88,19.14 9.45,22.62 4.02,1.63 5.88,1.15 9.54,1.67l0.73 -0.27c0.21,-0.03 0.42,-0.03 0.67,-0.03 2.99,-0.08 6.31,-0.87 9.04,-1.83 4.94,-1.76 11.98,-5.62 15.83,-8.94 1.32,-1.13 5.3,-4.26 5.21,-6.41 -0.08,-1.85 -1.7,0.18 -1.85,0.32 -7.68,7.16 -17.54,13.05 -28.52,14.37 -1.38,-0.11 -2.77,0.27 -4.41,0.08 -4.06,-0.48 -7.43,-1.68 -9.81,-4.69 -4.74,-6.01 -4.4,-15.3 -0.54,-22.67 1.11,-2.1 3.28,-5.17 4.93,-6.97l3.73 -3.6c0.89,-0.73 4.79,-3.8 5.75,-3.95 0.33,-0.46 1.69,-1.01 2.38,-1.36 7.14,-3.54 24.37,-6.89 20.08,3.44 -1.83,4.42 -6.77,7.82 -10.92,10.12 0.16,3.21 3.46,1.45 5.14,0.14 4.01,-3.14 10.9,-9.64 8.98,-15.43 -1.31,-3.93 -7.58,-4.94 -12.24,-4.26 -4.23,0.61 -6.16,1.03 -9.93,2.5 -1,0.39 -1.9,0.93 -2.95,1.33z"/>
   <path class="fil8" d="M112 117.42c-0.02,0.96 0.01,3.09 0.02,4.7l1.68 -0.71c-0.07,-2.02 -0.02,-3.43 0.08,-4.04 2.67,-1.15 4.35,-1.62 6.44,-4.51 3.66,-5.05 3.27,-11.86 -0.22,-16.83 -1.18,-1.68 -3.91,-4.23 -6.4,-4.89 -0.86,-0.27 -3.23,1.2 -3.86,1.62 -5.91,3.97 -7.91,13.84 -3.83,19.8 2.4,3.49 4.73,3.89 6.09,4.86z"/>
   <path class="fil9" d="M50.28 147.92l-0.03 13.4c0.65,0.37 6.66,2.2 7.59,2.33 -0.21,-0.35 0.34,-0.35 -0.23,-0.28 1.2,-0.27 3.41,-1.39 6.11,-1.96 2.45,-0.52 4.65,-0.82 7.31,-0.78l1.53 -0.19c0.08,-0.35 0.17,-0.49 0.38,-0.83l0.85 -1.61c0.01,-0.03 0.04,-0.06 0.05,-0.09l0.16 -0.29c1.14,-2.23 2.76,-4.82 3.22,-5.63 0.02,-0.03 0.04,-0.07 0.06,-0.1l1.34 -2.17c0.87,-1.25 0.85,-0.78 0.64,-1.39 -0.4,-0.21 -1.66,-0.74 -2.23,-0.83l-0.07 0.23c-6.89,-0.93 -14.28,-0.67 -20.97,1.53 -0.89,0.3 -2.03,0.7 -2.9,1.03 -0.48,0.18 -0.92,0.35 -1.41,0.56l-1.43 0.61 0.03 -3.54z"/>
   <path class="fil10" d="M50.66 136.66l-0.21 0c-0.22,0.93 -0.15,9.65 -0.03,10.96 0.83,-0.07 2.13,-0.55 3.07,-0.76 7.05,-1.63 13.47,-1.57 20.58,-0.11 1.01,0.21 2.14,0.65 2.96,0.75 0.57,0.09 1.83,0.62 2.23,0.83 0.58,0.01 0.46,-0.03 0.81,-0.52 0.22,-0.3 0.3,-0.46 0.56,-0.81l8.67 -9.77 -4.8 -0.93c-6.91,-1.06 -14.28,-1.05 -21.12,0.46 -2.88,0.64 -8.35,2.17 -10.94,3.42l-1.8 0.88c-0.17,-0.97 -0.32,-3.61 0.02,-4.4z"/>
   <path class="fil11" d="M94.35 171.4c0.82,0.07 1.33,0.33 2.26,0.14 1.16,-0.1 2.08,0.24 3.32,0.19 2.06,-6.71 4.76,-11.97 8.46,-16.97 1.95,-2.65 3.73,-4.59 5.9,-6.77 6.57,-6.62 14.63,-11.47 23.69,-14.46 5.87,-1.94 10.14,-2.54 16.17,-2.99 1.97,-0.14 5.1,0.02 7.15,-0.06 -0.8,-0.14 -1.61,-0.27 -2.41,-0.41 -4.78,-0.23 -7.45,-0.71 -12.75,-0.28 -20.84,1.68 -38.72,13.51 -48.1,31.88 -0.98,1.92 -3.53,7.64 -3.69,9.73z"/>
   <path class="fil5" d="M206.29 67.02c0.62,0.32 0.97,2.98 3.98,4.25 3.88,1.64 8.05,-2.96 9.44,-6.68 0.29,-0.77 0.89,-2.3 1.04,-3.1 0.23,-1.33 -0.37,-3.55 -1.18,-1.8 -1.33,2.87 -2.55,8.76 -7.09,9.54 -2.94,0.5 -3.68,-1.96 -3.87,-4.36 -0.1,-1.28 -0.28,-2.48 -0.33,-3.82 -0.04,-1.32 0.6,-2.94 -0.69,-3.3 -2.6,-0.71 -1.92,4.1 -2.37,5.77 -0.52,1.9 -1.28,4.54 -2.45,5.94 -0.93,1.11 -1.84,0.68 -2.31,-0.6 -0.82,-2.19 -0.64,-5.47 -0.47,-7.68 0.08,-1.11 0.85,-2.74 -0.23,-3.39 -2.58,-1.55 -2.41,3.59 -2.7,5.04 -0.5,2.53 -0.44,4.89 0.78,7.11 0.95,1.71 2.91,3.78 5.33,2.36 0.72,-0.43 1.4,-1.35 1.91,-2.2 0.69,-1.15 0.79,-1.83 1.21,-3.08z"/>
   <path class="fil12" d="M183.91 162.41c0.56,-0.02 3.6,-1.31 4.19,-1.67 0.5,-1.22 -0.12,-1.62 -0.77,-2.28 -8.91,-9.07 -18.66,-13.83 -31.65,-15.01 -1.16,-0.1 -6.2,-0.35 -6.9,0.09 1.69,0.38 3.92,0.4 5.83,0.79 8.69,1.77 16.15,5.35 22.63,11.1 2,1.77 4.05,3.91 5.69,6.06 0.4,0.53 0.33,0.72 0.98,0.92z"/>
   <path class="fil13" d="M98.61 124.05c0.19,0.58 0.19,1.21 0.08,1.93l1.18 0.57c-0.06,-0.58 -0.13,-1.66 0.06,-2.47 0.72,-0.39 1.32,-0.45 2.06,-1.05 5.96,-4.81 1.33,-12.92 -2.16,-13.6 -1.33,-0.26 -3.39,1.69 -3.89,2.35 -0.95,1.26 -1.5,2.72 -1.71,4.41 -0.51,4.05 1.63,6.61 4.38,7.86z"/>
   <path class="fil14" d="M98.11 171.79c0.48,0.46 2.18,0.37 2.97,0.37 2.48,0.02 7.3,0.64 9.65,0.83 1.06,0.08 12.63,0.22 13.34,-0.41 -0.63,-0.15 -3.3,0.05 -4.21,0.08 -2.17,0.07 -10.45,0.04 -12.68,-0.24 0.88,-2.51 2.96,-5.96 4.28,-7.88 0.83,-1.21 1.59,-2.31 2.6,-3.49l2.81 -3.2c-0.55,-0.14 -0.25,-0.03 -0.78,-0.83 -0.49,-0.74 -1.56,-1.76 -1.63,-2.38 -1.36,0.69 -2.87,2.5 -4.07,3.65 -1.16,1.13 -2.3,2.6 -3.51,4.13 -3.14,3.99 -5.08,8.76 -5.65,9.51l-3.12 -0.14z"/>
   <path class="fil15" d="M50.66 136.66c-0.34,0.79 -0.19,3.43 -0.02,4.4l1.8 -0.88c2.59,-1.25 8.06,-2.78 10.94,-3.42 6.84,-1.51 14.21,-1.52 21.12,-0.46l4.8 0.93 0.36 -0.25 -0.37 -0.37c-1.31,-0.33 -2.93,-0.96 -4.37,-1.36 -11.07,-3.11 -21.51,-2.48 -32.39,0.66 -0.42,0.12 -1.66,0.51 -1.87,0.75z"/>
   <path class="fil16" d="M156.34 156.97c3.89,-0.24 11.12,3.02 14.62,5.35 0.83,0.55 1.39,0.96 1.94,1.41 0.57,0.47 1.27,1.11 1.81,1.4l-0.35 0.56c0.5,-0.11 1.13,-0.45 1.85,-0.66l5.81 -1.9c-1.04,-0.02 -2.18,-1.22 -3.05,-1.81 -2.75,-1.85 -6.54,-3.67 -9.84,-4.48 -5.94,-1.45 -9.24,-1.58 -15.1,-0.76 -0.72,0.1 -1.43,0.08 -1.86,0.55 1.27,0.06 3.19,-0.2 4.17,0.34z"/>
   <path class="fil17" d="M128.11 172.28l1.59 -0.05c0.03,-0.04 0.07,-0.08 0.1,-0.11 0.78,-0.77 0.29,-0.02 1.02,-1.17 2.85,-4.5 7.92,-9.04 12.72,-11.42 2.24,-1.1 3.63,-1.57 6.23,-2.45 -0.38,-0.37 -0.91,-0.19 -1.51,-0.15 -4.97,0.19 -11.47,3.18 -14.75,5.39 -2.2,1.48 -3.83,2.94 -5.48,4.61 -2.5,2.54 -2.46,3.04 -4.31,5.51 1.39,0.27 2.86,-0.32 4.39,-0.16z"/>
   <path class="fil18" d="M114.46 154.64c0.07,0.62 1.14,1.64 1.63,2.38 0.53,0.8 0.23,0.69 0.78,0.83l2.83 -2.61c6.38,-5.81 15.71,-9.84 24.45,-11.22l1.71 -0.28c0.29,-0.08 -0.11,0.06 0.24,-0.08 0.29,-0.11 0.17,-0.04 0.35,-0.18 -6.36,-0.36 -13.33,1.28 -18.4,3.17 -2.72,1.01 -5.19,2.27 -7.33,3.5 -1.46,0.84 -5.78,3.64 -6.26,4.49z"/>
   <path class="fil19" d="M100.89 189.6c1.56,-0.01 4.32,0.23 5.6,-0.39 3.09,-1.51 3.03,-5.79 -0.1,-7.21 -1.19,-0.55 -4.02,-0.34 -5.5,-0.34l0 7.94z"/>
   <path class="fil19" d="M117.8 186.7c0.74,-2.45 -1.04,-4.43 -2.82,-4.9 -2.43,-0.65 -4.27,0.97 -4.77,2.72 -1.45,5.01 6.05,7.26 7.59,2.18z"/>
   <path class="fil19" d="M59.46 186.54c1.08,4.9 8.81,3.46 7.68,-1.79 -1.08,-5.01 -8.83,-3.45 -7.68,1.79z"/>
   <path class="fil20" d="M160.03 26.55c0.65,4.82 8.29,4.21 7.61,-1.22 -0.23,-1.8 -2.02,-3.53 -4.4,-3.19 -1.97,0.27 -3.52,2.15 -3.21,4.41z"/>
   <path class="fil16" d="M165.26 131.39c2.73,0.11 10.09,3.36 12.63,4.6 1.91,0.94 3.8,2.03 5.52,3.19l4.69 3.4c0.03,0.02 0.07,0.05 0.1,0.07l0.23 0.15c0.03,0.02 0.07,0.05 0.11,0.08 -0.34,-1.29 -0.02,-2.82 -0.14,-4.12 -0.76,-0.27 -1.85,-0.99 -2.59,-1.37 -2.6,-1.36 -5.16,-2.51 -8.07,-3.53 -3.54,-1.23 -8.75,-2.68 -12.8,-2.97l0.32 0.5z"/>
   <path class="fil19" d="M188.45 61l-0.01 11.05c0,0.5 0.07,1.17 -0.14,1.56l0.48 0.11c1.03,-0.45 1.86,-1.93 2.41,-3.01 1.25,-2.43 1.88,-6.98 0.76,-9.39 -0.7,-1.52 -2.58,-1.55 -3.5,-0.32z"/>
   <path class="fil21" d="M188.78 73.72l-0.48 -0.11c0.21,-0.39 0.14,-1.06 0.14,-1.56l0.01 -11.05 -1.2 1.49c-1.24,2.35 -2.92,9.18 -2.24,10.5 0.71,1.37 2.67,1.65 3.77,0.73z"/>
   <path class="fil22" d="M89.85 25.43c-0.03,-1.76 1.95,-3.31 3.75,-3.33 1.9,-0.02 3.92,1.53 3.81,3.37l-1.06 0 -5.49 0.01 -1.01 -0.05zm8.02 2.8l-0.59 -0.46c-0.86,0.41 -1.33,2.41 -4.28,2.02 -1.67,-0.22 -3.01,-1.62 -3.15,-3.32l8.55 0c0.59,-2.45 -1.7,-4.82 -3.6,-5.23 -5.8,-1.24 -8.45,6.64 -3.11,9.19 1.11,0.53 2.78,0.49 3.86,0.02 0.84,-0.36 2.02,-1.34 2.32,-2.22z"/>
   <path class="fil22" d="M160.03 26.55c-0.31,-2.26 1.24,-4.14 3.21,-4.41 2.38,-0.34 4.17,1.39 4.4,3.19 0.68,5.43 -6.96,6.04 -7.61,1.22zm7.66 -3.75c-0.88,-0.3 -2.3,-2.68 -5.72,-1.33 -1.44,0.58 -3.05,2.29 -2.99,4.62 0.1,3.83 4.45,6.06 7.55,3.93 0.55,-0.38 0.61,-0.69 1.14,-0.9l0.01 1.64 0.95 0.04 0.03 -9.65c-1.37,-0.18 -0.99,0.39 -0.97,1.65z"/>
   <path class="fil22" d="M136.92 22.09c3.03,0.03 6.21,-0.59 6.2,1.71 -0.01,2.23 -3.25,1.62 -6.26,1.65l0.06 -3.36zm-1.04 8.69l0.97 0 0.02 -4.31c1.17,0.01 1.97,-0.22 2.64,0.43l2.97 2.99c0.75,0.76 0.62,0.95 2.12,0.93 -0.28,-0.98 -3.51,-3.21 -3.92,-4.36 4,0.04 3.91,-3.19 2.77,-4.41 -0.94,-1.01 -1.61,-0.94 -3.28,-0.94 -1.35,0 -2.9,-0.07 -4.22,0.02l-0.07 9.65z"/>
   <path class="fil23" d="M57.84 163.65c0.27,0.24 3.8,1.19 4.33,1.14 0.83,-0.08 0.58,0.18 1.3,-0.13l3.37 -1.41c1.45,-0.49 3.36,-1.1 5.1,-1.3 0.19,-0.44 0.5,-0.78 0.5,-1.27l-1.41 -0.05c-2.66,-0.04 -4.86,0.26 -7.31,0.78 -2.7,0.57 -4.91,1.69 -6.11,1.96 0.57,-0.07 0.02,-0.07 0.23,0.28z"/>
   <path class="fil22" d="M113.7 25.4l-0.02 -3.21c0.84,-0.25 2.91,-0.09 3.89,-0.09 1.28,-0.01 2.37,0.19 2.37,1.71 0.01,1.41 -1.03,1.67 -2.36,1.67 -0.97,-0.01 -3.07,0.11 -3.88,-0.08zm-1 5.37l0.96 0.02 0.03 -4.31c1.1,-0.02 2.02,-0.2 2.65,0.39l2.96 2.98c0.83,0.81 0.53,0.97 2.12,0.97 -0.21,-0.93 -3.73,-3.44 -3.96,-4.37 1.66,-0.04 2.32,-0.16 3.06,-1.22 0.73,-1.05 0.51,-2.35 -0.26,-3.2 -0.94,-1.04 -1.58,-0.92 -3.3,-0.92 -1.31,0 -2.92,-0.08 -4.2,0.03l-0.06 9.63z"/>
   <path class="fil19" d="M128.87 189.6c0.76,0 1.22,-0.06 1.68,-0.46 0.39,-0.33 0.7,-0.82 0.68,-1.53 -0.07,-2.44 -3.63,-1.83 -6.52,-1.83l0 3.81 4.16 0.01z"/>
   <path class="fil19" d="M172.03 185.47l7.87 0c-0.26,-4.82 -7.33,-5.3 -7.87,0z"/>
   <path class="fil19" d="M132.64 185.47l7.87 0c-0.25,-4.8 -7.31,-5.32 -7.87,0z"/>
   <path class="fil19" d="M78.91 185.47l7.86 0c-0.25,-4.8 -7.31,-5.32 -7.86,0z"/>
   <path class="fil19" d="M124.71 185.47l4.16 0c3.2,0 3.2,-3.81 0,-3.81l-4.17 0 0.01 3.81z"/>
   <path class="fil19" d="M51.12 185.47l4.17 0c3.2,0 3.2,-3.81 0,-3.81l-4.17 0 0 3.81z"/>
   <path class="fil19" d="M181.34 185.47l4.17 0c3.2,0 3.19,-3.81 0,-3.81l-4.16 0 -0.01 3.81z"/>
   <path class="fil24" d="M62.17 164.79c0.24,0.24 0.56,0.28 0.9,0.37 0.42,0.12 0.38,0.14 0.92,0.26 2.03,0.45 4.05,1.1 5.92,1.46 0.55,-0.63 0.72,-1.74 1.06,-2.55 0.32,-0.76 0.77,-1.67 0.97,-2.38 -1.74,0.2 -3.65,0.81 -5.1,1.3l-3.37 1.41c-0.72,0.31 -0.47,0.05 -1.3,0.13z"/>
   <path class="fil20" d="M113.7 25.4c0.81,0.19 2.91,0.07 3.88,0.08 1.33,0 2.37,-0.26 2.36,-1.67 0,-1.52 -1.09,-1.72 -2.37,-1.71 -0.98,0 -3.05,-0.16 -3.89,0.09l0.02 3.21z"/>
   <path class="fil25" d="M136.86 25.45c3.01,-0.03 6.25,0.58 6.26,-1.65 0.01,-2.3 -3.17,-1.68 -6.2,-1.71l-0.06 3.36z"/>
   <path class="fil20" d="M89.85 25.43l1.01 0.05 5.49 -0.01 1.06 0c0.11,-1.84 -1.91,-3.39 -3.81,-3.37 -1.8,0.02 -3.78,1.57 -3.75,3.33z"/>
   <path class="fil26" d="M70.83 22.14l0.04 8.63 0.97 0.02 0.02 -8.68 2.61 -0.02 0.03 -0.96 -6.02 0.04c-0.33,0.18 -0.3,0.6 -0.1,0.8 0.38,0.36 1.83,0.1 2.45,0.17z"/>
   <path class="fil27" d="M128.87 189.6l-4.16 -0.01 0 -3.81c2.89,0 6.45,-0.61 6.52,1.83 0.02,0.71 -0.29,1.2 -0.68,1.53 -0.46,0.4 -0.92,0.46 -1.68,0.46zm-4.17 -7.94l4.17 0c3.2,0 3.2,3.81 0,3.81l-4.16 0 -0.01 -3.81zm5.72 3.97c0.41,-0.56 1.15,-0.8 1.18,-1.99 0.03,-1 -0.54,-1.7 -1.15,-2.04 -0.82,-0.45 -4.83,-0.25 -6.08,-0.25l0 8.55c3.05,0.01 7.43,0.84 7.23,-2.43 -0.06,-1.05 -0.58,-1.38 -1.18,-1.84z"/>
   <path class="fil28" d="M141.69 189.89c0.92,-1.81 -1.44,-8.19 1.99,-8.19 1.79,0 1.87,1.46 1.86,3.16 0,1.67 0.01,3.34 0,5.01 0.61,-0.09 0.35,-0.39 0.35,-2.26 0,-2.61 -0.59,-5.93 1.91,-5.91 2.43,0.01 1.91,3.2 1.91,6.06 -0.01,1.98 -0.24,2.02 0.34,2.11 0,-1.3 0.15,-6.16 -0.1,-7.01 -0.23,-0.77 -1.07,-1.48 -2,-1.52 -1.22,-0.05 -1.77,0.62 -2.27,1.23 -0.32,-0.61 -0.82,-1.13 -1.71,-1.22 -1.01,-0.1 -1.6,0.23 -1.96,0.81l-0.1 -0.25c-0.02,-0.04 -0.09,-0.18 -0.11,-0.22 -0.26,-0.4 0.21,-0.12 -0.35,-0.35l-0.01 7.66c0,0.2 0,0.38 0.06,0.56 0.15,0.52 -0.17,-0.01 0.19,0.33z"/>
   <path class="fil27" d="M78.91 185.47c0.55,-5.32 7.61,-4.8 7.86,0l-7.86 0zm7.61 2.35c-1.05,-0.23 0,0.37 -1.89,1.34 -0.79,0.41 -1.84,0.53 -2.79,0.3 -1.65,-0.39 -2.74,-1.76 -2.93,-3.68l8.24 -0.04c-0.08,-5.48 -7.21,-5.7 -8.43,-1.41 -1.52,5.37 5.69,7.52 7.8,3.49z"/>
   <path class="fil27" d="M132.64 185.47c0.56,-5.32 7.62,-4.8 7.87,0l-7.87 0zm7.62 2.35c-0.77,-0.17 -0.12,-0.22 -0.58,0.21 -0.79,0.75 -1.69,2.01 -4.1,1.43 -1.66,-0.39 -2.74,-1.76 -2.94,-3.68l8.25 -0.04c-0.08,-5.49 -7.21,-5.7 -8.43,-1.41 -1.52,5.37 5.68,7.52 7.8,3.49z"/>
   <path class="fil27" d="M172.03 185.47c0.54,-5.3 7.61,-4.82 7.87,0l-7.87 0zm7.62 2.35c-0.78,-0.17 -0.12,-0.22 -0.58,0.21 -0.8,0.76 -1.69,2 -4.12,1.43 -1.65,-0.4 -2.72,-1.76 -2.92,-3.68l8.25 -0.04c-0.1,-5.5 -7.22,-5.68 -8.43,-1.41 -1.53,5.39 5.7,7.49 7.8,3.49z"/>
   <path class="fil27" d="M59.46 186.54c-1.15,-5.24 6.6,-6.8 7.68,-1.79 1.13,5.25 -6.6,6.69 -7.68,1.79zm7.74 -2.89c-0.92,-0.99 -2,-2.87 -4.95,-2.2 -4.27,0.96 -4.28,7.41 0,8.36 3.09,0.69 4.22,-1.46 4.97,-2.2l0.01 2.25 0.34 0.04 0.02 -7.81c-0.03,-0.96 0.1,-0.58 -0.35,-0.7l-0.04 2.26z"/>
   <path class="fil29" d="M181.35 181.66l4.16 0c3.19,0 3.2,3.81 0,3.81l-4.17 0 0.01 -3.81zm3.07 4.13c1.48,-0.03 2.43,0.21 3.26,-0.74 0.61,-0.71 0.78,-1.91 0.14,-2.8 -0.98,-1.34 -4.33,-0.9 -6.82,-0.9l0 6.57c0,0.94 -0.14,1.6 0.23,1.96 0.36,-0.73 0.11,-3.09 0.12,-4.1 3.22,0.01 2.37,-0.15 4.1,1.58 0.77,0.77 2.23,2.52 2.97,2.52l-4 -4.09z"/>
   <path class="fil27" d="M100.89 189.6l0 -7.94c1.48,0 4.31,-0.21 5.5,0.34 3.13,1.42 3.19,5.7 0.1,7.21 -1.28,0.62 -4.04,0.38 -5.6,0.39zm-0.34 0.3c1.69,0 4.77,0.25 6.12,-0.36 3.13,-1.41 3.45,-6.2 0,-7.82 -1.34,-0.63 -4.47,-0.37 -6.12,-0.37l0 8.55z"/>
   <path class="fil27" d="M51.12 181.66l4.17 0c3.2,0 3.2,3.81 0,3.81l-4.17 0 0 -3.81zm3.07 4.13c1.48,-0.03 2.45,0.19 3.26,-0.74 0.61,-0.7 0.79,-1.91 0.14,-2.8 -0.66,-0.91 -1.48,-0.9 -2.92,-0.9 -1.29,0 -2.59,0 -3.89,0l0 8.55 0.34 -0.04 0 -4.08c0.84,0 2.2,-0.2 2.75,0.2 0.95,0.69 3.33,3.9 4.32,3.9l-4 -4.09z"/>
   <path class="fil27" d="M117.8 186.7c-1.54,5.08 -9.04,2.83 -7.59,-2.18 0.5,-1.75 2.34,-3.37 4.77,-2.72 1.78,0.47 3.56,2.45 2.82,4.9zm0.4 -0.16c1.11,-5.95 -7.34,-6.99 -8.4,-1.96 -1.26,6.01 7.42,7.28 8.4,1.96z"/>
   <path class="fil29" d="M88.11 186.75c-0.58,0.29 -0.24,3.6 3.95,3.13 2.61,-0.3 3.38,-3.23 1.38,-4.24 -1.41,-0.72 -5.62,-0.82 -4.39,-3.04 0.47,-0.85 1.75,-1.04 2.81,-0.87 1.76,0.28 1.6,1.55 1.9,2.05 0.01,-0.02 0.68,-0.1 -0.1,-1.42 -0.76,-1.29 -3.27,-1.26 -4.34,-0.57 -0.76,0.49 -1.26,1.8 -0.36,2.68 1.1,1.08 4.74,0.76 5.17,2.62 0.27,1.15 -0.52,1.94 -1.38,2.26 -0.94,0.35 -2.32,0.3 -3.2,-0.13 -1.45,-0.71 -0.9,-1.48 -1.44,-2.47z"/>
   <path class="fil29" d="M167.65 189.9c0.33,-0.21 0.05,0.23 0.35,-0.41l3 -8.13c-0.65,0.09 -0.48,0.24 -1.07,1.82 -0.26,0.72 -0.51,1.42 -0.78,2.12 -0.51,1.37 -1.01,2.76 -1.52,4.13 -0.42,-0.56 -2.08,-4.99 -2.58,-6.24 -0.75,-1.89 -0.43,-1.72 -1.14,-1.84 0.52,1.65 2.26,5.56 3.1,7.66 0.01,0.05 0.2,0.54 0.21,0.55 0.18,0.32 0.08,0.23 0.43,0.34z"/>
   <path class="fil29" d="M158.33 189.9c0.31,-0.19 0.09,0.31 0.55,-0.98 0.87,-2.41 2.08,-5.26 2.8,-7.56 -0.64,0.09 -0.48,0.25 -1.06,1.82l-2.31 6.25c-0.41,-0.56 -2.07,-4.99 -2.57,-6.25 -0.15,-0.35 -0.31,-0.74 -0.44,-1.09 -0.28,-0.76 -0.06,-0.63 -0.7,-0.74l3.31 8.21c0.18,0.32 0.08,0.23 0.42,0.34z"/>
   <path class="fil27" d="M71.89 181.35l5.43 0.31 -3.12 4.11c-0.54,0.68 -2.79,3.2 -2.81,4.12l0.38 -0.3 3.09 -4.08c0.77,-1.08 2.8,-3.32 2.9,-4.16l-5.87 0z"/>
   <path class="fil28" d="M162.61 182.77c-0.24,0.44 -0.21,6.7 0,7.12 0.36,-0.23 0.24,-0.03 0.24,-0.74l-0.01 -4.9c0,-0.56 0.17,-1.27 -0.23,-1.48z"/>
   <path class="fil0" d="M153.91 10.07c0.48,0 33.62,-0.23 34.42,0.15 8.87,28.05 -9.25,89.92 -4.49,29.6 0.22,-2.81 -3.23,-3.73 -3.68,-1.65 -48.33,222.71 8.27,-191.53 8.27,85.32 0,0.74 0.45,14.64 -0.03,15.27 -0.33,-2.12 -0.07,-6.76 -0.07,-9.16 0,-2.37 0.12,-1.94 -1.57,-2.94 -0.64,-0.38 -2.33,-1.61 -2.91,-1.49 -0.35,-0.41 -0.29,-0.35 -0.89,-0.66 -4.69,-2.45 -9.23,-4.32 -14.29,-5.86 -11.79,-3.59 -26.3,-4.48 -38.37,-2.06 -2.88,0.58 -5.75,1.23 -8.55,2.06l-8.05 2.76c-0.57,-0.25 -1.13,-0.5 -1.69,-0.74l0.01 1.45c-0.78,0.62 -4.04,1.96 -5.15,2.56l-4.86 2.73 -0.47 0.17c-0.7,-0.44 -1.13,-0.57 -1.67,-1.03 -0.08,-0.81 -0.13,-1.7 0.06,-2.47 0.72,-0.39 1.32,-0.45 2.06,-1.05 16,-12.92 -26.52,-9.48 -3.38,1.02 0.22,0.66 0.19,1.23 0.08,1.93l-5.04 -2.39c-9.27,-3.95 -19.59,-6.38 -29.82,-6.39 -2.44,0 -11.95,0.21 -13.28,1.08 0,2.62 0.18,17.07 -0.1,18.38 -0.22,0.93 -0.15,9.65 -0.03,10.96 0.83,-0.07 2.13,-0.55 3.07,-0.76 7.05,-1.63 13.47,-1.57 20.58,-0.11 1.01,0.21 2.14,0.65 2.96,0.75l-0.07 0.23c-6.89,-0.93 -14.28,-0.67 -20.97,1.53 -0.89,0.3 -2.03,0.7 -2.9,1.03 -0.48,0.18 -0.92,0.35 -1.41,0.56l-1.43 0.61 0.03 -3.54c-0.3,-1.67 -0.03,-10.02 -0.02,-12.37 0.14,-86.66 0.04,7.24 0.04,-104.88 0,-3.77 -0.19,-17.93 0.05,-20.5 1.06,-0.29 7.04,-0.1 8.6,-0.1l94.96 0z"/>
  </g>
 </g>
</svg>
