<?xml version="1.0" encoding="UTF-8"?>
<!DOCTYPE svg PUBLIC "-//W3C//DTD SVG 1.1//EN" "http://www.w3.org/Graphics/SVG/1.1/DTD/svg11.dtd">
<!-- Creator: CorelDRAW 2018 (64 Bit Versão de avaliação) -->
<svg xmlns="http://www.w3.org/2000/svg" xml:space="preserve" width="250px" height="148px" version="1.1" style="shape-rendering:geometricPrecision; text-rendering:geometricPrecision; image-rendering:optimizeQuality; fill-rule:evenodd; clip-rule:evenodd"
viewBox="0 0 250 148"
 xmlns:xlink="http://www.w3.org/1999/xlink">
 <defs>
  <style type="text/css">
   <![CDATA[
    .fil0 {fill:none}
    .fil3 {fill:#FEFEFE}
    .fil2 {fill:#0A602A}
    .fil1 {fill:#71BF45}
    .fil5 {fill:#FEFEFE;fill-rule:nonzero}
    .fil4 {fill:#0A602A;fill-rule:nonzero}
   ]]>
  </style>
 </defs>
 <g id="Camada_x0020_1">
  <metadata id="CorelCorpID_0Corel-Layer"/>
  <rect class="fil0" width="250" height="148"/>
  <g id="_3096052284448">
   <path class="fil1" d="M35.28 9.81l179.44 0 0 3.7 -3.44 0c-0.96,0 -1.74,0.78 -1.74,1.75l0 11.21c0,0.96 0.78,1.74 1.74,1.74l3.44 0 0 91.58 -3.44 0c-0.96,0 -1.74,0.79 -1.74,1.75l0 11.21c0,0.96 0.78,1.74 1.74,1.74l3.44 0 0 3.71 -179.44 0 0 -3.71 5.91 0c0.97,0 1.75,-0.78 1.75,-1.74l0 -11.21c0,-0.96 -0.78,-1.75 -1.75,-1.75l-5.91 0 0 -91.58 5.91 0c0.97,0 1.75,-0.78 1.75,-1.74l0 -11.21c0,-0.97 -0.78,-1.75 -1.75,-1.75l-5.91 0 0 -3.7zm153.78 109.98l7.68 0c0.96,0 1.75,0.79 1.75,1.75l0 11.21c0,0.96 -0.79,1.74 -1.75,1.74l-7.68 0c-0.96,0 -1.74,-0.78 -1.74,-1.74l0 -11.21c0,-0.96 0.78,-1.75 1.74,-1.75zm-22.22 0l7.68 0c0.96,0 1.74,0.79 1.74,1.75l0 11.21c0,0.96 -0.78,1.74 -1.74,1.74l-7.68 0c-0.96,0 -1.74,-0.78 -1.74,-1.74l0 -11.21c0,-0.96 0.78,-1.75 1.74,-1.75zm-22.22 0l7.68 0c0.96,0 1.74,0.79 1.74,1.75l0 11.21c0,0.96 -0.78,1.74 -1.74,1.74l-7.68 0c-0.96,0 -1.75,-0.78 -1.75,-1.74l0 -11.21c0,-0.96 0.79,-1.75 1.75,-1.75zm-22.22 0l7.68 0c0.96,0 1.74,0.79 1.74,1.75l0 11.21c0,0.96 -0.78,1.74 -1.74,1.74l-7.68 0c-0.96,0 -1.75,-0.78 -1.75,-1.74l0 -11.21c0,-0.96 0.79,-1.75 1.75,-1.75zm-22.22 0l7.68 0c0.96,0 1.74,0.79 1.74,1.75l0 11.21c0,0.96 -0.78,1.74 -1.74,1.74l-7.68 0c-0.96,0 -1.75,-0.78 -1.75,-1.74l0 -11.21c0,-0.96 0.79,-1.75 1.75,-1.75zm-22.22 0l7.67 0c0.97,0 1.75,0.79 1.75,1.75l0 11.21c0,0.96 -0.78,1.74 -1.75,1.74l-7.67 0c-0.96,0 -1.75,-0.78 -1.75,-1.74l0 -11.21c0,-0.96 0.79,-1.75 1.75,-1.75zm-22.22 0l7.67 0c0.97,0 1.75,0.79 1.75,1.75l0 11.21c0,0.96 -0.78,1.74 -1.75,1.74l-7.67 0c-0.96,0 -1.75,-0.78 -1.75,-1.74l0 -11.21c0,-0.96 0.79,-1.75 1.75,-1.75zm133.32 -106.28l7.68 0c0.96,0 1.75,0.78 1.75,1.75l0 11.21c0,0.96 -0.79,1.74 -1.75,1.74l-7.68 0c-0.96,0 -1.74,-0.78 -1.74,-1.74l0 -11.21c0,-0.97 0.78,-1.75 1.74,-1.75zm-22.22 0l7.68 0c0.96,0 1.74,0.78 1.74,1.75l0 11.21c0,0.96 -0.78,1.74 -1.74,1.74l-7.68 0c-0.96,0 -1.74,-0.78 -1.74,-1.74l0 -11.21c0,-0.97 0.78,-1.75 1.74,-1.75zm-22.22 0l7.68 0c0.96,0 1.74,0.78 1.74,1.75l0 11.21c0,0.96 -0.78,1.74 -1.74,1.74l-7.68 0c-0.96,0 -1.75,-0.78 -1.75,-1.74l0 -11.21c0,-0.97 0.79,-1.75 1.75,-1.75zm-22.22 0l7.68 0c0.96,0 1.74,0.78 1.74,1.75l0 11.21c0,0.96 -0.78,1.74 -1.74,1.74l-7.68 0c-0.96,0 -1.75,-0.78 -1.75,-1.74l0 -11.21c0,-0.97 0.79,-1.75 1.75,-1.75zm-22.22 0l7.68 0c0.96,0 1.74,0.78 1.74,1.75l0 11.21c0,0.96 -0.78,1.74 -1.74,1.74l-7.68 0c-0.96,0 -1.75,-0.78 -1.75,-1.74l0 -11.21c0,-0.97 0.79,-1.75 1.75,-1.75zm-22.22 0l7.67 0c0.97,0 1.75,0.78 1.75,1.75l0 11.21c0,0.96 -0.78,1.74 -1.75,1.74l-7.67 0c-0.96,0 -1.75,-0.78 -1.75,-1.74l0 -11.21c0,-0.97 0.79,-1.75 1.75,-1.75zm-22.22 0l7.67 0c0.97,0 1.75,0.78 1.75,1.75l0 11.21c0,0.96 -0.78,1.74 -1.75,1.74l-7.67 0c-0.96,0 -1.75,-0.78 -1.75,-1.74l0 -11.21c0,-0.97 0.79,-1.75 1.75,-1.75z"/>
   <path class="fil2" d="M122.77 36.58c-2.39,10.11 -2.98,9.18 5.8,12.82 0.33,0.98 -0.23,5.94 -1.15,8.54l1.53 0.8c0.05,-0.57 0.21,-1.07 0.26,-1.53 0.84,-7.16 4.68,-1.62 12.39,-3.48 7.2,-2.86 8.01,-12.22 5.12,-11.06 0.7,0.28 0.44,0.62 0.32,0.98 -1.78,2.98 -15.25,-4.08 -17.5,9.2 2.74,-3.96 6.49,-5.24 12.2,-5.43 -6.7,0.68 -11.38,3.08 -12.85,8.04 -0.41,-4.74 2.87,-8.82 -1.8,-12.56 1.95,0.77 3,2.22 3.05,4.54 3.32,-8.62 -4.25,-5.75 -7.37,-10.86z"/>
   <path class="fil3" d="M122.76 101.34c0,0 1.53,-1.96 2.03,-1.22 0.5,0.75 -1.97,1.31 -2.03,1.22z"/>
   <path class="fil4" d="M56.62 68.06l-0.27 0c-0.05,0 -0.11,0 -0.18,0 -0.06,-0.02 -0.1,-0.03 -0.14,-0.03l-0.08 0c-0.26,-0.07 -0.39,-0.18 -0.39,-0.35 0,-0.28 0.31,-0.41 0.92,-0.41 1.28,0 2.38,-0.39 3.29,-1.17 0.91,-0.78 1.37,-1.77 1.37,-2.97 0,-0.32 -0.04,-0.73 -0.11,-1.22 -0.14,-1.06 -0.62,-1.96 -1.43,-2.73 -0.75,-0.72 -1.52,-1.13 -2.32,-1.21 -0.51,-0.06 -0.92,-0.08 -1.22,-0.08l-0.14 0c-0.51,0 -0.89,0.05 -1.14,0.15 -0.05,0.02 -0.08,0.13 -0.08,0.35l0 10.86c0,3.59 -0.02,4.74 -0.05,3.44 0.03,1.68 0.16,2.76 0.4,3.23 0.12,0.22 0.36,0.35 0.71,0.41 0.29,0.04 0.7,0.07 1.23,0.07 0.27,0 0.41,0.12 0.41,0.35 0,0.24 -0.22,0.37 -0.65,0.37l-0.55 0c-0.54,0 -1.09,-0.04 -1.68,-0.06 -0.94,-0.03 -1.34,-0.03 -1.19,-0.05l-0.33 0.03c-0.67,0.05 -0.99,0.05 -0.96,0.05l-0.27 0c-0.21,0 -0.4,0.03 -0.58,0.03l-0.54 0c-0.4,0 -0.61,-0.13 -0.61,-0.37 0,-0.23 0.13,-0.35 0.39,-0.35 0.03,0 0.1,0 0.19,0 0.1,0 0.16,0 0.2,0 0.09,-0.01 0.23,-0.04 0.43,-0.09 0.19,-0.04 0.33,-0.16 0.41,-0.36 0.22,-0.56 0.33,-1.66 0.35,-3.28 0.02,-0.99 0.03,-2.12 0.03,-3.4l0 -8.68c0,-0.18 -0.01,-0.46 -0.03,-0.83 -0.01,-0.37 -0.02,-0.65 -0.02,-0.84l0 -0.04c0,-0.4 -0.08,-0.71 -0.23,-0.91 -0.14,-0.2 -0.43,-0.35 -0.86,-0.43 -0.09,-0.02 -0.25,-0.03 -0.47,-0.06 -0.08,-0.01 -0.14,-0.02 -0.2,-0.02l-0.21 0c-0.27,0 -0.4,-0.11 -0.4,-0.33 0,-0.25 0.21,-0.4 0.61,-0.38l0.9 0.02c0.24,0.01 0.59,0.02 1.05,0.03 0.97,0.02 1.37,0.03 1.2,0.03 1.18,0 2.02,-0.04 2.51,-0.06l1.01 -0.02c1.08,-0.03 1.96,0.08 2.65,0.26 0.97,0.24 1.74,0.58 2.28,1l0.37 0.29 0.19 0.17c0.33,0.29 0.63,0.79 0.93,1.45 0.23,0.51 0.35,1.07 0.35,1.67 0,1.93 -0.66,3.49 -1.99,4.68 -1.33,1.19 -3.02,1.79 -5.06,1.79zm27.05 8.69l0.06 0.05c-0.99,-0.5 -1.88,-1.24 -2.66,-2.22 -0.46,-0.58 -1.17,-1.45 -2.1,-2.6 -0.36,-0.45 -0.87,-1.14 -1.55,-2.04 -0.4,-0.53 -0.67,-0.95 -0.93,-1.2l-0.06 -0.05c-0.07,-0.02 -0.12,-0.03 -0.16,-0.05l-3.41 -0.05c-0.02,0 -0.03,0.02 -0.03,0.05l0 0.61c0,3.59 -0.01,4.74 -0.05,3.44 0.04,1.68 0.17,2.76 0.41,3.23 0.11,0.22 0.35,0.35 0.69,0.41 0.31,0.05 0.72,0.07 1.25,0.07 0.27,0 0.41,0.12 0.41,0.35 0,0.24 -0.22,0.37 -0.65,0.37l-0.56 0c-0.53,0 -1.09,-0.04 -1.67,-0.06 -0.95,-0.03 -1.44,-0.02 -1.48,-0.02 -0.6,0.03 -0.93,0.05 -0.98,0.05l-0.27 0c-0.21,0 -0.41,0.03 -0.59,0.03l-0.51 0c-0.4,0 -0.61,-0.13 -0.61,-0.37 0,-0.23 0.13,-0.35 0.38,-0.35 0.04,0 0.11,0 0.2,0 0.1,0 0.16,0.01 0.2,0 0.09,-0.01 0.23,-0.04 0.43,-0.09 0.2,-0.04 0.34,-0.16 0.41,-0.36 0.22,-0.56 0.34,-1.66 0.36,-3.28 0.01,-0.99 0.03,-2.12 0.03,-3.4l0 -8.68c0,-0.18 -0.01,-0.46 -0.03,-0.83 -0.02,-0.37 -0.03,-0.65 -0.03,-0.84l0 -0.04c0,-0.4 -0.07,-0.71 -0.22,-0.91 -0.15,-0.2 -0.44,-0.35 -0.87,-0.43 -0.09,-0.02 -0.25,-0.03 -0.48,-0.06 -0.07,-0.01 -0.14,-0.02 -0.19,-0.02l-0.22 0c-0.26,0 -0.39,-0.11 -0.39,-0.33 0,-0.25 0.2,-0.39 0.61,-0.38l0.96 0.02c0.23,0.01 0.59,0.02 1.06,0.03 0.93,0.02 1.3,0.03 1.13,0.03 0.19,0 0.47,-0.01 0.84,-0.03 0.36,-0.02 0.63,-0.03 0.82,-0.03l0.17 0c0.17,0 0.42,0.01 0.75,0 0.32,-0.01 0.56,-0.02 0.72,-0.02 1.29,0 2.39,0.11 3.31,0.33 1.14,0.28 2.02,0.81 2.68,1.54 0.83,0.93 1.26,1.94 1.26,3.08 0,2.15 -1.11,4.2 -3.33,6.15l3.07 3.68c0.99,1.17 1.68,2 2.11,2.44 1,1.06 1.83,1.71 2.48,1.95 0.82,0.32 1.62,0.48 2.4,0.48 0.3,0 0.45,0.12 0.45,0.35 0,0.24 -0.29,0.37 -0.87,0.37l-1.98 0c-1.25,0 -2.17,-0.13 -2.77,-0.37zm-8.94 -19.08c-0.8,0 -1.43,0.07 -1.9,0.19 -0.18,0.05 -0.29,0.15 -0.29,0.36l0 8.67c0,0.27 0.24,0.47 0.7,0.59 0.71,0.17 1.51,0.26 2.4,0.26l0.13 0c0.55,0 1.07,-0.06 1.55,-0.21 0.77,-0.24 1.39,-0.87 1.86,-1.85 0.33,-0.71 0.49,-1.58 0.49,-2.6 0,-1.59 -0.4,-2.86 -1.2,-3.82 -0.88,-1.06 -2.12,-1.59 -3.74,-1.59zm20.02 9.25c0,0.02 0.01,0.03 0.03,0.03l0 5.96c0,1.43 0.18,2.27 0.53,2.52 0.36,0.24 1.18,0.37 2.5,0.37l0.63 0c1.45,0 2.34,-0.29 2.7,-0.85 0.16,-0.25 0.32,-0.64 0.42,-1.2 0.07,-0.37 0.19,-0.56 0.41,-0.56 0.24,0 0.36,0.18 0.36,0.53l0 0 0 0.06c0,0.3 -0.07,0.76 -0.19,1.38 -0.01,0.05 -0.02,0.14 -0.03,0.26 0,0.13 0,0.23 0,0.3 -0.07,0.27 -0.13,0.53 -0.2,0.79 -0.09,0.32 -0.27,0.51 -0.48,0.58 -0.21,0.08 -0.6,0.12 -1.16,0.12 -1.5,0 -3.06,-0.03 -4.7,-0.09 -1.63,-0.06 -2.36,-0.08 -2.16,-0.08l-0.1 0c-0.06,0 -0.13,0.02 -0.22,0.02l-0.77 0c-0.19,0 -0.47,0.01 -0.82,0.03 -0.35,0.02 -0.61,0.03 -0.8,0.03 -0.4,0 -0.61,-0.13 -0.61,-0.37 0,-0.23 0.13,-0.35 0.38,-0.35 0.04,0 0.11,0 0.2,0 0.1,0 0.16,0.01 0.2,0 0.09,-0.01 0.23,-0.04 0.42,-0.09 0.2,-0.04 0.34,-0.16 0.41,-0.36 0.22,-0.56 0.34,-1.66 0.36,-3.28 0.01,-0.99 0.02,-2.12 0.02,-3.4l0 -8.68c0,-0.18 0,-0.46 -0.02,-0.83 -0.02,-0.37 -0.03,-0.65 -0.03,-0.84l0 -0.04c0,-0.4 -0.07,-0.71 -0.22,-0.91 -0.15,-0.2 -0.44,-0.35 -0.86,-0.43 -0.09,-0.02 -0.25,-0.03 -0.48,-0.06 -0.07,-0.01 -0.13,-0.02 -0.19,-0.02l-0.21 0c-0.27,0 -0.4,-0.11 -0.4,-0.33 0,-0.25 0.21,-0.39 0.61,-0.38l0.95 0.02c0.23,0.01 0.59,0.02 1.06,0.03 0.92,0.02 1.29,0.03 1.12,0.03l3.2 0c0.73,0 1.39,0 1.99,0 0.42,0 1.05,-0.02 1.88,-0.08 0.1,-0.01 0.27,-0.09 0.5,-0.09l0.02 0c0.04,-0.04 0.09,-0.07 0.15,-0.09 0.07,-0.03 0.14,-0.04 0.21,-0.04 0.2,0 0.31,0.14 0.31,0.42 0,-0.01 -0.09,0.41 -0.26,1.27l0 -0.02c0,0.23 -0.04,0.68 -0.08,1.35 -0.01,0.2 -0.03,0.33 -0.03,0.42l0 0.06c-0.09,0.25 -0.22,0.36 -0.39,0.36 -0.25,0 -0.38,-0.16 -0.38,-0.5 0,-0.14 0.03,-0.34 -0.05,-0.58l-0.09 -0.23c-0.13,-0.37 -0.42,-0.62 -0.86,-0.72 -0.45,-0.11 -1.01,-0.17 -1.7,-0.19 -1.07,-0.03 -1.87,-0.05 -2.38,-0.05l-0.67 0c0,0.04 0,0.07 0,0.1l0 7.29c0,0.06 0,0.1 0,0.11l2.23 0c1.43,0 2.41,-0.05 2.94,-0.16 0.16,-0.04 0.27,-0.12 0.38,-0.21l0.12 -0.1c0.2,-0.17 0.3,-0.3 0.43,-0.3 0.23,0 0.34,0.13 0.34,0.4 0,0.05 -0.07,0.34 -0.16,0.88 -0.13,0.74 -0.18,1.51 -0.18,2.3l0 0.13c0,0.36 -0.13,0.53 -0.37,0.53 -0.25,0 -0.37,-0.13 -0.37,-0.4 0,-0.34 -0.03,-0.61 -0.11,-0.81 -0.02,-0.04 -0.04,-0.11 -0.08,-0.2 -0.17,-0.35 -0.58,-0.58 -1.22,-0.63 -0.37,-0.04 -1.7,-0.06 -3.98,-0.13zm35.27 10.04c-1.22,-4.7 -2.44,-9.67 -2.34,-15.69l-8.2 14.7c-0.12,0.22 -0.22,0.39 -0.32,0.51 -0.04,0 -0.08,0 -0.14,0 -0.04,0.02 -0.08,0.02 -0.1,0.02l-0.11 0c-0.64,-0.19 -6.61,-12.5 -7.32,-14.03l-1.52 11.81c-0.02,0.2 0,0.5 0,0.91l0 0.45c0,0.35 0.18,0.59 0.53,0.66 0.42,0.09 0.76,0.1 1.01,0.1 0.25,0 0.38,0.11 0.38,0.33 0,0.25 -0.23,0.4 -0.66,0.39l-0.67 -0.03c-0.19,-0.01 -0.48,-0.01 -0.85,-0.03 -0.74,-0.02 -1.06,-0.02 -0.96,-0.02 -0.12,0 -0.31,0.01 -0.57,0.02 -0.25,0.02 -0.44,0.03 -0.57,0.03l-0.2 0c-0.16,0 -0.32,0.03 -0.45,0.03l-0.43 0c-0.4,0 -0.61,-0.14 -0.61,-0.39 0,-0.22 0.14,-0.33 0.43,-0.33l0.08 0c0.77,0 1.21,-0.23 1.34,-0.68 0.12,-0.41 0.27,-0.83 0.27,-1.3l0 -0.06 0 -0.05 2.07 -17.33c0.05,-0.42 0.26,-0.61 0.45,-0.61 0.16,0 0.31,0.09 0.43,0.26 0.04,0.06 0.06,0.16 0.12,0.27l8.45 15.97 8.42 -15.99c0.18,-0.33 0.35,-0.51 0.56,-0.51 0.26,0 0.67,0.28 0.67,0.84 0.03,6.96 0.78,13.66 2.7,19.76 -0.73,0.05 -1.17,-0.06 -1.89,-0.01zm12.32 0.02l-0.53 0c-0.3,0 -0.76,-0.01 -1.37,-0.03 -0.6,-0.03 -1.06,-0.04 -1.36,-0.04 -0.14,0 -0.35,0.01 -0.63,0.02 -0.29,0.02 -0.5,0.03 -0.64,0.03l-0.24 0c-0.12,0 -0.31,-0.01 -0.56,0 -0.22,0.01 -0.4,0.02 -0.53,0.02 -0.39,0 -0.58,-0.12 -0.58,-0.36 0,-0.23 0.12,-0.35 0.37,-0.35 0.04,0 0.1,0 0.19,0 0.08,0 0.14,0 0.18,0 0.09,-0.01 0.23,-0.04 0.42,-0.09 0.18,-0.04 0.3,-0.17 0.38,-0.36 0.2,-0.56 0.33,-1.66 0.35,-3.29 0.01,-0.98 0.02,-2.11 0.02,-3.39l0 -8.68c0,-0.18 -0.01,-0.46 -0.02,-0.83 -0.02,-0.37 -0.03,-0.65 -0.03,-0.84l0 -0.04c0,-0.76 -0.27,-1.2 -0.8,-1.32 -0.07,-0.01 -0.12,-0.03 -0.15,-0.05 -0.26,-0.04 -0.46,-0.06 -0.61,-0.06 -0.26,0 -0.38,-0.1 -0.38,-0.32 0,-0.25 0.19,-0.39 0.58,-0.39l0.51 0c0.19,0 0.38,0.02 0.58,0.06l0.27 -0.03c0.14,-0.01 0.36,0.01 0.66,0.03 0.3,0.01 0.52,0.02 0.66,0.02 0.14,0 0.35,-0.01 0.64,-0.02 0.28,-0.02 0.49,-0.03 0.63,-0.03l0.25 0c0.11,0 0.3,0.01 0.55,0 0.23,-0.01 0.4,-0.03 0.53,-0.03 0.41,0 0.61,0.14 0.61,0.39 0,0.22 -0.13,0.32 -0.4,0.32l-0.08 0c-0.6,0 -0.99,0.17 -1.16,0.49 -0.11,0.19 -0.21,0.54 -0.25,1.06 -0.03,0.4 -0.03,0.94 -0.03,1.59l0 8.65c0,3.59 -0.01,4.74 -0.05,3.45 0.04,1.68 0.17,2.76 0.4,3.23 0.11,0.22 0.33,0.35 0.67,0.4 0.28,0.05 0.67,0.08 1.16,0.08 0.27,0 0.4,0.12 0.4,0.35 0,0.24 -0.21,0.36 -0.61,0.36zm10.92 -10.06c0,0.02 0.01,0.03 0.03,0.03l0 5.96c0,1.43 0.17,2.27 0.52,2.52 0.36,0.24 1.17,0.37 2.48,0.37l0.63 0c1.43,0 2.32,-0.29 2.67,-0.85 0.16,-0.25 0.32,-0.65 0.42,-1.2 0.07,-0.37 0.19,-0.56 0.4,-0.56 0.24,0 0.36,0.18 0.36,0.53l0 0 0 0.06c0,0.3 -0.07,0.76 -0.18,1.38 -0.01,0.05 -0.02,0.14 -0.03,0.26 -0.01,0.13 0,0.23 0,0.3 -0.08,0.27 -0.13,0.53 -0.2,0.79 -0.09,0.32 -0.27,0.51 -0.48,0.58 -0.21,0.08 -0.59,0.12 -1.15,0.12 -1.48,0 -3.04,-0.03 -4.66,-0.09 -1.62,-0.06 -2.34,-0.08 -2.14,-0.08l-0.11 0c-0.05,0 -0.12,0.02 -0.21,0.02l-0.77 0c-0.18,0 -0.46,0.01 -0.81,0.03 -0.34,0.02 -0.6,0.03 -0.79,0.03 -0.4,0 -0.6,-0.13 -0.6,-0.37 0,-0.23 0.12,-0.35 0.38,-0.35 0.03,0 0.1,0 0.19,0 0.1,0 0.16,0 0.2,0 0.08,-0.01 0.23,-0.04 0.42,-0.09 0.19,-0.04 0.33,-0.16 0.41,-0.36 0.21,-0.56 0.33,-1.66 0.35,-3.28 0.01,-0.99 0.02,-2.12 0.02,-3.4l0 -8.68c0,-0.18 -0.01,-0.46 -0.02,-0.83 -0.02,-0.37 -0.03,-0.65 -0.03,-0.84l0 -0.04c0,-0.4 -0.08,-0.71 -0.22,-0.91 -0.15,-0.2 -0.43,-0.35 -0.86,-0.43 -0.08,-0.02 -0.24,-0.03 -0.46,-0.06 -0.08,-0.01 -0.14,-0.02 -0.19,-0.02l-0.22 0c-0.26,0 -0.39,-0.11 -0.39,-0.33 0,-0.25 0.2,-0.39 0.61,-0.38l0.94 0.02c0.23,0.01 0.58,0.02 1.04,0.03 0.92,0.02 1.29,0.03 1.12,0.03l3.17 0c0.72,0 1.38,0 1.98,0 0.41,0 1.03,-0.02 1.85,-0.08 0.11,-0.01 0.27,-0.09 0.5,-0.09l0.03 0c0.03,-0.04 0.08,-0.07 0.14,-0.09 0.07,-0.03 0.14,-0.04 0.21,-0.04 0.2,0 0.31,0.14 0.31,0.42 0,-0.01 -0.09,0.41 -0.26,1.27l0 -0.02c0,0.23 -0.04,0.68 -0.08,1.35 -0.01,0.19 -0.03,0.33 -0.03,0.42l0 0.06c-0.09,0.25 -0.21,0.36 -0.38,0.36 -0.26,0 -0.38,-0.16 -0.38,-0.5 0,-0.14 0.03,-0.34 -0.06,-0.58l-0.08 -0.23c-0.13,-0.37 -0.42,-0.62 -0.86,-0.72 -0.44,-0.11 -1,-0.17 -1.68,-0.19 -1.06,-0.03 -1.85,-0.05 -2.36,-0.05l-0.66 0c0,0.04 0,0.07 0,0.1l0 7.29c0,0.06 0,0.1 0,0.11l2.2 0c1.43,0 2.4,-0.05 2.92,-0.16 0.16,-0.04 0.27,-0.12 0.38,-0.21l0.12 -0.1c0.19,-0.17 0.3,-0.3 0.43,-0.3 0.22,0 0.33,0.13 0.33,0.4 0,0.05 -0.06,0.34 -0.16,0.88 -0.13,0.74 -0.17,1.51 -0.17,2.3l0 0.13c0,0.35 -0.13,0.53 -0.38,0.53 -0.24,0 -0.36,-0.13 -0.36,-0.4 0,-0.34 -0.03,-0.61 -0.11,-0.81 -0.01,-0.04 -0.04,-0.11 -0.08,-0.2 -0.17,-0.35 -0.58,-0.58 -1.21,-0.63 -0.36,-0.04 -1.68,-0.06 -3.94,-0.13zm28.56 9.83l0.06 0.05c-1,-0.5 -1.9,-1.25 -2.68,-2.22 -0.47,-0.58 -1.19,-1.45 -2.13,-2.6 -0.37,-0.45 -0.89,-1.14 -1.57,-2.04 -0.4,-0.53 -0.68,-0.95 -0.94,-1.2l-0.06 -0.05c-0.07,-0.02 -0.13,-0.03 -0.16,-0.05l-3.45 -0.05c-0.02,0 -0.03,0.02 -0.03,0.05l0 0.61c0,3.59 -0.02,4.74 -0.06,3.44 0.04,1.68 0.17,2.76 0.42,3.23 0.11,0.22 0.35,0.35 0.7,0.41 0.31,0.05 0.73,0.07 1.26,0.07 0.28,0 0.41,0.12 0.41,0.35 0,0.24 -0.22,0.37 -0.65,0.37l-0.56 0c-0.54,0 -1.11,-0.04 -1.7,-0.06 -0.96,-0.03 -1.46,-0.02 -1.49,-0.02 -0.61,0.03 -0.94,0.05 -1,0.05l-0.27 0c-0.21,0 -0.41,0.03 -0.59,0.03l-0.52 0c-0.41,0 -0.62,-0.13 -0.62,-0.37 0,-0.23 0.13,-0.35 0.39,-0.35 0.03,0 0.1,0 0.2,0 0.1,0 0.17,0 0.2,0 0.09,-0.01 0.24,-0.04 0.43,-0.09 0.2,-0.04 0.35,-0.16 0.43,-0.36 0.22,-0.56 0.33,-1.66 0.35,-3.28 0.01,-0.99 0.03,-2.12 0.03,-3.4l0 -8.68c0,-0.18 -0.01,-0.46 -0.03,-0.83 -0.01,-0.37 -0.02,-0.65 -0.02,-0.84l0 -0.04c0,-0.4 -0.08,-0.71 -0.23,-0.91 -0.15,-0.2 -0.44,-0.35 -0.88,-0.43 -0.09,-0.02 -0.25,-0.03 -0.48,-0.06 -0.07,-0.01 -0.14,-0.02 -0.19,-0.02l-0.22 0c-0.27,0 -0.4,-0.11 -0.4,-0.33 0,-0.25 0.2,-0.39 0.62,-0.38l0.96 0.02c0.24,0.01 0.6,0.02 1.08,0.03 0.93,0.02 1.32,0.03 1.14,0.03 0.2,0 0.48,-0.01 0.85,-0.03 0.36,-0.02 0.64,-0.03 0.83,-0.03l0.18 0c0.16,0 0.42,0.01 0.75,0 0.32,0 0.57,-0.02 0.73,-0.02 1.3,0 2.42,0.11 3.35,0.33 1.15,0.28 2.04,0.81 2.7,1.54 0.84,0.93 1.29,1.94 1.29,3.08 0,2.15 -1.12,4.2 -3.37,6.15l3.1 3.68c1,1.17 1.7,2 2.13,2.44 1.01,1.06 1.85,1.71 2.51,1.95 0.83,0.32 1.64,0.48 2.43,0.48 0.31,0 0.46,0.12 0.46,0.35 0,0.24 -0.3,0.37 -0.88,0.37l-2.01 0c-1.26,0 -2.19,-0.13 -2.8,-0.37zm-9.04 -19.08c-0.81,0 -1.45,0.07 -1.92,0.19 -0.19,0.05 -0.29,0.16 -0.29,0.36l0 8.67c0,0.27 0.23,0.47 0.7,0.59 0.72,0.17 1.53,0.26 2.43,0.26l0.13 0c0.56,0 1.09,-0.06 1.57,-0.21 0.78,-0.24 1.41,-0.87 1.88,-1.85 0.33,-0.71 0.5,-1.58 0.5,-2.6 0,-1.59 -0.41,-2.86 -1.22,-3.82 -0.89,-1.06 -2.14,-1.59 -3.78,-1.59zm20.17 9.25c0,0.02 0.01,0.03 0.03,0.03l0 5.96c0,1.43 0.18,2.27 0.54,2.52 0.37,0.24 1.22,0.37 2.57,0.37l0.65 0c1.49,0 2.41,-0.29 2.77,-0.85 0.16,-0.25 0.33,-0.65 0.43,-1.2 0.07,-0.37 0.2,-0.56 0.42,-0.56 0.25,0 0.38,0.18 0.38,0.53l0 0 0 0.06c0,0.3 -0.08,0.76 -0.2,1.38 -0.01,0.05 -0.02,0.14 -0.03,0.26 0,0.13 0,0.23 0,0.3 -0.08,0.27 -0.13,0.53 -0.21,0.79 -0.09,0.32 -0.27,0.51 -0.49,0.58 -0.22,0.08 -0.61,0.12 -1.19,0.12 -1.54,0 -3.15,-0.03 -4.83,-0.09 -1.68,-0.06 -2.42,-0.08 -2.22,-0.08l-0.11 0c-0.05,0 -0.13,0.02 -0.22,0.02l-0.8 0c-0.19,0 -0.47,0.01 -0.83,0.03 -0.36,0.02 -0.64,0.03 -0.83,0.03 -0.41,0 -0.62,-0.13 -0.62,-0.37 0,-0.23 0.13,-0.35 0.39,-0.35 0.03,0 0.11,0 0.2,0 0.1,0 0.17,0 0.2,0 0.1,-0.01 0.24,-0.04 0.44,-0.09 0.2,-0.04 0.35,-0.16 0.43,-0.36 0.22,-0.56 0.34,-1.66 0.36,-3.28 0.01,-0.99 0.03,-2.12 0.03,-3.4l0 -8.68c0,-0.18 -0.02,-0.46 -0.03,-0.83 -0.02,-0.37 -0.03,-0.65 -0.03,-0.84l0 -0.04c0,-0.4 -0.08,-0.71 -0.23,-0.91 -0.15,-0.2 -0.45,-0.35 -0.88,-0.43 -0.09,-0.02 -0.26,-0.03 -0.49,-0.06 -0.08,-0.01 -0.14,-0.02 -0.19,-0.02l-0.23 0c-0.27,0 -0.4,-0.11 -0.4,-0.33 0,-0.25 0.21,-0.39 0.63,-0.38l0.97 0.02c0.24,0.01 0.61,0.02 1.08,0.03 0.95,0.02 1.34,0.03 1.16,0.03l3.29 0c0.74,0 1.43,0 2.04,0 0.43,0 1.08,-0.02 1.93,-0.08 0.11,-0.01 0.28,-0.09 0.51,-0.09l0.03 0c0.04,-0.04 0.09,-0.07 0.16,-0.09 0.06,-0.03 0.13,-0.04 0.2,-0.04 0.22,0 0.33,0.14 0.33,0.42 0,-0.01 -0.09,0.41 -0.27,1.27l0 -0.02c0,0.23 -0.04,0.68 -0.08,1.35 -0.02,0.19 -0.03,0.33 -0.03,0.42l0 0.06c-0.09,0.25 -0.23,0.36 -0.4,0.36 -0.26,0 -0.4,-0.16 -0.4,-0.5 0,-0.14 0.04,-0.34 -0.05,-0.58l-0.09 -0.23c-0.13,-0.37 -0.43,-0.62 -0.88,-0.72 -0.46,-0.11 -1.04,-0.17 -1.75,-0.19 -1.1,-0.03 -1.92,-0.05 -2.45,-0.05l-0.68 0c0,0.04 0,0.07 0,0.1l0 7.29c0,0.05 0,0.1 0,0.11l2.29 0c1.47,0 2.48,-0.05 3.01,-0.16 0.17,-0.04 0.29,-0.12 0.4,-0.21l0.12 -0.1c0.21,-0.17 0.32,-0.3 0.45,-0.3 0.23,0 0.35,0.13 0.35,0.4 0,0.05 -0.07,0.34 -0.17,0.88 -0.13,0.74 -0.18,1.51 -0.18,2.3l0 0.13c0,0.35 -0.13,0.53 -0.39,0.53 -0.25,0 -0.38,-0.13 -0.38,-0.4 0,-0.34 -0.03,-0.61 -0.11,-0.81 -0.01,-0.04 -0.04,-0.11 -0.09,-0.2 -0.16,-0.35 -0.59,-0.58 -1.25,-0.63 -0.37,-0.04 -1.74,-0.06 -4.08,-0.13z"/>
   <path class="fil5" d="M92.58 96.7c0.22,0 -0.56,-0.02 -2.32,-0.07 -0.26,0 -0.61,-0.03 -1.04,-0.09 -0.1,-0.04 -0.15,-0.11 -0.15,-0.21 0,-0.11 0.05,-0.18 0.17,-0.21 0.01,-0.03 0.02,-0.11 0.03,-0.23l0 -0.14c0,-0.03 -0.01,-0.07 -0.02,-0.12l-0.82 -8.32 -4.47 9.02c-0.07,0.14 -0.15,0.24 -0.21,0.32 -0.02,0 -0.05,0 -0.09,0 -0.03,0.01 -0.05,0.01 -0.07,0.01l-0.07 0c-0.12,-0.03 -0.31,-0.3 -0.58,-0.81 -0.19,-0.36 -0.47,-0.89 -0.84,-1.59 -0.38,-0.7 -0.66,-1.22 -0.84,-1.58l-0.37 -0.7c-0.08,-0.18 -0.22,-0.45 -0.4,-0.81 -0.43,-0.85 -0.92,-1.87 -1.5,-3.07l-0.3 -0.62 -0.68 7.43c0,0.13 0,0.32 0,0.57l0 0.29c0,0.22 0.12,0.36 0.35,0.41 0.28,0.05 0.5,0.07 0.67,0.07 0.16,0 0.24,0.07 0.24,0.2 0,0.17 -0.14,0.25 -0.43,0.25l-0.45 -0.02c-0.12,0 -0.31,0 -0.55,-0.02 -0.5,-0.01 -0.71,-0.01 -0.64,-0.01 -0.08,0 -0.2,0 -0.37,0.01 -0.17,0.02 -0.3,0.02 -0.38,0.02l-0.14 0c-0.1,0.01 -0.21,0.02 -0.3,0.02l-0.28 0c-0.27,0 -0.4,-0.08 -0.4,-0.25 0,-0.13 0.09,-0.2 0.28,-0.2l0.05 0c0.52,0 0.81,-0.14 0.89,-0.43 0.09,-0.26 0.14,-0.53 0.18,-0.82l0 -0.04 0 -0.03 1.26 -10.9c0.07,-0.26 0.17,-0.39 0.3,-0.39 0.11,0 0.2,0.06 0.28,0.17 0.03,0.04 0.06,0.09 0.09,0.16l5.26 10.26 5.05 -10.27c0.11,-0.21 0.23,-0.32 0.37,-0.32 0.18,0 0.28,0.18 0.32,0.53l1.17 10.25c0.08,0.56 0.2,1 0.37,1.32 0.21,0.34 0.75,0.51 1.62,0.51 0.18,0 0.27,0.07 0.27,0.2 0,0.17 -0.17,0.25 -0.51,0.25zm8.48 0.24c-2.12,0 -3.72,-0.57 -4.8,-1.71 -1.4,-1.45 -2.11,-3.1 -2.11,-4.95l0 -0.02c0,-1.93 0.84,-3.65 2.53,-5.15 1.08,-0.98 2.58,-1.47 4.49,-1.47 2.06,0 3.73,0.57 5.02,1.71 1.33,1.16 1.99,2.72 1.99,4.66 0,1.99 -0.66,3.64 -2,4.96 -1.33,1.31 -3.04,1.97 -5.12,1.97zm-0.01 -12.68c-1.68,0 -2.97,0.53 -3.9,1.6 -0.85,0.99 -1.27,2.3 -1.27,3.94l0 0.02c0,1.75 0.46,3.23 1.4,4.43 1.05,1.33 2.47,2 4.25,2 0.27,0 0.59,-0.03 0.96,-0.08 1.19,-0.21 2.2,-0.89 3.05,-2.04 0.61,-0.82 0.91,-2.03 0.91,-3.65 0,-1.69 -0.45,-3.12 -1.35,-4.27 -0.98,-1.3 -2.33,-1.95 -4.05,-1.95zm19.75 12.21l0.04 0.03c-0.62,-0.32 -1.17,-0.78 -1.66,-1.4 -0.3,-0.37 -0.74,-0.91 -1.32,-1.63 -0.23,-0.29 -0.55,-0.72 -0.98,-1.29 -0.25,-0.34 -0.44,-0.58 -0.58,-0.75l-0.04 -0.04c-0.04,-0.01 -0.08,-0.01 -0.1,-0.03l-2.14 -0.03c-0.01,0 -0.02,0.01 -0.02,0.03l0 0.38c0,2.27 -0.01,2.99 -0.03,2.17 0.02,1.06 0.11,1.74 0.25,2.04 0.08,0.14 0.22,0.22 0.44,0.25 0.19,0.04 0.45,0.05 0.78,0.05 0.17,0 0.26,0.08 0.26,0.22 0,0.15 -0.13,0.23 -0.4,0.23l-0.35 0c-0.34,0 -0.69,-0.01 -1.06,-0.04 -0.59,-0.01 -0.9,-0.01 -0.93,-0.01 -0.37,0.02 -0.58,0.03 -0.61,0.03l-0.17 0c-0.13,0.01 -0.26,0.02 -0.37,0.02l-0.32 0c-0.25,0 -0.38,-0.08 -0.38,-0.23 0,-0.14 0.08,-0.22 0.24,-0.22 0.02,0 0.06,0 0.12,0 0.06,0 0.1,0 0.12,0 0.06,-0.01 0.15,-0.03 0.27,-0.06 0.13,-0.02 0.22,-0.1 0.26,-0.23 0.15,-0.35 0.22,-1.04 0.23,-2.06 0.01,-0.62 0.01,-1.33 0.01,-2.14l0 -5.46c0,-0.12 0,-0.29 -0.01,-0.52 -0.01,-0.24 -0.02,-0.42 -0.02,-0.53l0 -0.03c0,-0.25 -0.05,-0.44 -0.14,-0.57 -0.09,-0.13 -0.28,-0.22 -0.54,-0.27 -0.06,-0.01 -0.16,-0.03 -0.3,-0.04 -0.05,-0.01 -0.09,-0.01 -0.12,-0.01l-0.14 0c-0.17,0 -0.25,-0.07 -0.25,-0.21 0,-0.16 0.13,-0.24 0.39,-0.24l0.6 0.01c0.14,0 0.37,0.01 0.66,0.02 0.59,0.01 0.82,0.02 0.72,0.02 0.11,0 0.29,-0.01 0.52,-0.02 0.22,-0.01 0.4,-0.02 0.51,-0.02l0.11 0c0.11,0 0.26,0 0.47,0 0.2,-0.01 0.35,-0.01 0.46,-0.01 0.8,0 1.49,0.07 2.07,0.21 0.72,0.18 1.28,0.5 1.68,0.97 0.53,0.57 0.8,1.22 0.8,1.94 0,1.35 -0.7,2.64 -2.1,3.87l1.93 2.31c0.61,0.75 1.06,1.26 1.33,1.54 0.62,0.67 1.14,1.08 1.55,1.23 0.52,0.2 1.02,0.3 1.51,0.3 0.19,0 0.28,0.08 0.28,0.22 0,0.15 -0.18,0.23 -0.55,0.23l-1.24 0c-0.78,0 -1.36,-0.08 -1.74,-0.23zm-5.61 -12.01c-0.5,0 -0.9,0.04 -1.19,0.12 -0.12,0.02 -0.18,0.1 -0.18,0.23l0 5.45c0,0.17 0.15,0.3 0.44,0.37 0.44,0.11 0.95,0.16 1.51,0.16l0.08 0c0.34,0 0.67,-0.04 0.97,-0.13 0.48,-0.15 0.87,-0.55 1.16,-1.16 0.21,-0.45 0.31,-0.99 0.31,-1.64 0,-1 -0.25,-1.8 -0.75,-2.4 -0.55,-0.67 -1.33,-1 -2.35,-1zm21.15 -0.13l-0.06 0c-0.39,0 -0.65,0.09 -0.77,0.3 -0.07,0.12 -0.12,0.34 -0.16,0.66 -0.01,0.26 -0.02,0.6 -0.02,1.01l0 4.3c0,1.25 -0.15,2.35 -0.45,3.28 -0.29,0.93 -0.88,1.68 -1.78,2.23 -0.9,0.55 -1.93,0.83 -3.11,0.83 -0.21,0 -0.54,-0.03 -0.99,-0.09 -1.11,-0.11 -2.02,-0.48 -2.72,-1.11 -1.03,-0.96 -1.54,-2.45 -1.54,-4.47l0 -4.97c0,-0.12 -0.01,-0.29 -0.02,-0.52 -0.01,-0.24 -0.02,-0.42 -0.02,-0.53l0 -0.03c0,-0.25 -0.04,-0.44 -0.14,-0.57 -0.09,-0.13 -0.27,-0.22 -0.54,-0.27 -0.06,-0.01 -0.16,-0.03 -0.3,-0.04 -0.05,-0.01 -0.09,-0.01 -0.12,-0.01l-0.14 0c-0.17,0 -0.25,-0.07 -0.25,-0.21 0,-0.16 0.13,-0.24 0.39,-0.24l0.6 0.01c0.14,0 0.35,0.01 0.64,0.02 0.61,0.01 0.87,0.02 0.78,0.02 0.09,0 0.23,-0.01 0.43,-0.02 0.19,-0.01 0.34,-0.02 0.43,-0.02l0.13 0c0.09,0 0.21,0 0.37,0 0.17,-0.01 0.29,-0.01 0.37,-0.01 0.27,0 0.4,0.08 0.4,0.24 0,0.14 -0.08,0.21 -0.25,0.21l-0.06 0c-0.41,0 -0.67,0.09 -0.77,0.28 -0.07,0.13 -0.13,0.36 -0.16,0.68 -0.01,0.26 -0.02,0.6 -0.02,1.01l0 4.84c0,1.21 0.13,2.1 0.37,2.69 0.35,0.86 0.85,1.47 1.51,1.82 0.52,0.29 1.18,0.44 1.96,0.44 1.1,0 1.99,-0.38 2.67,-1.15 0.67,-0.76 1.01,-2.1 1.01,-4.03l0 -4.61c0,-0.12 -0.01,-0.29 -0.03,-0.52 -0.01,-0.24 -0.02,-0.42 -0.02,-0.53l0 -0.03c0,-0.25 -0.04,-0.44 -0.13,-0.57 -0.1,-0.13 -0.28,-0.22 -0.55,-0.27 -0.06,-0.01 -0.16,-0.03 -0.29,-0.04 -0.05,-0.01 -0.09,-0.01 -0.13,-0.01l-0.14 0c-0.17,0 -0.25,-0.07 -0.25,-0.21 0,-0.16 0.13,-0.24 0.39,-0.24l0.41 0c0.16,0 0.4,0.01 0.72,0.02 0.33,0.02 0.57,0.03 0.73,0.03 0.08,0 0.21,-0.01 0.38,-0.02 0.16,-0.01 0.3,-0.02 0.4,-0.02l0.17 0c0.09,-0.01 0.18,-0.01 0.28,-0.01l0.25 0c0.26,0 0.4,0.08 0.4,0.24 0,0.14 -0.09,0.21 -0.26,0.21zm19.15 12.37c0.21,0 -0.56,-0.02 -2.33,-0.07 -0.26,0 -0.6,-0.03 -1.03,-0.09 -0.11,-0.04 -0.16,-0.11 -0.16,-0.21 0,-0.11 0.06,-0.18 0.17,-0.21 0.01,-0.03 0.03,-0.11 0.04,-0.23l0 -0.14c0,-0.03 -0.01,-0.07 -0.02,-0.12l-0.82 -8.32 -4.47 9.02c-0.08,0.14 -0.15,0.24 -0.22,0.32 -0.02,0 -0.05,0 -0.08,0 -0.03,0.01 -0.06,0.01 -0.07,0.01l-0.08 0c-0.11,-0.03 -0.31,-0.3 -0.57,-0.81 -0.19,-0.36 -0.47,-0.89 -0.85,-1.59 -0.37,-0.7 -0.65,-1.22 -0.84,-1.58l-0.37 -0.7c-0.08,-0.18 -0.21,-0.45 -0.4,-0.81 -0.42,-0.85 -0.92,-1.87 -1.49,-3.07l-0.3 -0.62 -0.68 7.43c0,0.13 0,0.32 0,0.57l0 0.29c0,0.22 0.11,0.36 0.35,0.41 0.27,0.05 0.5,0.07 0.66,0.07 0.17,0 0.25,0.07 0.25,0.2 0,0.17 -0.14,0.25 -0.43,0.25l-0.45 -0.02c-0.13,0 -0.31,0 -0.56,-0.02 -0.49,-0.01 -0.7,-0.01 -0.63,-0.01 -0.08,0 -0.21,0 -0.38,0.01 -0.17,0.02 -0.3,0.02 -0.37,0.02l-0.14 0c-0.11,0.01 -0.21,0.02 -0.3,0.02l-0.28 0c-0.27,0 -0.41,-0.08 -0.41,-0.25 0,-0.13 0.1,-0.2 0.28,-0.2l0.06 0c0.51,0 0.81,-0.14 0.89,-0.43 0.08,-0.26 0.14,-0.53 0.18,-0.82l0 -0.04 0 -0.03 1.26 -10.9c0.07,-0.26 0.17,-0.39 0.3,-0.39 0.11,0 0.2,0.06 0.28,0.17 0.02,0.04 0.05,0.09 0.08,0.16l5.27 10.26 5.05 -10.27c0.11,-0.21 0.23,-0.32 0.37,-0.32 0.17,0 0.28,0.18 0.31,0.53l1.17 10.25c0.08,0.56 0.2,1 0.37,1.32 0.22,0.34 0.75,0.51 1.62,0.51 0.18,0 0.27,0.07 0.27,0.2 0,0.17 -0.17,0.25 -0.5,0.25zm10.12 -1.05c-0.76,0.73 -1.88,1.11 -3.37,1.11 -0.26,0 -0.92,-0.04 -1.97,-0.11 -0.21,0 -0.33,0 -0.37,0 -0.09,0 -0.23,0 -0.42,0.01 -0.18,0.02 -0.32,0.02 -0.42,0.02l-0.15 0c-0.09,0 -0.21,0 -0.37,0 -0.16,0.01 -0.27,0.02 -0.35,0.02 -0.26,0 -0.39,-0.08 -0.39,-0.23 0,-0.14 0.08,-0.22 0.24,-0.22 0.02,0 0.07,0 0.13,0 0.06,0 0.1,0 0.12,0 0.06,-0.01 0.15,-0.03 0.27,-0.06 0.13,-0.02 0.21,-0.1 0.26,-0.23 0.14,-0.35 0.22,-1.04 0.22,-2.06 0.02,-0.62 0.02,-1.33 0.02,-2.14l0 -5.46c0,-0.12 0,-0.29 -0.02,-0.52 -0.01,-0.24 -0.01,-0.42 -0.01,-0.53l0 -0.03c0,-0.25 -0.05,-0.44 -0.15,-0.57 -0.09,-0.13 -0.27,-0.22 -0.54,-0.27 -0.05,-0.01 -0.16,-0.03 -0.3,-0.04 -0.04,-0.01 -0.08,-0.01 -0.12,-0.01l-0.13 0c-0.17,0 -0.25,-0.07 -0.25,-0.21 0,-0.16 0.13,-0.24 0.38,-0.24l0.6 0.01c0.15,0 0.38,0.01 0.67,0.02 0.58,0.01 0.82,0.02 0.71,0.02 0.21,0 0.53,-0.01 0.96,-0.03 0.43,-0.01 0.75,-0.02 0.96,-0.02 0.98,0 1.73,0.17 2.24,0.5 0.73,0.44 1.17,0.98 1.31,1.62 0.06,0.17 0.08,0.34 0.08,0.49 0,0.6 -0.15,1.14 -0.46,1.63 -0.2,0.32 -0.56,0.77 -1.11,1.33 0.83,0.27 1.57,0.77 2.23,1.53 0.48,0.55 0.72,1.23 0.72,2.04l0 0.08c0,0.91 -0.41,1.76 -1.22,2.55zm-1.55 -8.46c0,-0.68 -0.21,-1.32 -0.63,-1.94 -0.37,-0.57 -0.97,-0.86 -1.81,-0.86 -0.31,0 -0.55,0.02 -0.7,0.07l-0.15 0.03c-0.17,0.03 -0.25,0.1 -0.25,0.22l0 4.47c0,0.12 0.05,0.21 0.16,0.27 0.01,0 0.09,0.01 0.24,0.02 0.15,0.02 0.44,0.03 0.85,0.03 0.89,0 1.44,-0.15 1.64,-0.46 0.44,-0.45 0.65,-1.02 0.65,-1.71l0 -0.14zm-2.93 8.73l0.04 0c0.12,0.07 0.33,0.13 0.63,0.18 0.39,0.05 0.69,0.07 0.93,0.07 0.13,0 0.28,-0.01 0.44,-0.04 0.61,-0.09 1.13,-0.36 1.58,-0.82 0.35,-0.35 0.52,-0.87 0.52,-1.56 0,-0.95 -0.27,-1.78 -0.8,-2.52 -0.48,-0.67 -1.06,-1.08 -1.74,-1.24 -0.43,-0.1 -0.9,-0.16 -1.39,-0.16l-0.66 0c-0.11,0 -0.16,0.06 -0.16,0.16l0 3.76c0,0.88 0.05,1.46 0.14,1.73 0.06,0.16 0.22,0.3 0.47,0.44zm13.14 0.78l-0.35 0c-0.2,0 -0.5,-0.01 -0.91,-0.03 -0.4,-0.01 -0.7,-0.02 -0.9,-0.02 -0.09,0 -0.23,0 -0.42,0.01 -0.19,0.02 -0.33,0.02 -0.42,0.02l-0.16 0c-0.08,0 -0.2,0 -0.37,0 -0.15,0.01 -0.27,0.02 -0.35,0.02 -0.26,0 -0.39,-0.08 -0.39,-0.23 0,-0.14 0.09,-0.22 0.25,-0.22 0.02,0 0.06,0 0.12,0 0.06,0 0.1,0 0.12,0 0.06,-0.01 0.16,-0.03 0.28,-0.06 0.13,-0.02 0.21,-0.1 0.25,-0.23 0.15,-0.35 0.23,-1.04 0.23,-2.06 0.01,-0.62 0.02,-1.33 0.02,-2.14l0 -5.46c0,-0.12 -0.01,-0.29 -0.02,-0.52 -0.01,-0.24 -0.01,-0.42 -0.01,-0.53l0 -0.03c0,-0.47 -0.18,-0.75 -0.53,-0.83 -0.05,-0.01 -0.08,-0.02 -0.11,-0.03 -0.16,-0.02 -0.3,-0.03 -0.4,-0.03 -0.17,0 -0.25,-0.07 -0.25,-0.21 0,-0.16 0.13,-0.24 0.39,-0.24l0.33 0c0.13,0 0.25,0.01 0.39,0.03l0.18 -0.02c0.09,0 0.23,0.01 0.43,0.02 0.2,0.01 0.35,0.02 0.44,0.02 0.09,0 0.23,-0.01 0.42,-0.02 0.19,-0.01 0.33,-0.02 0.42,-0.02l0.16 0c0.08,0 0.2,0 0.37,0 0.15,-0.01 0.27,-0.01 0.35,-0.01 0.27,0 0.41,0.08 0.41,0.24 0,0.14 -0.09,0.21 -0.27,0.21l-0.05 0c-0.4,0 -0.66,0.09 -0.77,0.3 -0.08,0.12 -0.13,0.34 -0.17,0.66 -0.01,0.26 -0.02,0.6 -0.02,1.01l0 5.44c0,2.27 -0.01,2.99 -0.03,2.17 0.02,1.06 0.12,1.74 0.27,2.04 0.07,0.14 0.21,0.22 0.44,0.25 0.18,0.04 0.44,0.05 0.77,0.05 0.17,0 0.26,0.08 0.26,0.22 0,0.15 -0.14,0.23 -0.4,0.23z"/>
   <path class="fil5" d="M74.63 108.36c-0.05,0.38 -0.1,0.67 -0.16,0.88 -0.02,0.1 -0.04,0.16 -0.05,0.19 -0.03,0.08 -0.09,0.12 -0.15,0.14 -0.03,0.02 -0.06,0.03 -0.07,0.04 -0.31,0.11 -0.72,0.17 -1.21,0.19 -0.15,0.01 -0.3,0.02 -0.45,0.02 -1.28,0 -2.29,-0.33 -3.02,-0.99 -0.47,-0.42 -0.79,-0.94 -0.97,-1.58 -0.09,-0.36 -0.14,-0.74 -0.14,-1.14 0,-0.2 0.02,-0.43 0.07,-0.7 0.09,-0.49 0.28,-0.93 0.57,-1.35 0.35,-0.5 0.84,-0.88 1.47,-1.16 0.44,-0.19 1.01,-0.28 1.71,-0.28 0.36,0 0.67,0.01 0.91,0.05 0.39,0.05 0.85,0.12 1.39,0.2 0.08,0.02 0.12,0.07 0.12,0.15 0,-0.05 -0.01,0.05 -0.04,0.31 -0.01,0.09 -0.02,0.21 -0.02,0.37 0,0.07 0,0.13 -0.01,0.2l0 0.32c0,0.03 0,0.07 0,0.12 -0.01,0.05 -0.01,0.09 -0.01,0.12 -0.02,0.16 -0.06,0.24 -0.14,0.24 -0.09,0 -0.13,-0.08 -0.13,-0.24l0 -0.06c0,-0.34 -0.12,-0.61 -0.36,-0.82 -0.38,-0.34 -0.97,-0.51 -1.77,-0.51 -0.52,0 -0.93,0.06 -1.23,0.18 -0.33,0.12 -0.61,0.28 -0.81,0.48 -0.53,0.5 -0.79,1.27 -0.79,2.31 0,0.9 0.31,1.67 0.92,2.3 0.62,0.63 1.38,0.94 2.28,0.94 0.33,0 0.63,-0.02 0.9,-0.08 0.33,-0.07 0.58,-0.24 0.74,-0.5 0.07,-0.1 0.12,-0.24 0.17,-0.41 0.02,-0.07 0.04,-0.12 0.04,-0.16 0.04,-0.13 0.08,-0.19 0.15,-0.19 0.08,0 0.13,0.06 0.13,0.2 0,0.02 -0.02,0.09 -0.04,0.22zm5.15 1.46c-1.09,0 -1.92,-0.31 -2.48,-0.92 -0.72,-0.79 -1.09,-1.69 -1.09,-2.69l0 -0.01c0,-1.04 0.44,-1.98 1.31,-2.79 0.56,-0.53 1.33,-0.79 2.31,-0.79 1.06,0 1.93,0.3 2.59,0.92 0.68,0.63 1.03,1.47 1.03,2.53 0,1.08 -0.35,1.97 -1.04,2.68 -0.68,0.71 -1.56,1.07 -2.63,1.07zm-0.01 -6.87c-0.86,0 -1.53,0.29 -2.01,0.86 -0.44,0.54 -0.66,1.25 -0.66,2.14l0 0.01c0,0.95 0.24,1.75 0.73,2.4 0.54,0.72 1.27,1.08 2.19,1.08 0.14,0 0.3,-0.01 0.49,-0.04 0.62,-0.11 1.14,-0.48 1.57,-1.1 0.32,-0.44 0.47,-1.1 0.47,-1.98 0,-0.92 -0.23,-1.69 -0.69,-2.31 -0.51,-0.71 -1.21,-1.06 -2.09,-1.06zm12.48 0.03c-0.25,0 -0.4,0.08 -0.44,0.21 -0.03,0.12 -0.05,0.31 -0.05,0.57l-0.01 5.29c0,0.31 -0.01,0.5 -0.03,0.56 -0.02,0.1 -0.06,0.15 -0.12,0.15 -0.08,0 -0.31,-0.2 -0.7,-0.6 -0.38,-0.39 -0.96,-0.99 -1.73,-1.78l-0.04 -0.05c-0.14,-0.14 -0.34,-0.35 -0.61,-0.64l-0.02 -0.02c-0.21,-0.2 -0.94,-1.01 -2.21,-2.43l0.1 4.16c0.02,0.36 0.05,0.61 0.11,0.76 0.05,0.17 0.15,0.25 0.3,0.25 0.1,0.02 0.21,0.03 0.34,0.03 0.09,0 0.14,0.05 0.14,0.13 0,0.08 -0.07,0.12 -0.22,0.12 -0.26,0 -0.48,-0.01 -0.65,-0.02 -0.03,0 -0.08,0 -0.16,-0.01 -0.07,0 -0.12,0 -0.15,0 -0.1,0 -0.24,0.01 -0.44,0.02 -0.19,0 -0.33,0.01 -0.43,0.01 -0.14,0 -0.2,-0.04 -0.2,-0.12 0,-0.08 0.04,-0.13 0.13,-0.13 0.09,0 0.18,0 0.25,-0.01 0.1,-0.04 0.17,-0.07 0.2,-0.09 0.03,-0.03 0.06,-0.09 0.08,-0.18 0.03,-0.16 0.05,-0.44 0.05,-0.85l0.01 -5.19c0,-0.17 0.01,-0.29 0.02,-0.36 0.02,-0.1 0.07,-0.14 0.14,-0.14 0.05,0 0.12,0.05 0.21,0.16 0.06,0.05 0.11,0.1 0.15,0.15 0.1,0.11 0.42,0.46 0.97,1.05l1.9 2.05c0.09,0.1 0.23,0.24 0.42,0.44l1.65 1.8 -0.1 -4.44c-0.01,-0.29 -0.04,-0.49 -0.08,-0.6 -0.05,-0.14 -0.17,-0.21 -0.35,-0.22 -0.1,-0.02 -0.2,-0.03 -0.31,-0.03 -0.08,0 -0.12,-0.03 -0.12,-0.11 0,-0.08 0.07,-0.13 0.23,-0.13l0.09 0c0.1,0 0.24,0.01 0.42,0.02 0.19,0.01 0.33,0.01 0.43,0.01 0.08,0 0.21,0 0.39,-0.01 0.17,-0.01 0.29,-0.02 0.38,-0.02 0.15,0 0.22,0.05 0.22,0.13 0,0.08 -0.05,0.11 -0.16,0.11zm8.8 4.68c-0.29,0.63 -0.66,1.1 -1.1,1.42 -0.64,0.46 -1.43,0.69 -2.38,0.69 -0.48,0 -1.07,-0.03 -1.76,-0.1 -0.14,0 -0.22,-0.01 -0.24,-0.01 -0.05,0 -0.12,0.01 -0.22,0.01 -0.09,0.01 -0.17,0.01 -0.21,0.01l-0.09 0c-0.04,0 -0.1,0 -0.18,0 -0.09,0.01 -0.14,0.01 -0.19,0.01 -0.13,0 -0.19,-0.04 -0.19,-0.12 0,-0.08 0.04,-0.13 0.12,-0.13 0.01,0 0.03,0 0.06,0 0.03,0 0.06,0 0.07,0 0.03,0 0.07,-0.01 0.14,-0.02 0.06,-0.02 0.1,-0.06 0.13,-0.13 0.07,-0.19 0.11,-0.56 0.12,-1.12 0,-0.33 0.01,-0.72 0.01,-1.15l0 -2.97c0,-0.06 -0.01,-0.15 -0.01,-0.28 -0.01,-0.13 -0.01,-0.22 -0.01,-0.29l0 -0.01c0,-0.14 -0.03,-0.24 -0.08,-0.31 -0.04,-0.07 -0.14,-0.12 -0.28,-0.15 -0.03,0 -0.08,-0.01 -0.15,-0.02 -0.02,0 -0.05,-0.01 -0.06,-0.01l-0.07 0c-0.09,0 -0.13,-0.03 -0.13,-0.11 0,-0.08 0.07,-0.13 0.2,-0.13l0.31 0.01c0.07,0 0.19,0.01 0.34,0.01 0.3,0.01 0.42,0.01 0.37,0.01 0.12,0 0.31,0 0.56,-0.01 0.25,-0.01 0.44,-0.02 0.57,-0.02l0.27 0c0.25,0 0.53,0.01 0.85,0.03 0.69,0.02 1.31,0.17 1.85,0.44 0.6,0.3 1.07,0.81 1.41,1.52 0.18,0.39 0.27,0.86 0.27,1.4 0,0.57 -0.1,1.08 -0.3,1.53zm-0.53 -1.25c0,-0.78 -0.22,-1.45 -0.65,-2.02 -0.08,-0.1 -0.15,-0.19 -0.23,-0.27 -0.38,-0.41 -0.84,-0.69 -1.38,-0.85 -0.42,-0.13 -0.96,-0.2 -1.61,-0.2 -0.15,0 -0.3,0.02 -0.45,0.04 -0.18,0.03 -0.27,0.11 -0.27,0.25 -0.01,0.16 -0.01,0.34 -0.01,0.54l0 3.78c0,0.21 0.01,0.52 0.04,0.95 0.01,0.14 0.02,0.22 0.02,0.24 0.01,0.09 0.04,0.16 0.08,0.21 0.06,0.1 0.22,0.19 0.47,0.26 0.22,0.06 0.58,0.1 1.07,0.1 0.88,0 1.6,-0.29 2.17,-0.85 0.23,-0.22 0.42,-0.55 0.55,-0.97 0.13,-0.37 0.2,-0.74 0.2,-1.11l0 -0.1zm5.96 3.41c-1.09,0 -1.91,-0.31 -2.47,-0.92 -0.72,-0.79 -1.09,-1.69 -1.09,-2.69l0 -0.01c0,-1.04 0.44,-1.98 1.31,-2.79 0.55,-0.53 1.32,-0.79 2.31,-0.79 1.06,0 1.92,0.3 2.58,0.92 0.69,0.63 1.03,1.47 1.03,2.53 0,1.08 -0.34,1.97 -1.03,2.68 -0.69,0.71 -1.56,1.07 -2.64,1.07zm0 -6.87c-0.87,0 -1.54,0.29 -2.01,0.86 -0.44,0.54 -0.66,1.25 -0.66,2.14l0 0.01c0,0.95 0.24,1.75 0.72,2.4 0.54,0.72 1.28,1.08 2.2,1.08 0.14,0 0.3,-0.01 0.49,-0.04 0.61,-0.11 1.14,-0.48 1.57,-1.1 0.31,-0.44 0.47,-1.1 0.47,-1.98 0,-0.92 -0.23,-1.69 -0.7,-2.31 -0.5,-0.71 -1.2,-1.06 -2.08,-1.06zm14.01 6.74c0.11,0 -0.29,-0.01 -1.2,-0.03 -0.13,0 -0.31,-0.02 -0.53,-0.06 -0.06,-0.02 -0.09,-0.05 -0.09,-0.11 0,-0.06 0.03,-0.1 0.09,-0.11 0.01,-0.02 0.01,-0.06 0.02,-0.13l0 -0.07c0,-0.02 0,-0.04 -0.01,-0.07l-0.42 -4.51 -2.31 4.89c-0.04,0.08 -0.07,0.13 -0.11,0.17 -0.01,0 -0.02,0 -0.04,0 -0.02,0.01 -0.03,0.01 -0.04,0.01l-0.03 0c-0.07,-0.01 -0.16,-0.16 -0.3,-0.44 -0.1,-0.19 -0.24,-0.48 -0.43,-0.86 -0.2,-0.38 -0.34,-0.66 -0.44,-0.86l-0.19 -0.38c-0.04,-0.09 -0.11,-0.24 -0.21,-0.44 -0.22,-0.46 -0.47,-1.01 -0.76,-1.66l-0.16 -0.34 -0.35 4.03c0,0.07 0,0.17 0,0.31l0 0.16c0,0.12 0.06,0.19 0.18,0.22 0.14,0.02 0.26,0.03 0.34,0.03 0.09,0 0.13,0.04 0.13,0.12 0,0.08 -0.07,0.13 -0.22,0.13l-0.23 -0.01c-0.07,0 -0.17,0 -0.29,-0.01 -0.26,0 -0.36,-0.01 -0.33,-0.01 -0.04,0 -0.1,0.01 -0.19,0.01 -0.09,0.01 -0.16,0.01 -0.2,0.01l-0.07 0c-0.05,0.01 -0.1,0.01 -0.15,0.01l-0.15 0c-0.14,0 -0.2,-0.05 -0.2,-0.13 0,-0.08 0.05,-0.12 0.14,-0.12l0.03 0c0.26,0 0.41,-0.07 0.46,-0.23 0.04,-0.14 0.07,-0.28 0.09,-0.44l0 -0.02 0 -0.02 0.65 -5.91c0.04,-0.14 0.09,-0.2 0.15,-0.2 0.06,0 0.11,0.03 0.15,0.08 0.01,0.02 0.02,0.06 0.04,0.1l2.72 5.55 2.6 -5.56c0.05,-0.12 0.11,-0.17 0.19,-0.17 0.09,0 0.14,0.09 0.16,0.28l0.6 5.55c0.04,0.31 0.11,0.55 0.19,0.72 0.11,0.18 0.39,0.27 0.84,0.27 0.09,0 0.13,0.04 0.13,0.12 0,0.08 -0.08,0.13 -0.25,0.13zm3.83 0l-0.18 0c-0.11,0 -0.26,-0.01 -0.47,-0.01 -0.21,-0.01 -0.36,-0.02 -0.47,-0.02 -0.04,0 -0.12,0.01 -0.21,0.01 -0.1,0.01 -0.17,0.01 -0.22,0.01l-0.08 0c-0.04,0 -0.11,0 -0.19,0 -0.08,0.01 -0.14,0.01 -0.18,0.01 -0.14,0 -0.2,-0.04 -0.2,-0.12 0,-0.08 0.04,-0.13 0.13,-0.13 0.01,0 0.03,0 0.06,0 0.03,0 0.05,0 0.06,0 0.03,0 0.08,-0.01 0.14,-0.02 0.07,-0.02 0.11,-0.06 0.13,-0.13 0.08,-0.19 0.12,-0.56 0.12,-1.12 0.01,-0.33 0.01,-0.72 0.01,-1.15l0 -2.97c0,-0.06 0,-0.15 -0.01,-0.28 0,-0.13 -0.01,-0.22 -0.01,-0.29l0 -0.01c0,-0.26 -0.09,-0.41 -0.27,-0.45 -0.02,-0.01 -0.04,-0.01 -0.05,-0.02 -0.09,-0.01 -0.16,-0.02 -0.21,-0.02 -0.09,0 -0.13,-0.03 -0.13,-0.11 0,-0.08 0.07,-0.13 0.2,-0.13l0.17 0c0.07,0 0.13,0.01 0.2,0.02l0.09 -0.01c0.05,0 0.13,0.01 0.23,0.01 0.1,0.01 0.18,0.01 0.22,0.01 0.05,0 0.12,0 0.22,-0.01 0.1,0 0.17,-0.01 0.21,-0.01l0.09 0c0.04,0 0.1,0 0.19,0 0.08,-0.01 0.14,-0.01 0.18,-0.01 0.14,0 0.21,0.05 0.21,0.13 0,0.08 -0.05,0.11 -0.14,0.11l-0.02 0c-0.21,0 -0.34,0.06 -0.4,0.17 -0.04,0.06 -0.07,0.18 -0.09,0.36 0,0.14 0,0.32 0,0.54l0 2.96c0,1.22 -0.01,1.61 -0.02,1.17 0.01,0.57 0.06,0.94 0.13,1.1 0.04,0.08 0.11,0.12 0.23,0.14 0.1,0.02 0.23,0.02 0.4,0.02 0.09,0 0.13,0.05 0.13,0.13 0,0.08 -0.07,0.12 -0.2,0.12zm9.16 -6.71c-0.25,0 -0.39,0.08 -0.44,0.21 -0.03,0.12 -0.04,0.31 -0.04,0.57l-0.02 5.29c0,0.31 -0.01,0.5 -0.03,0.56 -0.02,0.1 -0.06,0.15 -0.12,0.15 -0.07,0 -0.31,-0.2 -0.69,-0.6 -0.39,-0.39 -0.97,-0.99 -1.74,-1.78l-0.04 -0.05c-0.13,-0.14 -0.34,-0.35 -0.6,-0.64l-0.03 -0.02c-0.2,-0.2 -0.94,-1.01 -2.21,-2.43l0.11 4.16c0.01,0.36 0.04,0.61 0.1,0.76 0.05,0.17 0.15,0.25 0.3,0.25 0.1,0.02 0.21,0.03 0.35,0.03 0.09,0 0.14,0.05 0.14,0.13 0,0.08 -0.08,0.12 -0.23,0.12 -0.26,0 -0.47,-0.01 -0.65,-0.02 -0.02,0 -0.08,0 -0.16,-0.01 -0.06,0 -0.11,0 -0.15,0 -0.1,0 -0.24,0.01 -0.43,0.02 -0.2,0 -0.34,0.01 -0.44,0.01 -0.13,0 -0.2,-0.04 -0.2,-0.12 0,-0.08 0.05,-0.13 0.14,-0.13 0.09,0 0.17,0 0.24,-0.01 0.11,-0.04 0.17,-0.07 0.21,-0.09 0.03,-0.03 0.06,-0.09 0.08,-0.18 0.02,-0.16 0.04,-0.44 0.05,-0.85l0.01 -5.19c0,-0.17 0,-0.29 0.01,-0.36 0.03,-0.1 0.08,-0.14 0.14,-0.14 0.06,0 0.13,0.05 0.22,0.16 0.05,0.05 0.1,0.1 0.14,0.15 0.1,0.11 0.43,0.46 0.97,1.05l1.91 2.05c0.09,0.1 0.23,0.24 0.41,0.44l1.65 1.8 -0.09 -4.44c-0.02,-0.29 -0.04,-0.49 -0.08,-0.6 -0.06,-0.14 -0.18,-0.21 -0.36,-0.22 -0.09,-0.02 -0.2,-0.03 -0.31,-0.03 -0.08,0 -0.12,-0.03 -0.12,-0.11 0,-0.08 0.08,-0.13 0.23,-0.13l0.09 0c0.1,0 0.24,0.01 0.43,0.02 0.18,0.01 0.33,0.01 0.42,0.01 0.09,0 0.22,0 0.39,-0.01 0.17,-0.01 0.3,-0.02 0.38,-0.02 0.15,0 0.23,0.05 0.23,0.13 0,0.08 -0.06,0.11 -0.17,0.11zm4.43 6.71l-0.18 0c-0.1,0 -0.26,-0.01 -0.46,-0.01 -0.21,-0.01 -0.36,-0.02 -0.47,-0.02 -0.05,0 -0.12,0.01 -0.21,0.01 -0.1,0.01 -0.17,0.01 -0.22,0.01l-0.08 0c-0.05,0 -0.11,0 -0.2,0 -0.07,0.01 -0.13,0.01 -0.18,0.01 -0.13,0 -0.2,-0.04 -0.2,-0.12 0,-0.08 0.05,-0.13 0.13,-0.13 0.01,0 0.04,0 0.07,0 0.02,0 0.04,0 0.06,0 0.03,0 0.08,-0.01 0.14,-0.02 0.06,-0.02 0.11,-0.06 0.13,-0.13 0.07,-0.19 0.11,-0.56 0.12,-1.12 0,-0.33 0.01,-0.72 0.01,-1.15l0 -2.97c0,-0.06 -0.01,-0.15 -0.01,-0.28 -0.01,-0.13 -0.01,-0.22 -0.01,-0.29l0 -0.01c0,-0.26 -0.09,-0.41 -0.27,-0.45 -0.03,-0.01 -0.04,-0.01 -0.06,-0.02 -0.08,-0.01 -0.15,-0.02 -0.2,-0.02 -0.09,0 -0.13,-0.03 -0.13,-0.11 0,-0.08 0.07,-0.13 0.2,-0.13l0.17 0c0.06,0 0.13,0.01 0.2,0.02l0.09 -0.01c0.05,0 0.12,0.01 0.23,0.01 0.1,0.01 0.17,0.01 0.22,0.01 0.05,0 0.12,0 0.22,-0.01 0.09,0 0.17,-0.01 0.21,-0.01l0.09 0c0.04,0 0.1,0 0.19,0 0.07,-0.01 0.13,-0.01 0.18,-0.01 0.14,0 0.2,0.05 0.2,0.13 0,0.08 -0.04,0.11 -0.13,0.11l-0.03 0c-0.2,0 -0.34,0.06 -0.4,0.17 -0.03,0.06 -0.06,0.18 -0.08,0.36 0,0.14 -0.01,0.32 -0.01,0.54l0 2.96c0,1.22 0,1.61 -0.01,1.17 0.01,0.57 0.05,0.94 0.13,1.1 0.04,0.08 0.11,0.12 0.23,0.14 0.09,0.02 0.23,0.02 0.39,0.02 0.09,0 0.14,0.05 0.14,0.13 0,0.08 -0.07,0.12 -0.21,0.12zm5.49 0.13c-1.09,0 -1.91,-0.31 -2.47,-0.92 -0.72,-0.79 -1.09,-1.69 -1.09,-2.69l0 -0.01c0,-1.04 0.44,-1.98 1.31,-2.79 0.55,-0.53 1.32,-0.79 2.31,-0.79 1.06,0 1.92,0.3 2.58,0.92 0.69,0.63 1.03,1.47 1.03,2.53 0,1.08 -0.34,1.97 -1.03,2.68 -0.69,0.71 -1.56,1.07 -2.64,1.07zm0 -6.87c-0.87,0 -1.53,0.29 -2.01,0.86 -0.44,0.54 -0.66,1.25 -0.66,2.14l0 0.01c0,0.95 0.24,1.75 0.72,2.4 0.54,0.72 1.28,1.08 2.2,1.08 0.14,0 0.3,-0.01 0.49,-0.04 0.61,-0.11 1.14,-0.48 1.57,-1.1 0.31,-0.44 0.47,-1.1 0.47,-1.98 0,-0.92 -0.23,-1.69 -0.7,-2.31 -0.5,-0.71 -1.2,-1.06 -2.08,-1.06z"/>
   <path class="fil5" d="M157.65 108.36c-0.05,0.38 -0.1,0.67 -0.16,0.88 -0.02,0.1 -0.04,0.16 -0.05,0.19 -0.03,0.08 -0.09,0.12 -0.15,0.14 -0.03,0.02 -0.06,0.03 -0.07,0.04 -0.31,0.11 -0.71,0.17 -1.21,0.19 -0.15,0.01 -0.3,0.02 -0.45,0.02 -1.28,0 -2.29,-0.33 -3.02,-0.99 -0.47,-0.42 -0.8,-0.94 -0.97,-1.58 -0.09,-0.36 -0.14,-0.74 -0.14,-1.14 0,-0.2 0.02,-0.43 0.07,-0.7 0.09,-0.49 0.28,-0.93 0.57,-1.35 0.35,-0.5 0.84,-0.88 1.47,-1.16 0.44,-0.19 1.01,-0.28 1.71,-0.28 0.36,0 0.67,0.01 0.91,0.05 0.39,0.05 0.85,0.12 1.39,0.2 0.08,0.02 0.12,0.07 0.12,0.15 0,-0.05 -0.01,0.05 -0.04,0.31 -0.01,0.09 -0.02,0.21 -0.02,0.37 0,0.07 0,0.13 -0.01,0.2l0 0.32c0,0.03 0,0.07 0,0.12 -0.01,0.05 -0.01,0.09 -0.01,0.12 -0.02,0.16 -0.06,0.24 -0.14,0.24 -0.09,0 -0.13,-0.08 -0.13,-0.24l0 -0.06c0,-0.34 -0.12,-0.61 -0.36,-0.82 -0.38,-0.34 -0.97,-0.51 -1.77,-0.51 -0.52,0 -0.93,0.06 -1.23,0.18 -0.33,0.12 -0.61,0.28 -0.81,0.48 -0.53,0.5 -0.79,1.27 -0.79,2.31 0,0.9 0.31,1.67 0.92,2.3 0.62,0.63 1.38,0.94 2.28,0.94 0.33,0 0.63,-0.02 0.9,-0.08 0.33,-0.07 0.58,-0.24 0.74,-0.5 0.07,-0.1 0.12,-0.24 0.17,-0.41 0.02,-0.07 0.04,-0.12 0.04,-0.16 0.04,-0.13 0.08,-0.19 0.15,-0.19 0.08,0 0.13,0.06 0.13,0.2 0,0.02 -0.02,0.09 -0.04,0.22zm5.9 1.07c0,0.03 0,0.05 -0.02,0.06 -0.03,0.1 -0.09,0.17 -0.16,0.19 -0.07,0.03 -0.22,0.04 -0.44,0.04 -0.28,0 -0.68,-0.01 -1.21,-0.03 -0.54,-0.02 -0.94,-0.03 -1.22,-0.03l-0.04 0c-0.02,0 -0.04,0.01 -0.08,0.01l-0.3 0c-0.02,0 -0.04,0 -0.06,0.01 -0.05,0 -0.12,0 -0.2,0 -0.09,0.01 -0.16,0.01 -0.2,0.01 -0.13,0 -0.2,-0.04 -0.2,-0.12 0,-0.08 0.04,-0.13 0.12,-0.13 0.02,0 0.04,0 0.07,0 0.03,0 0.05,0 0.06,0 0.03,0 0.08,-0.01 0.14,-0.02 0.06,-0.02 0.11,-0.06 0.14,-0.13 0.07,-0.19 0.1,-0.56 0.11,-1.12 0,-0.33 0.01,-0.72 0.01,-1.15l0 -2.97c0,-0.06 -0.01,-0.15 -0.01,-0.28 -0.01,-0.13 -0.01,-0.22 -0.01,-0.29l0 -0.01c0,-0.14 -0.02,-0.24 -0.07,-0.31 -0.05,-0.07 -0.14,-0.12 -0.28,-0.15 -0.03,0 -0.08,-0.01 -0.16,-0.02 -0.02,0 -0.04,-0.01 -0.06,-0.01l-0.07 0c-0.08,0 -0.13,-0.03 -0.13,-0.11 0,-0.08 0.07,-0.13 0.2,-0.13l0.31 0.01c0.08,0 0.19,0.01 0.34,0.01 0.3,0.01 0.43,0.01 0.37,0.01 0.06,0 0.14,0 0.24,-0.01 0.1,0 0.18,-0.01 0.24,-0.01l0.06 0c0.05,0 0.13,0 0.22,0 0.1,-0.01 0.17,-0.01 0.22,-0.01 0.14,0 0.21,0.05 0.21,0.13 0,0.08 -0.05,0.11 -0.14,0.11 -0.03,0 -0.08,0.01 -0.15,0.02 -0.06,0.01 -0.1,0.01 -0.14,0.01 -0.11,0.03 -0.19,0.07 -0.22,0.14 -0.04,0.06 -0.06,0.18 -0.08,0.36 -0.01,0.14 -0.01,0.32 -0.01,0.54l0 2.97c0,1.24 0.06,1.92 0.18,2.04 0.12,0.13 0.47,0.19 1.04,0.19 0.24,0 0.45,-0.01 0.64,-0.03 0.34,-0.04 0.55,-0.29 0.63,-0.73 0.02,-0.11 0.07,-0.17 0.14,-0.17 0.07,0 0.11,0.06 0.11,0.2 0,0.24 -0.05,0.54 -0.14,0.91zm7.65 -6.45l-0.02 0c-0.21,0 -0.34,0.06 -0.4,0.17 -0.04,0.06 -0.07,0.18 -0.08,0.36 -0.01,0.14 -0.01,0.32 -0.01,0.54l0 2.33c0,0.68 -0.08,1.28 -0.23,1.78 -0.16,0.51 -0.46,0.91 -0.93,1.21 -0.46,0.3 -0.99,0.45 -1.6,0.45 -0.11,0 -0.28,-0.02 -0.5,-0.05 -0.58,-0.06 -1.05,-0.26 -1.41,-0.6 -0.53,-0.52 -0.79,-1.33 -0.79,-2.42l0 -2.7c0,-0.06 -0.01,-0.15 -0.01,-0.28 -0.01,-0.13 -0.01,-0.22 -0.01,-0.29l0 -0.01c0,-0.14 -0.03,-0.24 -0.07,-0.31 -0.05,-0.07 -0.15,-0.12 -0.28,-0.15 -0.03,0 -0.09,-0.01 -0.16,-0.02 -0.02,0 -0.04,-0.01 -0.06,-0.01l-0.07 0c-0.09,0 -0.13,-0.03 -0.13,-0.11 0,-0.08 0.07,-0.13 0.2,-0.13l0.31 0.01c0.07,0 0.18,0.01 0.33,0.01 0.31,0.01 0.45,0.01 0.4,0.01 0.05,0 0.12,0 0.22,-0.01 0.1,0 0.18,-0.01 0.22,-0.01l0.07 0c0.05,0 0.11,0 0.19,0 0.09,-0.01 0.15,-0.01 0.19,-0.01 0.14,0 0.21,0.05 0.21,0.13 0,0.08 -0.04,0.11 -0.13,0.11l-0.03 0c-0.21,0 -0.35,0.06 -0.4,0.16 -0.04,0.07 -0.06,0.19 -0.08,0.37 -0.01,0.14 -0.01,0.32 -0.01,0.54l0 2.63c0,0.65 0.06,1.14 0.19,1.46 0.18,0.46 0.44,0.79 0.78,0.98 0.27,0.16 0.61,0.24 1.01,0.24 0.56,0 1.02,-0.21 1.37,-0.62 0.35,-0.41 0.52,-1.14 0.52,-2.19l0 -2.5c0,-0.06 0,-0.15 -0.01,-0.28 -0.01,-0.13 -0.01,-0.22 -0.01,-0.29l0 -0.01c0,-0.14 -0.02,-0.24 -0.07,-0.31 -0.05,-0.07 -0.14,-0.12 -0.28,-0.15 -0.03,0 -0.08,-0.01 -0.15,-0.02 -0.03,0 -0.05,-0.01 -0.07,-0.01l-0.07 0c-0.09,0 -0.13,-0.03 -0.13,-0.11 0,-0.08 0.07,-0.13 0.2,-0.13l0.21 0c0.08,0 0.21,0.01 0.38,0.02 0.16,0.01 0.29,0.01 0.37,0.01 0.04,0 0.11,0 0.19,-0.01 0.09,0 0.16,-0.01 0.21,-0.01l0.09 0c0.04,-0.01 0.09,-0.01 0.14,-0.01l0.13 0c0.14,0 0.21,0.05 0.21,0.13 0,0.08 -0.05,0.11 -0.14,0.11zm5.75 6.14c-0.39,0.4 -0.97,0.6 -1.73,0.6 -0.13,0 -0.47,-0.02 -1.02,-0.06 -0.1,0 -0.16,0 -0.19,0 -0.04,0 -0.11,0.01 -0.21,0.01 -0.09,0.01 -0.17,0.01 -0.22,0.01l-0.08 0c-0.04,0 -0.11,0 -0.19,0 -0.08,0.01 -0.14,0.01 -0.18,0.01 -0.13,0 -0.2,-0.04 -0.2,-0.12 0,-0.08 0.05,-0.13 0.13,-0.13 0.01,0 0.03,0 0.06,0 0.03,0 0.05,0 0.07,0 0.03,0 0.07,-0.01 0.13,-0.02 0.07,-0.02 0.11,-0.06 0.14,-0.13 0.07,-0.19 0.11,-0.56 0.11,-1.12 0.01,-0.33 0.01,-0.72 0.01,-1.15l0 -2.97c0,-0.06 0,-0.15 -0.01,-0.28 0,-0.13 -0.01,-0.22 -0.01,-0.29l0 -0.01c0,-0.14 -0.02,-0.24 -0.07,-0.31 -0.05,-0.07 -0.14,-0.12 -0.28,-0.15 -0.03,0 -0.08,-0.01 -0.15,-0.02 -0.03,0 -0.05,-0.01 -0.06,-0.01l-0.07 0c-0.09,0 -0.13,-0.03 -0.13,-0.11 0,-0.08 0.06,-0.13 0.2,-0.13l0.31 0.01c0.07,0 0.19,0.01 0.34,0.01 0.3,0.01 0.42,0.01 0.36,0.01 0.12,0 0.28,0 0.5,-0.01 0.22,-0.01 0.39,-0.02 0.49,-0.02 0.51,0 0.9,0.09 1.16,0.27 0.37,0.24 0.6,0.54 0.68,0.88 0.02,0.09 0.04,0.18 0.04,0.27 0,0.32 -0.08,0.61 -0.24,0.88 -0.1,0.18 -0.29,0.42 -0.57,0.72 0.42,0.15 0.8,0.42 1.15,0.83 0.24,0.3 0.37,0.67 0.37,1.1l0 0.05c0,0.49 -0.22,0.95 -0.64,1.38zm-0.79 -4.58c0,-0.37 -0.11,-0.72 -0.33,-1.06 -0.19,-0.3 -0.5,-0.46 -0.93,-0.46 -0.16,0 -0.28,0.01 -0.36,0.04l-0.08 0.01c-0.08,0.02 -0.13,0.06 -0.13,0.12l0 2.42c0,0.07 0.03,0.12 0.09,0.15 0,0 0.04,0.01 0.12,0.02 0.08,0 0.22,0.01 0.44,0.01 0.46,0 0.74,-0.08 0.85,-0.25 0.22,-0.25 0.33,-0.55 0.33,-0.92l0 -0.08zm-1.51 4.73l0.02 0c0.06,0.04 0.17,0.07 0.33,0.1 0.19,0.02 0.35,0.03 0.47,0.03 0.07,0 0.15,0 0.23,-0.02 0.31,-0.05 0.58,-0.19 0.82,-0.44 0.17,-0.19 0.26,-0.48 0.26,-0.85 0,-0.51 -0.14,-0.96 -0.41,-1.36 -0.25,-0.36 -0.55,-0.59 -0.9,-0.67 -0.22,-0.06 -0.46,-0.09 -0.71,-0.09l-0.34 0c-0.06,0 -0.09,0.03 -0.09,0.09l0 2.03c0,0.48 0.03,0.79 0.08,0.94 0.03,0.09 0.11,0.16 0.24,0.24zm6.34 -3.06c0,0.01 0,0.01 0.01,0.01l0 2.03c0,0.49 0.05,0.78 0.17,0.86 0.11,0.09 0.38,0.13 0.81,0.13l0.21 0c0.47,0 0.76,-0.1 0.88,-0.29 0.05,-0.08 0.1,-0.22 0.13,-0.41 0.02,-0.12 0.07,-0.19 0.14,-0.19 0.08,0 0.12,0.06 0.12,0.18l0 0 0 0.02c0,0.1 -0.03,0.26 -0.07,0.47 0,0.02 0,0.05 0,0.09 0,0.04 0,0.08 0,0.1 -0.03,0.1 -0.05,0.18 -0.07,0.27 -0.04,0.11 -0.09,0.18 -0.16,0.2 -0.07,0.03 -0.19,0.04 -0.38,0.04 -0.48,0 -0.99,-0.01 -1.53,-0.03 -0.53,-0.02 -0.76,-0.03 -0.7,-0.03l-0.03 0c-0.02,0 -0.04,0.01 -0.07,0.01l-0.26 0c-0.06,0 -0.15,0 -0.26,0.01 -0.11,0.01 -0.2,0.01 -0.26,0.01 -0.13,0 -0.2,-0.04 -0.2,-0.12 0,-0.08 0.04,-0.13 0.12,-0.13 0.01,0 0.04,0 0.07,0 0.03,0 0.05,0 0.06,0 0.03,0 0.08,-0.01 0.14,-0.02 0.06,-0.02 0.11,-0.06 0.14,-0.13 0.07,-0.19 0.1,-0.56 0.11,-1.12 0,-0.33 0.01,-0.72 0.01,-1.15l0 -2.97c0,-0.06 -0.01,-0.15 -0.01,-0.28 -0.01,-0.13 -0.01,-0.22 -0.01,-0.29l0 -0.01c0,-0.14 -0.02,-0.24 -0.07,-0.31 -0.05,-0.07 -0.14,-0.12 -0.28,-0.15 -0.03,0 -0.08,-0.01 -0.16,-0.02 -0.02,0 -0.04,-0.01 -0.06,-0.01l-0.07 0c-0.08,0 -0.13,-0.03 -0.13,-0.11 0,-0.08 0.07,-0.13 0.2,-0.13l0.31 0.01c0.08,0 0.19,0.01 0.34,0.01 0.3,0.01 0.43,0.01 0.37,0.01l1.04 0c0.24,0 0.46,0 0.65,0 0.14,0 0.34,-0.01 0.61,-0.03 0.04,0 0.09,-0.01 0.16,-0.03l0.01 0c0.01,-0.01 0.03,-0.02 0.05,-0.03 0.02,-0.01 0.05,-0.01 0.07,-0.01 0.06,0 0.1,0.05 0.1,0.14 0,0 -0.03,0.14 -0.08,0.44l0 -0.01c0,0.08 -0.01,0.23 -0.03,0.46 0,0.07 0,0.11 -0.01,0.14l0 0.02c-0.03,0.09 -0.07,0.13 -0.13,0.13 -0.08,0 -0.12,-0.06 -0.12,-0.18 0,-0.04 -0.01,-0.11 -0.02,-0.2l-0.03 -0.07c-0.04,-0.13 -0.13,-0.21 -0.28,-0.25 -0.14,-0.03 -0.33,-0.06 -0.55,-0.06 -0.35,-0.01 -0.61,-0.02 -0.78,-0.02l-0.21 0c0,0.01 0,0.02 0,0.04l0 2.48c0,0.02 0,0.04 0,0.04l0.72 0c0.47,0 0.79,-0.02 0.96,-0.06 0.05,-0.01 0.09,-0.03 0.12,-0.07l0.04 -0.03c0.05,-0.07 0.1,-0.1 0.14,-0.1 0.08,0 0.11,0.04 0.11,0.13 0,0.02 -0.02,0.12 -0.05,0.3 -0.04,0.26 -0.06,0.52 -0.06,0.79l0 0.04c0,0.12 -0.04,0.18 -0.12,0.18 -0.08,0 -0.12,-0.04 -0.12,-0.13 0,-0.12 -0.01,-0.21 -0.03,-0.28 -0.01,-0.01 -0.02,-0.04 -0.03,-0.07 -0.06,-0.12 -0.19,-0.19 -0.4,-0.21 -0.12,-0.01 -0.55,-0.02 -1.29,-0.05z"/>
  </g>
 </g>
</svg>
