<?xml version="1.0" encoding="UTF-8"?>
<!DOCTYPE svg PUBLIC "-//W3C//DTD SVG 1.1//EN" "http://www.w3.org/Graphics/SVG/1.1/DTD/svg11.dtd">
<!-- Creator: CorelDRAW 2018 (64 Bit Versão de avaliação) -->
<svg xmlns="http://www.w3.org/2000/svg" xml:space="preserve" width="250px" height="200px" version="1.1" style="shape-rendering:geometricPrecision; text-rendering:geometricPrecision; image-rendering:optimizeQuality; fill-rule:evenodd; clip-rule:evenodd"
viewBox="0 0 250 200"
 xmlns:xlink="http://www.w3.org/1999/xlink">
 <defs>
  <style type="text/css">
   <![CDATA[
    .fil0 {fill:none}
    .fil2 {fill:#1F380E}
    .fil3 {fill:#801113}
    .fil1 {fill:url(#id0)}
   ]]>
  </style>
  <radialGradient id="id0" gradientUnits="userSpaceOnUse" gradientTransform="matrix(0.999998 -0 -0 0.999998 0 0)" cx="125" cy="100" r="222.5" fx="125" fy="100">
   <stop offset="0" style="stop-opacity:1; stop-color:#FCD546"/>
   <stop offset="0.658824" style="stop-opacity:1; stop-color:#F3BA3D"/>
   <stop offset="1" style="stop-opacity:1; stop-color:#EBA035"/>
  </radialGradient>
 </defs>
 <g id="Camada_x0020_1">
  <metadata id="CorelCorpID_0Corel-Layer"/>
  <rect class="fil0" width="250" height="200"/>
  <g id="_3096381160112">
   <circle class="fil1" cx="125" cy="100" r="90"/>
   <path class="fil2" d="M108.52 41.78c0.9,1.44 0.75,1.54 2.04,3.3 1.03,1.4 3.75,4.43 5.14,5.81 0.69,0.68 2.31,1.67 2.44,2.99l-3.74 -2.09c-3.56,-2.07 -8.81,-5.15 -13.17,-4.77 -3.56,0.31 -6.22,1.8 -6.68,5.2 -0.64,4.67 2.17,5.65 2.71,9.05 0.56,3.52 -1.42,7.15 -0.38,10.63 0.88,3 3.84,4.45 7.73,4 4.17,-0.48 6.37,-2.9 8.58,-4.75l2.33 -2.16c0.49,-0.5 2.64,-2.48 3.22,-2.73 -0.95,1.89 -3.77,4.99 -5.45,6.38 -5.41,4.47 -10.55,9.14 -17.14,12.03 -2.09,0.91 -5.1,2.41 -7.39,2.87 -1.37,0.27 -1.6,0.02 -2.89,0.6 0.51,2.66 0.45,4.66 2.51,4.2 1.56,-0.35 3.42,-1.59 4.51,-2.37 2.68,-1.9 5.49,-3.71 8.15,-5.59 1.38,-0.97 2.64,-1.94 3.95,-2.92l4.66 -3.9c0.32,-0.29 0.53,-0.56 0.84,-0.85 1.66,-1.52 2.01,-2.08 3.25,-3.62 0.33,-0.41 1.26,-1.42 1.98,-1.43 0.04,1.47 -0.8,2.08 -1.5,3.8 -1.65,4.08 -2.08,9.73 1.53,12.31 2.87,2.05 5.43,1.19 8.26,-0.23 3.59,-1.81 4.44,-1.91 8.75,-1.06 3.79,0.75 6.42,0.53 8.1,-2 1.76,-2.63 1.42,-5.77 0.15,-8.62 -0.58,-1.3 -1.3,-2.4 -2,-3.38 -0.75,-1.06 -2.84,-3.45 -3.77,-4.4 -0.23,-0.25 -0.49,-0.42 -0.73,-0.66 -0.26,-0.24 -0.41,-0.48 -0.66,-0.73 -0.65,-0.67 -2.27,-1.71 -2.48,-3.01 0.54,0.16 1.73,0.84 2.25,1.15l6.55 3.7c3.22,1.71 6.78,2.93 10.78,1.35 3.25,-1.29 5.31,-4.58 3.42,-8.78 -2.1,-4.68 -3.08,-4.53 -1.59,-10.45 0.5,-3.55 0.15,-6.35 -2.19,-7.88 -2.3,-1.51 -5.85,-1.63 -8.58,-0.45 -1.75,0.75 -3.31,2 -4.69,3.17 -1.55,1.31 -2.68,2.49 -4.07,3.9 -0.9,0.89 -1.6,1.6 -2.91,2.28 0.29,-1.7 4.73,-7.79 6.04,-12.58 0.7,-2.54 0.15,-5.81 -0.94,-7.84 -0.52,-0.96 -1.38,-1.71 -2.44,-2.25 -3.6,-1.83 -7.36,1.64 -10.69,2.38 -2.74,0.61 -5.46,-0.9 -8.24,-0.84 -2.8,0.06 -5.11,1.5 -5.96,3.37 -0.5,1.12 -0.74,2.7 -0.62,4.07 0.14,1.69 0.62,2.44 1.03,3.8z"/>
   <path class="fil2" d="M76.7 143.94c-4.24,0.66 -3.29,7.12 1.12,6.43 1.58,-0.25 2.93,-1.78 2.64,-3.72 -0.23,-1.65 -1.8,-3.02 -3.76,-2.71zm10.57 0.01c-4.21,0.76 -3.16,7.15 1.2,6.42 4.15,-0.7 3.16,-7.21 -1.2,-6.42zm-13.3 -27.85l-0.04 14.13 1.86 -0.01c0.18,-1.45 -0.25,-9.26 0.2,-9.77 -0.04,-0.89 0.9,-1.92 1.49,-2.28 1.02,-0.64 1.74,-0.58 3.02,-0.45l0.81 -1.68c-2.68,-0.74 -4.24,-0.08 -5.76,1.29 -0.31,-0.14 -1.38,-0.98 -1.58,-1.23zm12.93 10.15c0.71,-0.56 1.32,-1.17 2.05,-1.79 1.43,-1.2 5.11,-4.63 6.19,-5.44 -1.17,-1.61 -5.24,-2.04 -7.31,-0.06 -0.8,0.77 -1.55,1.69 -1.8,3.16 -0.22,1.32 0.07,3.41 0.87,4.13zm31.2 25.9l0.63 -0.01 1.85 -0.04c0.1,-2.35 0.01,-4.92 0,-7.3 0,-1.52 0.03,-2.01 0.9,-2.84 0.78,-0.75 1.69,-0.78 2.88,-0.47l1.07 -2.16c-0.83,-0.5 -2.05,-0.63 -3.14,-0.43 -1.34,0.24 -1.59,0.72 -2.44,1.15 -0.56,-0.33 -1.26,-1.09 -1.76,-1.31l0.01 13.41zm34.49 -39.9l0 3.85 -2.58 0.02 0.01 1.88 2.57 0.01 0 12.22 1.87 0 0.03 -12.22 2.5 -0.01 0.02 -1.88 -2.5 -0.01 -0.03 -4.87c-0.39,0.12 -1.69,0.7 -1.89,1.01zm-23.57 23.61l-0.02 3.27 -2.19 0.01 -0.02 2.47 2.2 0.01 0.01 10.53 2.46 -0.01 0.02 -10.53 2.17 0 0.01 -2.45 -2.18 -0.02 -0.01 -4.45 -2.45 1.17zm-15.05 -7.78c-0.27,-0.29 -1.13,-0.96 -1.48,-1.16 -0.72,0.65 -1.26,1.28 -2.61,1.65 -3.48,0.93 -7.19,-1.44 -7.14,-5.47 0.05,-3.97 3.82,-6.25 7.23,-5.26 1.29,0.38 1.96,1.05 2.64,1.73 0.35,-0.31 1.12,-0.78 1.43,-1.15 -0.44,-0.81 -2.02,-1.93 -3.39,-2.35 -4.66,-1.46 -9.75,1.84 -9.8,7.03 -0.05,4.97 4.71,8.61 9.55,7.28 1.42,-0.4 3.03,-1.47 3.57,-2.3zm-5.5 13.29c-5.56,1.01 -4.18,9.61 1.68,8.57 2.13,-0.38 3.92,-2.44 3.48,-5.08 -0.36,-2.18 -2.51,-3.98 -5.16,-3.49zm58.53 -0.01c-2.19,0.39 -3.89,2.41 -3.48,5.06 0.34,2.21 2.48,4.01 5.17,3.52 5.52,-0.99 4.22,-9.63 -1.69,-8.58zm-75.91 8.83l1.13 1.04 0.02 -8.16c-0.21,0.23 -1.02,0.95 -1.3,1.06 -2.38,-2.82 -7.48,-0.94 -7.45,3.06 0.02,2 1.32,3.36 2.63,3.96 0.82,0.38 1.92,0.48 2.87,0.23 1.28,-0.33 1.55,-0.93 2.1,-1.19zm45.99 -32.79c-0.43,-0.32 -1.13,-1 -1.56,-1.24l-0.02 14.06 1.85 0.01c0.13,-0.69 0.05,-6.89 0.05,-8.13 -0.01,-1.5 0.11,-2.22 0.88,-3.17 0.54,-0.67 1.54,-1.31 2.87,-1.31 2.63,0 3.76,1.88 3.75,4.38 0,1.37 0,2.73 0,4.09 0,1.02 -0.12,3.26 0.05,4.14l1.83 0c0.19,-1.77 0.02,-4.56 0.02,-6.43 0,-2.18 0.2,-3.91 -0.9,-5.55 -1.49,-2.22 -4.28,-3.13 -6.86,-2.13 -1.03,0.4 -1.3,0.89 -1.96,1.28zm-56.58 26.78c-0.46,-0.23 -2.07,-2.17 -4.87,-1.09 -3.41,1.33 -3.89,6.23 -0.23,8.03 0.82,0.4 1.9,0.51 2.87,0.28 1.23,-0.28 1.46,-0.83 2.17,-1.21 0.21,0.17 0.33,0.34 0.54,0.53 0.22,0.19 0.41,0.32 0.6,0.51l0.02 -13.68 -1.09 -0.01 -0.01 6.64zm13.04 -2.59l2.28 0.05 0.03 10.5 2.45 -0.01 0.02 -10.49 2.26 -0.01 -0.07 -2.47 -2.18 0c0,-1.48 -0.27,-3.6 0.46,-4.66 0.28,-0.4 0.9,-0.86 1.67,-0.93 0.98,-0.09 1.25,0.25 1.86,0.56 0.44,-0.52 1.29,-1.31 1.61,-1.89 -0.44,-0.21 -0.77,-0.53 -1.39,-0.79 -1.71,-0.7 -3.68,-0.34 -4.95,0.76 -2.06,1.78 -1.75,3.58 -1.75,6.94l-2.22 0.03c-0.06,0.78 0.12,1.68 -0.08,2.41zm43.73 9.55c0.73,0.35 1.36,1.28 3.48,1.31 1.86,0.03 2.43,-0.54 3.59,-1.26 0.5,0.22 1.23,1.02 1.77,1.35l0 -13.41 -2.44 0.02c-0.07,2.25 -0.01,4.59 -0.01,6.85 0,1.26 0.1,1.95 -0.55,2.85 -1.06,1.47 -3.29,1.59 -4.54,-0.07 -0.64,-0.85 -0.51,-1.66 -0.51,-2.88 0,-2.22 0.07,-4.55 -0.01,-6.76l-2.47 0c-0.08,2.23 -0.01,4.61 -0.01,6.86 0,1.22 -0.06,2.07 0.34,3.15 0.4,1.06 0.89,1.36 1.36,1.99zm15.92 -12.3c-1.33,0.14 -2.05,0.64 -2.88,1.23 -0.38,-0.18 -1.41,-1.05 -1.67,-1.33 -0.02,0.02 -0.04,0.03 -0.04,0.07 -0.01,0.03 -0.03,0.05 -0.04,0.07 -0.13,0.44 -0.05,6.03 -0.05,6.52 0,1.88 -0.19,5.01 0.03,6.74l2.42 -0.01c0.25,-2.81 -0.43,-8.41 0.51,-9.66 1.18,-1.57 3.38,-1.62 4.62,-0.06 0.98,1.24 0.23,6.83 0.53,9.72l2.42 0.01c0.13,-1.35 0.13,-8.28 -0.13,-9.38 -0.59,-2.41 -2.67,-4.08 -5.72,-3.92zm-29.75 -21.16c-2.92,0.44 -5.17,2.94 -4.7,6.41 0.39,2.82 3.09,5.09 6.39,4.61 2.81,-0.41 5.15,-3 4.67,-6.39 -0.39,-2.76 -3.05,-5.13 -6.36,-4.63zm42.91 0.01c-7.27,1.09 -5.74,12.13 1.78,10.99 2.75,-0.41 5.11,-3.07 4.59,-6.39 -0.43,-2.76 -3.03,-5.1 -6.37,-4.6zm-68.26 9.04l-1.63 -0.94c-0.88,1.35 -1.67,2.29 -3.41,2.77 -2.02,0.54 -3.34,0.02 -4.85,-0.87 0.21,-0.33 6.71,-6.02 7.21,-6.43 0.57,-0.48 2,-1.65 2.39,-2.14 -1.42,-2.25 -4.9,-4.31 -8.73,-3 -2.72,0.94 -5.21,3.7 -5.03,7.48 0.26,5.34 6.19,8.69 10.89,6.24 1.68,-0.89 2.24,-1.69 3.16,-3.11zm4.51 20.72c0.02,0.02 0.04,0.03 0.05,0.07l0.16 0.29c0.06,0.14 0.09,0.24 0.13,0.36 0.6,1.57 2.12,3.06 3.69,3.77 1.62,0.74 3.68,0.71 5.35,0.03 0.61,-0.25 0.98,-0.58 1.5,-0.8 0.05,-0.21 0.59,-0.46 1.12,-1.16 5.28,-6.96 -3.65,-14.92 -9.9,-9.4 -3.14,2.76 -1.99,6.03 -2.1,6.84zm69.91 -6.85c-1.41,-0.88 -2.14,-1.78 -4.68,-1.78 -3.75,0 -6.83,3.01 -6.83,6.88 0,3.71 3.14,6.79 6.83,6.79 2.42,0 3.32,-0.86 4.68,-1.79l2.16 1.92 0.03 -13.97c-0.56,0.38 -1.27,1.25 -2.19,1.95zm-9.07 -10.94c1.31,0.44 1.76,1.04 4,0.98 4,-0.12 7.32,-3.3 7.23,-7.92 -0.25,-5.46 -6.69,-9.14 -11.64,-5.72 -3.41,2.36 -4.41,6.96 -2.07,10.29 1.03,1.47 1.37,1.45 2.48,2.37zm-33.74 -1.28c0.71,0.54 1.34,1.33 2.06,1.79l0 -14.01 -2.06 1.83c-0.97,-0.59 -1.38,-1.49 -3.59,-2.04 -4.56,-1.15 -9.34,2.22 -9.33,7.25 0.01,4.8 4.58,8.37 9.31,7.24 0.77,-0.19 1.38,-0.46 1.98,-0.81 0.85,-0.51 1.25,-1.04 1.63,-1.25z"/>
   <polygon class="fil3" points="69.96,109.68 179.14,109.68 179.14,108.52 69.96,108.52 "/>
   <path class="fil3" d="M116.47 99.2c-0.6,-0.3 -1.8,-1.27 -3.09,0.01 -0.67,0.65 -1.13,1.87 -1.1,3.19 0.07,2.73 2.2,4.79 4.17,2.38l0.03 0.88 0.88 0 0.02 -10.13 -0.9 0 -0.01 3.67zm37.8 0.11l0.01 0.87c0.56,-0.27 1.22,-0.91 2.14,-0.72 0.88,0.19 1.06,0.91 1.01,1.89 -0.89,0.22 -1.68,0.18 -2.52,0.56 -2.99,1.37 0.32,6.04 2.48,2.89 0.23,0.46 0.19,0.89 0.79,1 0.97,0.18 0.98,-0.14 0.95,-0.88 -0.51,0.11 -0.74,0.04 -0.77,-0.53 -0.1,-2.29 0.68,-5.37 -1.69,-5.77 -0.73,-0.13 -2.04,0.16 -2.4,0.69zm-60.06 4.62c-0.39,0.2 -1.44,1.56 -2.79,0.9 -0.89,-0.43 -1.25,-1.58 -1.19,-2.89l4.22 -0.04c-0.01,-4.67 -4.61,-4.15 -5.13,-0.48 -0.25,1.83 0.32,3.36 1.44,4.08 0.94,0.6 2.41,0.29 3.24,-0.38 0.34,-0.27 0.22,-0.71 0.21,-1.19zm32.38 1.03l0 -1.05c-1.09,0.95 -2.85,1.96 -3.74,-0.15 -0.23,-0.55 -0.29,-1.21 -0.23,-1.85l4.2 0c0,-1.71 -0.47,-3.09 -2,-3.31 -1.66,-0.24 -2.7,1.05 -3.01,2.36 -0.67,2.76 0.92,6.61 4.78,4zm-11.78 -5.48c-2.31,0.52 -2.01,5.74 0.25,5.5 1.36,-0.15 1.41,-1.56 1.41,-2.99 0,-0.57 0.17,-1.69 -0.13,-2.06 -0.23,-0.29 -0.97,-0.57 -1.53,-0.45zm17.17 0.16l-0.09 -0.9 -0.79 0 -0.03 6.92 0.89 -0.01c0.12,-1.87 -0.66,-5.91 1.46,-6.21 2.05,-0.29 1.25,3.28 1.4,6.2l0.88 0.02c0.08,-0.85 0.09,-5.14 -0.1,-5.79 -0.39,-1.39 -2.13,-1.91 -3.45,-0.4 -0.02,0.01 -0.04,0.04 -0.06,0.05 -0.01,0.02 -0.04,0.05 -0.05,0.06 -0.01,0.01 -0.04,0.04 -0.06,0.06zm-33.59 4.59l0 0.93c0.85,0.81 2.58,0.84 3.61,0.19 0.99,-0.64 1.37,-2.21 0.16,-3.09 -0.8,-0.59 -3.07,-0.6 -2.8,-1.93 0.12,-0.56 0.74,-0.94 1.47,-0.92 0.89,0.03 1.16,0.45 1.71,0.69l0.01 -1.01c-1.32,-0.41 -2.38,-1.01 -3.59,0.14 -0.79,0.75 -0.98,2.26 0.59,2.95 0.89,0.39 3.36,0.75 2.19,2.22 -0.98,1.24 -2.46,0.3 -3.35,-0.17zm46.04 1.15l-0.01 -0.97c-0.71,0.36 -1.53,0.94 -2.46,0.26 -1.3,-0.92 -1.51,-3.71 -0.01,-4.87 0.98,-0.77 1.73,-0.21 2.47,0.19l0.02 -1.01c-1.22,-0.45 -2.15,-0.68 -3.2,0.22 -1.6,1.37 -1.76,4.49 -0.09,5.99 1.11,1 2.02,0.63 3.28,0.19zm18.67 0.26l0.35 0.06 0.2 -0.01 0.39 -0.01 0 -10.17 -0.94 0.01 0 10.12zm-80.01 -6.01l-0.09 -0.89 -0.78 -0.01 -0.03 6.94 0.9 -0.01c0.11,-2.11 -0.43,-4.7 0.66,-5.82 0.52,-0.53 0.94,-0.42 1.69,-0.28l0 -0.87c-1.69,-0.33 -1.69,0.35 -2.35,0.94zm24.06 6l0.9 0.02 0 -6.88 -0.89 -0.02 -0.01 6.88zm50.29 -3.5c-2.57,-0.13 -3.29,1.58 -2.41,2.51 0.32,0.34 2.5,1.26 2.41,-2.51zm-34.73 -0.99l3.14 0c-0.2,-2.46 -2.69,-2.19 -3.14,0zm-32.38 -0.01l3.13 0c-0.18,-2.49 -2.73,-2.1 -3.13,0zm58.77 4.5l0.9 0.02 0.01 -6.88 -0.89 -0.02 -0.02 6.88zm-41.95 -10.1l0.9 0 0 1.3 -0.89 0.01 -0.01 -1.31zm41.95 0l0.9 0 0.01 1.3 -0.89 0.01 -0.02 -1.31z"/>
  </g>
 </g>
</svg>
