<?xml version="1.0" encoding="UTF-8"?>
<!DOCTYPE svg PUBLIC "-//W3C//DTD SVG 1.1//EN" "http://www.w3.org/Graphics/SVG/1.1/DTD/svg11.dtd">
<!-- Creator: CorelDRAW 2018 (64 Bit Versão de avaliação) -->
<svg xmlns="http://www.w3.org/2000/svg" xml:space="preserve" width="250px" height="148px" version="1.1" style="shape-rendering:geometricPrecision; text-rendering:geometricPrecision; image-rendering:optimizeQuality; fill-rule:evenodd; clip-rule:evenodd"
viewBox="0 0 250 148"
 xmlns:xlink="http://www.w3.org/1999/xlink">
 <defs>
  <style type="text/css">
   <![CDATA[
    .fil0 {fill:none}
    .fil1 {fill:#201E1E;fill-rule:nonzero}
   ]]>
  </style>
 </defs>
 <g id="Camada_x0020_1">
  <metadata id="CorelCorpID_0Corel-Layer"/>
  <polygon class="fil0" points="0,0 250,0 250,148 0,148 "/>
  <path class="fil1" d="M67.28 37.53l0 8.13 2.33 0c1.12,0 2.07,-0.4 2.87,-1.19 0.8,-0.79 1.19,-1.76 1.19,-2.89 0,-1.12 -0.39,-2.07 -1.19,-2.86 -0.8,-0.79 -1.75,-1.19 -2.87,-1.19l-2.33 0zm2.29 10.43l0.04 -0.01 -2.33 0 0 6.04 -2.27 0 0 -18.74 5.27 0c1.5,0.21 2.77,0.83 3.81,1.86 1.23,1.24 1.85,2.73 1.85,4.47 0,1.76 -0.62,3.26 -1.85,4.49 -0.86,0.86 -1.55,1.35 -2.08,1.49l4.17 6.43 -2.74 0 -3.87 -6.03zm10.98 -2.49l7.65 0c-0.02,-0.09 -0.28,-0.37 -0.76,-0.85 -0.84,-0.84 -1.86,-1.27 -3.04,-1.27 -1.19,0 -2.21,0.42 -3.06,1.26 -0.51,0.52 -0.77,0.8 -0.79,0.86zm-0.51 2.29c0.02,1.13 0.46,2.11 1.3,2.95 0.84,0.84 1.86,1.26 3.06,1.26 1.18,0 2.2,-0.43 3.04,-1.28 0.15,-0.14 0.39,-0.41 0.72,-0.81l2.21 0.78c-0.42,0.7 -0.84,1.26 -1.28,1.69 -1.29,1.3 -2.85,1.95 -4.69,1.95 -1.83,0 -3.39,-0.65 -4.69,-1.95 -1.3,-1.3 -1.95,-2.86 -1.95,-4.69 0,-1.83 0.65,-3.4 1.95,-4.69 1.3,-1.29 2.86,-1.94 4.69,-1.94 1.84,0 3.4,0.65 4.69,1.95 1.16,1.16 1.74,2.75 1.74,4.78l-10.79 0zm15.64 0.39c-0.87,-0.48 -1.48,-0.9 -1.85,-1.26 -0.63,-0.62 -0.94,-1.38 -0.94,-2.27 0,-0.88 0.31,-1.64 0.94,-2.28 0.63,-0.63 1.38,-0.95 2.27,-0.95 0.88,0 1.62,0.3 2.22,0.9 0.57,0.58 0.86,1.25 0.86,2.01l0 0.48 -2.01 0.82c-0.14,-0.95 -0.28,-1.52 -0.44,-1.68 -0.15,-0.17 -0.36,-0.25 -0.63,-0.25 -0.27,0 -0.49,0.1 -0.68,0.28 -0.19,0.19 -0.28,0.41 -0.28,0.67 0,0.26 0.1,0.49 0.3,0.68 0.14,0.15 0.48,0.4 1,0.73 0.98,0.53 1.68,1.01 2.12,1.45 0.74,0.75 1.11,1.64 1.11,2.68 0,1.07 -0.37,1.98 -1.11,2.73 -0.74,0.74 -1.64,1.12 -2.69,1.12 -1.06,0 -1.97,-0.38 -2.71,-1.12 -0.74,-0.75 -1.11,-1.75 -1.11,-3l2.25 -0.57c0,1 0.15,1.66 0.46,1.96 0.31,0.31 0.68,0.46 1.11,0.46 0.42,0 0.78,-0.15 1.09,-0.46 0.32,-0.3 0.48,-0.67 0.48,-1.12 0,-0.42 -0.16,-0.78 -0.48,-1.09 -0.19,-0.19 -0.62,-0.5 -1.28,-0.92zm8.81 -6.15l0 11.99 -2.25 0 0 -11.99 2.25 0zm-1.12 -3.8c0.44,0 0.82,0.16 1.13,0.47 0.32,0.32 0.48,0.7 0.48,1.14 0,0.46 -0.16,0.84 -0.48,1.15 -0.31,0.32 -0.69,0.47 -1.13,0.47 -0.44,0 -0.83,-0.15 -1.15,-0.47 -0.32,-0.31 -0.48,-0.69 -0.48,-1.15 0,-0.44 0.16,-0.82 0.48,-1.14 0.32,-0.31 0.71,-0.47 1.15,-0.47zm16.93 15.79l-2.26 0 0 -1.14c-0.99,0.97 -2.39,1.45 -4.23,1.45 -1.83,0 -3.38,-0.65 -4.68,-1.95 -1.29,-1.3 -1.94,-2.86 -1.94,-4.69 0,-1.83 0.65,-3.4 1.94,-4.69 1.3,-1.29 2.85,-1.94 4.68,-1.94 1.84,0 3.24,0.5 4.23,1.49l0 -7.27 2.26 0 0 18.74zm-2.26 -7.28c-0.15,-0.77 -0.54,-1.47 -1.17,-2.09 -0.84,-0.84 -1.86,-1.27 -3.06,-1.27 -1.18,0 -2.2,0.42 -3.04,1.27 -0.84,0.84 -1.26,1.86 -1.26,3.04 0,1.19 0.42,2.21 1.26,3.05 0.84,0.84 1.86,1.26 3.04,1.26 1.2,0 2.22,-0.43 3.06,-1.28 0.63,-0.61 1.02,-1.3 1.17,-2.06l0 -1.92zm6.79 -1.24l7.66 0c-0.03,-0.09 -0.29,-0.37 -0.76,-0.85 -0.85,-0.84 -1.86,-1.27 -3.05,-1.27 -1.19,0 -2.21,0.42 -3.05,1.26 -0.52,0.52 -0.78,0.8 -0.8,0.86zm-0.51 2.29c0.03,1.13 0.47,2.11 1.31,2.95 0.83,0.84 1.85,1.26 3.05,1.26 1.19,0 2.2,-0.43 3.05,-1.28 0.15,-0.14 0.39,-0.41 0.72,-0.81l2.21 0.78c-0.42,0.7 -0.85,1.26 -1.29,1.69 -1.28,1.3 -2.85,1.95 -4.69,1.95 -1.82,0 -3.38,-0.65 -4.68,-1.95 -1.31,-1.3 -1.96,-2.86 -1.96,-4.69 0,-1.83 0.65,-3.4 1.96,-4.69 1.3,-1.29 2.86,-1.94 4.68,-1.94 1.84,0 3.41,0.65 4.69,1.95 1.16,1.16 1.74,2.75 1.74,4.78l-10.79 0zm14.87 -2.6l0 8.83 -2.27 0 0 -11.99 2.27 0c0.29,-0.43 1.11,-0.65 2.48,-0.65 1.44,0 2.61,0.46 3.54,1.38 0.92,0.91 1.38,2.06 1.4,3.45l0 7.81 -2.25 0 0 -7.72c0,-0.73 -0.26,-1.35 -0.8,-1.88 -0.53,-0.51 -1.16,-0.77 -1.89,-0.77 -0.73,0 -1.36,0.25 -1.89,0.76 -0.3,0.3 -0.49,0.55 -0.59,0.78zm19.72 4.85l2.27 0.83c-0.55,0.75 -0.95,1.24 -1.22,1.51 -1.29,1.3 -2.85,1.95 -4.69,1.95 -1.83,0 -3.38,-0.65 -4.68,-1.95 -1.31,-1.3 -1.96,-2.86 -1.96,-4.7 0,-1.83 0.65,-3.39 1.96,-4.68 1.3,-1.29 2.85,-1.94 4.68,-1.94 1.84,0 3.4,0.65 4.69,1.95 0.27,0.25 0.67,0.76 1.22,1.5l-2.27 0.83c-0.29,-0.36 -0.49,-0.6 -0.6,-0.71 -0.84,-0.83 -1.85,-1.25 -3.04,-1.25 -1.19,0 -2.2,0.42 -3.04,1.26 -0.84,0.84 -1.26,1.85 -1.26,3.04 0,1.2 0.42,2.22 1.26,3.06 0.84,0.84 1.85,1.26 3.04,1.26 1.19,0 2.2,-0.43 3.04,-1.28 0.11,-0.1 0.31,-0.33 0.6,-0.68zm6.76 -8.01l0 11.99 -2.25 0 0 -11.99 2.25 0zm-1.11 -3.8c0.44,0 0.81,0.16 1.13,0.47 0.32,0.32 0.47,0.7 0.47,1.14 0,0.46 -0.15,0.84 -0.47,1.15 -0.32,0.32 -0.69,0.47 -1.13,0.47 -0.45,0 -0.84,-0.15 -1.16,-0.47 -0.32,-0.31 -0.48,-0.69 -0.48,-1.15 0,-0.44 0.16,-0.82 0.48,-1.14 0.32,-0.31 0.71,-0.47 1.16,-0.47zm16.78 15.79l-2.27 0 0 -1.21c-0.97,1.01 -2.38,1.52 -4.22,1.52 -1.82,0 -3.38,-0.65 -4.68,-1.95 -1.3,-1.3 -1.95,-2.86 -1.95,-4.69 0,-1.83 0.65,-3.4 1.95,-4.69 1.3,-1.29 2.86,-1.94 4.68,-1.94 1.84,0 3.25,0.5 4.22,1.49l0 -0.52 2.27 0 0 11.99zm-2.27 -5.41l0 -1.83c-0.15,-0.79 -0.54,-1.5 -1.18,-2.13 -0.84,-0.84 -1.85,-1.27 -3.04,-1.27 -1.19,0 -2.2,0.42 -3.05,1.27 -0.84,0.84 -1.26,1.86 -1.26,3.04 0,1.19 0.41,2.21 1.25,3.05 0.85,0.84 1.86,1.26 3.06,1.26 1.19,0 2.2,-0.43 3.04,-1.28 0.64,-0.62 1.03,-1.33 1.18,-2.11zm7.2 -13.33l0 18.74 -2.27 0 0 -18.74 2.27 0zm-127.77 51.95c-6.01,10.16 -12.31,16.9 -18.92,20.23 -6.6,3.34 -12.57,5.01 -17.89,5.01 -3.52,0 -6.35,-0.62 -8.49,-1.87 -2.13,-1.24 -3.2,-2.92 -3.2,-5 0,-1.02 0.28,-1.86 0.86,-2.57 0.58,-0.71 1.33,-1.06 2.27,-1.06 0.71,0 1.35,0.26 1.87,0.77 0.53,0.51 0.79,1.07 0.79,1.7 0,0.62 -0.25,1.17 -0.74,1.66 -0.48,0.49 -1.06,0.74 -1.74,0.74 -0.71,0 -1.33,-0.29 -1.86,-0.87 -0.19,0.52 -0.29,0.92 -0.29,1.2 0,1.09 0.9,2.19 2.7,3.28 1.8,1.09 4.35,1.63 7.64,1.63 5.53,0 10.85,-1.71 15.97,-5.12 5.12,-3.42 10.83,-10.02 17.14,-19.8 -1.77,-0.16 -3.24,-0.89 -4.42,-2.2 -1.17,-1.33 -1.76,-2.88 -1.76,-4.7 0,-3.06 1.53,-6.21 4.58,-9.45 3.06,-3.24 7.8,-5.86 14.23,-7.88 6.45,-2.01 12.59,-3.01 18.45,-3.01 1.95,0 3.99,0.15 6.1,0.46l0 0.23c-6.26,0.63 -11.88,2.81 -16.87,6.51 -4.99,3.72 -10.39,10.29 -16.19,19.73 3.6,-0.18 7.06,-1.65 10.36,-4.42 3.31,-2.78 5.7,-5.78 7.19,-9.01l0.31 0.16c-1.73,3.69 -4.24,6.83 -7.52,9.44 -3.28,2.61 -6.8,4.01 -10.57,4.21zm-3.67 -0.46c3.53,-4.78 6.33,-8.34 8.41,-10.69 2.09,-2.34 4.75,-4.7 7.96,-7.11 3.22,-2.4 6.27,-4.24 9.12,-5.53 2.87,-1.28 6.1,-2.26 9.7,-2.94 -1.44,-0.13 -2.73,-0.19 -3.88,-0.19 -6.44,0 -12.58,1.06 -18.46,3.18 -5.88,2.13 -10.46,4.87 -13.72,8.22 -3.28,3.36 -4.91,6.48 -4.91,9.37 0,1.54 0.6,2.88 1.82,4.02 1.22,1.13 2.39,1.71 3.51,1.71 0.08,0 0.23,-0.01 0.45,-0.04zm4.45 18.21l-0.27 -0.27c5.53,-4.72 8.76,-7.42 9.71,-8.1 0.94,-0.67 1.69,-1.13 2.23,-1.39 0.54,-0.24 0.99,-0.56 1.37,-0.94 4.27,-4.58 8.36,-8.64 12.27,-12.22 3.92,-3.56 7.27,-6.34 10.05,-8.3 2.77,-1.97 5.09,-2.96 6.95,-2.96 0.67,0 1.25,0.21 1.71,0.62 0.47,0.42 0.7,0.87 0.7,1.37 0,1.47 -1.61,3.63 -4.82,6.51 -3.22,2.88 -7.19,5.75 -11.94,8.6 -4.74,2.87 -8.38,4.67 -10.92,5.41 -0.58,0.66 -1.64,1.85 -3.2,3.53l-3.01 3.31 -3.79 4.52c-2.64,3.14 -4.04,5.14 -4.22,5.98l0 0.34c0,0.84 0.46,1.25 1.39,1.25 2.15,0 6.03,-2.5 11.65,-7.49l0.23 0.27 -2.29 1.94c-4.54,3.87 -7.84,5.82 -9.89,5.82 -0.63,0 -1.17,-0.25 -1.63,-0.74 -0.46,-0.49 -0.7,-1.08 -0.7,-1.75 0,-1.86 1.44,-4.55 4.34,-8.06 2.88,-3.52 4.74,-5.55 5.57,-6.11l-0.04 -0.22c-0.9,0.4 -2.23,1.37 -3.99,2.9l-7.46 6.18zm17.57 -12.24c2.01,-0.66 5.41,-2.4 10.22,-5.25 4.8,-2.83 8.74,-5.66 11.8,-8.5 3.06,-2.83 4.59,-4.92 4.59,-6.25 0,-0.41 -0.19,-0.77 -0.57,-1.08 -0.37,-0.32 -0.85,-0.48 -1.43,-0.48 -1.5,0 -3.33,0.73 -5.47,2.18 -2.15,1.45 -5.43,4.47 -9.87,9.09 -4.42,4.62 -7.51,8.04 -9.27,10.29zm-1.4 12.24l-0.27 -0.27c2.87,-2.33 4.87,-4 6,-5.01 1.13,-1.02 2.11,-1.8 2.95,-2.36l3.55 0c-0.71,0.75 -1.7,1.75 -2.97,3l-8.32 8.59c-0.66,0.68 -1.06,1.24 -1.21,1.69l0 0.27c0,0.32 0.14,0.61 0.43,0.87 0.29,0.27 0.64,0.4 1.03,0.4 1.11,0 2.7,-0.7 4.8,-2.08 2.1,-1.39 4.01,-2.91 5.74,-4.56l4.78 -4.46c1.3,-1.21 2.68,-2.44 4.1,-3.72l3.73 0c-3.38,3.28 -6.07,6.05 -8.06,8.3l-2.48 2.76c-1.2,1.41 -1.8,2.33 -1.8,2.79 0,0.75 0.46,1.12 1.39,1.12 1.1,0 2.53,-0.61 4.28,-1.84 1.75,-1.22 4.1,-3.12 7.06,-5.72l0.23 0.27c-4.31,3.72 -7.15,5.93 -8.53,6.62 -1.36,0.71 -2.4,1.06 -3.13,1.06 -0.56,0 -1.05,-0.22 -1.46,-0.64 -0.41,-0.43 -0.62,-1.01 -0.62,-1.74 0,-1.83 1.33,-4.06 3.97,-6.7l3.58 -3.69 -0.25 -0.22c-8.68,8.55 -14.48,12.83 -17.42,12.83 -0.58,0 -1.08,-0.21 -1.5,-0.64 -0.43,-0.42 -0.64,-1 -0.64,-1.72 0,-1.61 0.88,-3.32 2.66,-5.12l5.71 -5.8 -0.32 -0.15c-1.01,0.92 -3.35,2.89 -7.01,5.87zm24.97 0l-0.27 -0.27 3.81 -3.15c3.75,-3.12 6.43,-4.68 8.01,-4.68 1.38,0 2.07,0.78 2.07,2.34 0,1.42 -1.09,3.31 -3.26,5.67l0.14 0.14c6.43,-5.33 10.81,-7.99 13.18,-7.99 0.75,0 1.35,0.21 1.79,0.64 0.43,0.42 0.65,0.9 0.65,1.43 0,1.46 -1.19,3.47 -3.6,6l0.16 0.08c1.68,-1.61 3.4,-3.04 5.18,-4.3 1.76,-1.26 3.25,-2.16 4.48,-2.71 1.22,-0.55 2.25,-0.84 3.11,-0.84 1.66,0 2.48,0.72 2.48,2.16 0,1.28 -0.46,2.5 -1.4,3.67 -0.94,1.18 -3.01,3.06 -6.23,5.65 -0.88,0.73 -1.32,1.31 -1.32,1.74 0,0.92 0.58,1.37 1.75,1.37 1.14,0 2.47,-0.44 3.94,-1.33 1.5,-0.87 3.99,-2.83 7.5,-5.85l0.24 0.27c-4.12,3.49 -6.86,5.57 -8.24,6.26 -1.37,0.69 -2.52,1.03 -3.43,1.03 -0.71,0 -1.3,-0.24 -1.8,-0.74 -0.49,-0.49 -0.73,-1.08 -0.73,-1.76 0,-0.94 0.36,-1.91 1.06,-2.89 0.72,-0.98 2.19,-2.35 4.4,-4.09 2.23,-1.73 3.33,-3.04 3.33,-3.96 0,-0.7 -0.47,-1.06 -1.44,-1.06 -1.23,0 -2.84,0.56 -4.83,1.68 -1.98,1.12 -4.26,2.88 -6.82,5.29l-4.45 4.19c-1.3,1.25 -2.31,2.25 -3.03,3.03l-3.81 0.08 5.16 -5.14c2.77,-2.77 4.63,-4.7 5.55,-5.83 0.94,-1.12 1.4,-1.97 1.4,-2.56 0,-0.24 -0.12,-0.5 -0.37,-0.76 -0.24,-0.24 -0.55,-0.37 -0.92,-0.37 -1.11,0 -2.85,0.77 -5.21,2.33 -2.37,1.56 -4.85,3.5 -7.47,5.81l-7.1 6.44 -3.77 0.08 1.35 -1.52 4.86 -4.81c2.57,-2.53 4.28,-4.3 5.12,-5.31 0.83,-1 1.25,-1.77 1.25,-2.34 0,-0.55 -0.33,-0.83 -0.98,-0.83 -0.93,0 -2.25,0.58 -3.96,1.74 -1.7,1.16 -4.22,3.16 -7.53,5.97zm60.91 -15.06c0,0.56 -0.22,1.01 -0.67,1.38 -0.44,0.37 -0.9,0.56 -1.39,0.56 -0.35,0 -0.64,-0.12 -0.88,-0.38 -0.25,-0.27 -0.38,-0.58 -0.38,-0.95 0,-0.48 0.21,-0.93 0.63,-1.35 0.41,-0.43 0.89,-0.63 1.4,-0.63 0.36,0 0.67,0.14 0.92,0.41 0.24,0.27 0.37,0.59 0.37,0.96zm-18.49 15.06l-0.26 -0.27c1.22,-1.04 4.32,-3.51 9.29,-7.37l3.62 0 -11.87 11.73c-0.45,0.45 -0.74,0.9 -0.88,1.35l0 0.27c0,0.32 0.12,0.61 0.37,0.86 0.26,0.25 0.56,0.38 0.94,0.38 0.81,0 1.94,-0.4 3.4,-1.21 1.48,-0.81 4.04,-2.81 7.71,-5.97l0.23 0.27c-5.6,4.86 -9.36,7.29 -11.32,7.29 -0.63,0 -1.13,-0.2 -1.53,-0.6 -0.38,-0.4 -0.58,-0.94 -0.58,-1.62 0,-0.95 0.33,-1.96 0.96,-3.02 0.64,-1.07 3.03,-3.6 7.17,-7.62l-0.06 -0.19 -3.46 2.64 -3.73 3.08zm12.29 -0.23c5.9,-4.99 9.93,-7.48 12.05,-7.48 0.5,0 0.93,0.16 1.3,0.48 0.36,0.34 0.54,0.79 0.54,1.34 0,1.67 -1.05,3.64 -3.18,5.91l0.16 0.15c5.91,-5.21 10,-7.81 12.27,-7.81 1.71,0 2.56,0.72 2.56,2.18 0,0.97 -0.35,1.99 -1.03,3.03 -0.7,1.04 -1.96,2.34 -3.78,3.91 -1.83,1.57 -2.97,2.6 -3.41,3.09 -0.44,0.5 -0.66,0.92 -0.66,1.27 0,0.28 0.12,0.53 0.36,0.72 0.23,0.21 0.5,0.31 0.81,0.31 0.78,0 1.98,-0.41 3.62,-1.22 1.63,-0.81 3.46,-2.08 5.5,-3.81l2.44 -2.07 0.24 0.23c-5.4,4.84 -9.38,7.26 -11.94,7.26 -0.55,0 -1.03,-0.22 -1.43,-0.67 -0.39,-0.44 -0.6,-0.99 -0.6,-1.66 0,-0.63 0.15,-1.27 0.48,-1.93 0.3,-0.66 0.66,-1.22 1.05,-1.67 0.39,-0.45 1.32,-1.31 2.82,-2.59l1.73 -1.48c1.97,-1.67 2.95,-2.83 2.95,-3.48 0,-0.68 -0.5,-1.03 -1.51,-1.03 -1.86,0 -4.46,1.32 -7.78,3.96 -3.33,2.65 -7.19,6.08 -11.6,10.31l-3.73 0 10.42 -10.4c1.65,-1.65 2.47,-2.71 2.47,-3.23 0,-0.47 -0.35,-0.72 -1.05,-0.72 -1.99,0 -5.92,2.45 -11.8,7.33l-0.27 -0.23zm48.87 -7.41l3.32 0 -10.57 11.03c-1.06,1.05 -1.58,1.9 -1.58,2.54 0,0.41 0.14,0.72 0.43,0.94 0.29,0.21 0.58,0.31 0.89,0.31 0.6,0 1.58,-0.44 2.92,-1.31 1.34,-0.88 3.91,-2.91 7.72,-6.1l0.23 0.27c-4.04,3.4 -6.73,5.49 -8.05,6.3 -1.31,0.81 -2.32,1.22 -3,1.22 -0.59,0 -1.07,-0.21 -1.4,-0.65 -0.35,-0.44 -0.52,-0.97 -0.52,-1.57 0,-1.05 0.52,-2.37 1.55,-3.95l-0.14 -0.11c-5.1,4.19 -8.57,6.28 -10.42,6.28 -0.77,0 -1.39,-0.32 -1.83,-0.96 -0.43,-0.64 -0.65,-1.48 -0.65,-2.51 0,-2.87 2.02,-5.54 6.04,-8.01 4.03,-2.48 7.42,-3.72 10.17,-3.72 1.43,0 2.15,0.61 2.15,1.83 0,0.28 -0.01,0.64 -0.04,1.07l2.78 -2.9zm-3.2 1.74c0,-0.9 -0.58,-1.35 -1.74,-1.35 -2.08,0 -5.14,1.81 -9.18,5.43 -4.04,3.62 -6.06,6.17 -6.06,7.65 0,0.32 0.14,0.63 0.41,0.91 0.29,0.3 0.67,0.44 1.18,0.44 0.73,0 1.92,-0.46 3.6,-1.39 1.67,-0.93 3.73,-2.43 6.17,-4.51 2.44,-2.07 3.99,-3.59 4.64,-4.53 0.66,-0.94 0.98,-1.83 0.98,-2.65zm6.56 5.9l-0.27 -0.27 5.75 -4.73c0.9,-0.73 1.54,-1.3 1.91,-1.71 -0.78,-0.49 -1.18,-1.14 -1.18,-1.98 0,-0.54 0.18,-1.02 0.55,-1.42 0.38,-0.41 0.79,-0.61 1.24,-0.61 0.33,0 0.63,0.14 0.9,0.42 0.27,0.27 0.4,0.62 0.4,1.02 0,0.41 -0.15,0.76 -0.41,1.05 -0.28,0.3 -0.61,0.44 -1.01,0.44 -0.28,0 -0.56,-0.1 -0.86,-0.31 -0.03,0.12 -0.04,0.18 -0.04,0.21 0,0.24 0.17,0.49 0.52,0.73 0.33,0.24 0.83,0.37 1.49,0.37 0.95,0 1.98,-0.28 3.07,-0.85l1.97 2.23c-0.48,0.94 -1.44,2.1 -2.92,3.47 -1.48,1.38 -2.96,2.84 -4.42,4.4 -1.47,1.56 -2.29,2.48 -2.5,2.79 -0.19,0.3 -0.3,0.59 -0.3,0.86 0,0.71 0.4,1.07 1.21,1.07 0.96,0 2.43,-0.55 4.45,-1.67 2.01,-1.12 4.58,-3.04 7.69,-5.74l0.24 0.27c-5.86,5.02 -10.02,7.52 -12.48,7.52 -0.73,0 -1.3,-0.23 -1.72,-0.69 -0.41,-0.48 -0.62,-1.08 -0.62,-1.84 0,-0.95 0.31,-1.91 0.91,-2.87 0.62,-0.96 1.95,-2.44 3.96,-4.42 2.04,-1.99 3.44,-3.49 4.21,-4.46l-0.15 -0.27c-1.03,0.4 -2,0.59 -2.9,0.59 -0.24,0 -0.5,-0.04 -0.77,-0.12l-7.92 6.52zm32.41 -0.23l0.23 0.27c-3,2.64 -5.74,4.55 -8.21,5.75 -2.48,1.18 -4.45,1.77 -5.92,1.77 -2.05,0 -3.08,-1.05 -3.08,-3.16 0,-2.84 1.94,-5.52 5.81,-8.04 3.87,-2.5 6.9,-3.76 9.08,-3.76 0.4,0 0.75,0.11 1.03,0.33 0.3,0.23 0.44,0.5 0.44,0.84 0,1.22 -1.22,2.52 -3.65,3.87 -2.43,1.35 -5.13,2.2 -8.11,2.52 -2.55,2.58 -3.83,4.36 -3.83,5.31 0,0.46 0.23,0.89 0.68,1.27 0.45,0.4 0.98,0.59 1.57,0.59 1.32,0 3.17,-0.56 5.56,-1.71 2.39,-1.14 5.19,-3.1 8.4,-5.85zm-11.81 0.01c0.76,0 2.09,-0.33 3.99,-0.99 1.9,-0.65 3.5,-1.49 4.76,-2.52 1.27,-1.04 1.9,-1.89 1.9,-2.57 0,-0.48 -0.27,-0.72 -0.82,-0.72 -0.66,0 -1.38,0.21 -2.18,0.6 -0.78,0.4 -1.98,1.23 -3.59,2.47 -1.6,1.25 -2.95,2.5 -4.06,3.73z"/>
 </g>
</svg>
