<?xml version="1.0" encoding="UTF-8"?>
<!DOCTYPE svg PUBLIC "-//W3C//DTD SVG 1.1//EN" "http://www.w3.org/Graphics/SVG/1.1/DTD/svg11.dtd">
<!-- Creator: CorelDRAW 2018 (64 Bit Versão de avaliação) -->
<svg xmlns="http://www.w3.org/2000/svg" xml:space="preserve" width="250px" height="148px" version="1.1" style="shape-rendering:geometricPrecision; text-rendering:geometricPrecision; image-rendering:optimizeQuality; fill-rule:evenodd; clip-rule:evenodd"
viewBox="0 0 250 148"
 xmlns:xlink="http://www.w3.org/1999/xlink">
 <defs>
  <style type="text/css">
   <![CDATA[
    .fil0 {fill:none}
    .fil2 {fill:#9CB320}
    .fil3 {fill:#818900;fill-rule:nonzero}
    .fil1 {fill:#E8E885;fill-rule:nonzero}
   ]]>
  </style>
 </defs>
 <g id="Camada_x0020_1">
  <metadata id="CorelCorpID_0Corel-Layer"/>
  <rect class="fil0" width="250" height="148"/>
  <g id="_3096052290592">
   <polygon class="fil1" points="65.2,95.9 13.41,95.9 13.41,45.2 65.2,45.2 "/>
   <path class="fil2" d="M34.24 39.59c-1.44,0.41 0.88,1.64 0.93,2.61 0.89,-1 -0.83,-1.68 -0.93,-2.61z"/>
   <path class="fil2" d="M37.74 39.52c-1.2,-0.09 -1,0.71 -0.71,1.57 0.38,-0.15 0.15,-0.68 0.11,-1.08 2.22,4.66 2.53,9.61 3.35,15.09 0.57,-4.57 -1.16,-11.17 -2.75,-15.58z"/>
   <path class="fil2" d="M39.57 39.82c-0.04,2.96 1.52,8.89 1.82,12.97 0.01,-4.36 -0.26,-8.94 -1.82,-12.97z"/>
   <path class="fil2" d="M18.69 63.11c0.99,1.15 2.98,0.75 4.47,1.12 -0.93,-0.96 -3.65,-1.5 -4.47,-1.12z"/>
   <path class="fil2" d="M14.44 66.16c-0.84,-0.8 -2.13,-0.88 -3.39,-1 0.46,1.38 2.03,1.02 3.39,1z"/>
   <path class="fil2" d="M63.56 55.97c-2.03,1.1 -5.16,1.51 -6.33,3.16 3.47,-0.76 4.2,-1.44 6.89,-2.23 -0.24,-0.23 -0.47,-0.47 -0.56,-0.93z"/>
   <path class="fil2" d="M10.41 70.22c2.07,-0.23 4.07,-0.35 6.19,-0.66 -1.21,-0.66 -6.4,-0.8 -6.19,0.66z"/>
   <path class="fil2" d="M64.42 58.24c-0.31,-0.72 -1.84,0.13 -2.01,0.45 -3.77,0.88 1.29,0.52 2.01,-0.45z"/>
   <path class="fil2" d="M10.22 70.97c6.09,0.39 12.92,-0.37 19.27,-0.4 -5.98,-0.75 -13.84,-0.62 -19.27,0.4z"/>
   <path class="fil2" d="M11.68 72.76c4.47,0.65 10.2,-1.45 15.28,-0.93 -0.17,-1.28 -4.88,-0.15 -7.76,-0.04 -2.52,0.1 -5.06,0.01 -7.52,0.97z"/>
   <path class="fil2" d="M65.87 63.2c-2.77,-1.32 -8.84,0.43 -12.3,1.67 -3.49,1.38 2.33,-0.43 4.77,-0.71 1.85,-0.2 3.78,-0.38 3.99,0.53 0.12,-1.17 2.23,-1.08 3.54,-1.49z"/>
   <path class="fil2" d="M48.76 66.99c5.37,0.31 11.86,-1.33 16.63,-1.22 -4.11,-1.28 -10.42,0.29 -16.63,1.22z"/>
   <path class="fil2" d="M45.82 68c-0.47,-0.65 -2.54,0.08 -1.87,1.12 1.43,0.14 0.44,-1.26 1.87,-1.12z"/>
   <path class="fil2" d="M54.8 68.82c0.8,1.11 0.33,-0.89 1.27,-0.63 -1.49,-0.58 -2.36,0.15 -4.1,0.56 0.17,1.53 3.85,-0.8 2.83,0.07z"/>
   <path class="fil2" d="M42.61 72.58c-1.34,0.02 -0.07,1.68 -0.15,2.5 0.61,-0.48 0.44,-1.45 0.15,-2.5z"/>
   <path class="fil2" d="M16.82 80.06c1.46,0.54 3.05,-1.31 4.55,-1.71 -0.8,-0.98 -2.96,1.38 -4.55,1.71z"/>
   <path class="fil2" d="M13.8 80.74c-1.22,0.48 0.67,1.32 -1.05,1.64 0.55,0.86 1.41,-0.41 2.02,-0.45 -0.26,-0.5 -1.12,-0.05 -0.97,-1.19z"/>
   <path class="fil2" d="M52.71 78.44c-1.52,0.08 0.42,0.6 -0.52,0.82 2.47,2.29 4.45,5.36 7.49,6.78 -2.3,-2.57 -4.65,-5.07 -6.97,-7.6z"/>
   <path class="fil2" d="M42.61 72.58c-1.34,0.02 -0.07,1.68 -0.15,2.5 0.61,-0.48 0.44,-1.45 0.15,-2.5zm8.88 -36.11l0 0c-2.57,2.3 -3.01,5.96 -4.32,9.06 -0.45,-0.11 -0.06,-1.32 -0.79,-1.94 0.76,1.58 2.35,-2.87 0.83,-2.65 0.2,-0.83 1.12,-1.2 1.3,-2.05 -0.87,0.08 -1.29,0.88 -1.97,-0.97 -1.47,0.12 -0.25,1.96 -2.05,1.87 1.26,0.6 0.6,1.43 0.59,2.68 1.18,-0.7 0.18,-2.77 0.93,-3.73 2.28,2.06 -1.3,4.56 0.56,7.27 -1.27,0.35 -0.18,-0.25 -0.56,-0.93 -0.65,0.83 -0.98,1.87 0.19,2.42 -1.61,0.09 -1.29,0.68 -0.71,1.57 -0.57,0.14 -0.93,-0.06 -1.16,-0.45 -0.72,2.51 -0.72,5.49 -0.97,8.31 -0.33,-4.07 -0.65,-8.69 -0.93,-12.11 -0.15,-1.87 0.99,-4.79 -1.6,-5.63 1.89,5.4 1.26,13.99 2.12,20.64 -0.98,-0.1 0.24,-1.15 -0.45,-2.01 -0.61,0.48 -0.43,1.45 -0.15,2.5 -0.89,-0.4 -0.69,-2.53 -1.15,-3.62 -0.1,4.21 -2.38,-6.32 -2.94,-8.5 -1.21,0.51 -0.53,-0.79 -1.27,-2.53 -0.65,5.56 4.21,10.86 4.4,16.62 -2.97,-5.22 -5.03,-14.71 -8.87,-20.91 2.11,6.36 4.5,11.96 6.37,17.6 -3.34,-4.41 -5.31,-10.96 -8.68,-15.33 2.41,6.47 6.63,14.02 10.65,19.46 -3.55,-1.28 -4.9,-7.38 -7.71,-10.96 -0.28,-0.35 -1.4,-0.63 -1.64,-1.04 0.52,0.91 -0.62,-4.41 -2.12,-4.81 -0.53,1.45 1.75,2.37 1.97,4.14 -2.1,-1.5 -2.23,-3.37 -4.02,-5.44 -0.7,0.26 0.76,1.69 -0.52,0.82 2.45,3.54 6.4,8.64 9.5,12.67 -3.74,-3.18 -9.19,-7.59 -13.19,-11.86 -0.59,2.14 2.26,2.77 3.31,3.85 0.01,0.44 -0.59,0.48 -0.67,0.14 2.89,3.15 7.94,8.75 11.81,10.41 -0.53,1.77 1.42,1.84 1.83,3.46 -5.89,-5.53 -12.48,-9.95 -18.52,-15.25 -0.39,2.36 4.13,4.31 6.67,6.27 4.61,3.54 9.32,7.6 13.78,11.37 -4.89,-3.02 -11.52,-7.23 -16.09,-12.27 -1.25,0.22 -2.13,-1.75 -2.98,-0.74 4.75,3.09 8.89,7.14 13.56,10.36 -5.9,-3.4 -12.05,-6.4 -16.95,-11.37 -0.21,3.8 6.24,4.55 8.38,7.64 3.07,1.34 8.72,3.03 8.76,6.15 -0.04,-0.75 -1.86,-0.06 -3.06,-1.08 -0.77,0.28 0.58,0.83 0.89,0.86 -0.18,0.84 -1.23,-0.74 -2.16,-0.23 1.5,1.43 4.19,0.97 5.78,2.24 -8.61,-1.26 -16.41,-3.79 -25.57,-4.18 2.08,0.81 4.48,1.11 6.97,1.27 -0.85,1.06 -3.19,-0.42 -4.1,0.56 5.77,0.75 11.85,0.99 17.37,2.13 -6.36,0.01 -15.34,-2.12 -22.14,-1.43 2.62,1.32 6.73,0.29 9.99,0.61 -2.33,1.08 -5.79,0.04 -8.95,0.92 4.23,0.46 9.04,-0.01 13.42,0.19 -0.57,1.54 -3.63,0.28 -5.18,0.45 3.01,1.6 8.03,0.05 11.48,0.97 0.61,0.7 0.09,0.64 0.71,1.6 1.64,-0.46 2.63,0.09 3.91,0.19 -1.04,1.33 -3.65,-0.28 -5.11,0.78 1.46,1.19 4.75,-0.51 6.68,-0.07 -0.74,0.97 -3.21,0.84 -4.63,1.38 2.06,0.53 5.69,-0.86 7.64,-2.05 -7.13,5.02 -19.14,9.82 -25.94,13.15 1.25,1.54 2.88,-0.64 3.95,-1.23 6.84,-3.74 15.43,-5.93 21.88,-10.84 0.65,0.15 -0.6,1.52 -0.56,2.24 0.6,0.73 0.76,-1.22 1.46,-1.38 1.85,7.13 2.3,18.56 4.91,25.31 0.41,1.06 2.81,4.05 1,2.94 -0.32,1.53 1.24,0.71 1.2,2.2 0.32,-0.08 0.16,-0.47 0.18,-0.74 1.93,2 1.42,3.29 2.57,6.82 -1.14,-8.92 -7.18,-24.54 -7.22,-35.71 1.75,-1.3 5.75,3.2 8.31,4.14 -0.48,-0.94 -1.59,-1.75 -4.32,-3.62 3.86,0.89 6.6,3.52 9.17,6.42 2.38,-0.95 3.33,4.91 4.77,2.46 -1.14,0.92 0,-0.13 -0.49,-0.6 -4.38,-4.15 -10.76,-9.1 -17.21,-10.96 6.73,0.58 13.65,4.79 18.93,9.17 -3.04,-4.72 -10.27,-6.79 -15.5,-9.58 5.33,0.97 10.55,2.13 14.79,4.81 -3.05,-3.38 -9.93,-4.63 -14.2,-5.29 5.3,-1.43 12.97,2.14 18.12,2.31 -5.18,-2.42 -11.31,-3.35 -18.27,-2.98 1.41,-1.19 2.96,-0.53 4.63,-1.38 0.03,0.4 -0.55,0.42 -0.94,0.56 5.37,-1.46 10.82,0.37 15.47,1.49 0.31,-1.3 -1.82,-2.11 -3.54,-1.67 1.21,-1.52 -3.38,-0.36 -4.73,-0.72 1.39,-1.74 5.5,-1.12 7.53,-0.96 -1.27,-1.71 -3.53,-0.62 -5.41,-0.56 -4.04,0.11 -8.04,-0.43 -13.45,1.22 -0.65,0.76 2.31,-0.34 2.83,0.08 -1.56,1.21 -2.55,0.19 -5.03,1.11 0.58,-1 1.76,-2.38 3.73,-2.23 -0.38,-0.77 -1.44,-0.47 -2.24,-0.56 1.39,-0.6 2.07,-1.11 3.69,-0.82 2.98,-3.72 12.6,-2.51 15.25,-5.85 -1.59,0.56 -5.55,1.74 -9.32,2.42 1.01,-0.89 1.75,-1.96 3.32,-2.49 -3.82,1.21 -8.82,3.51 -12.57,5.25 2.49,-2.63 3.97,-2.76 7.72,-4.88 -1.42,-0.41 -3.05,1.51 -4.47,2.05 1.69,-1.59 5.01,-4.21 6.67,-3.24 -0.84,-2.14 4.78,-2.76 6.56,-5.33 -5.23,2.06 -11.11,5.66 -14.91,8.94 2.15,-3.72 8.98,-6.96 12.79,-10.58 -5.9,3.16 -10.81,6.95 -14.73,11.36 1.61,-3.2 6.34,-6.91 8.95,-10.43 0.68,-0.01 0.55,1.24 1.56,0.71 2.88,-1.14 4.74,-5.02 0.9,-2.31 0.23,0.82 1.16,-0.16 1.34,-0.3 0.09,1.2 -1.61,1.28 -2.38,1.94 0.42,-2.42 2.69,-3.66 4.06,-5.48 -0.26,-0.5 -1.12,-0.05 -0.97,-1.2 -1.3,0.23 -0.06,0.31 -0.11,1.09 -4.96,4.52 -9.77,9.14 -13.72,14.3 3.17,-5.76 7.35,-10.88 12.01,-15.68 -0.3,-0.3 -0.85,-0.18 -0.9,-0.86 -4.26,5.16 -8.33,10.44 -11.93,16.02 2.92,-6.61 8.47,-12.02 11.56,-17.7 0.09,-0.8 -1.94,-0.82 -0.3,-1.34 -2.21,-0.22 -1.16,-0.73 -1.94,-2.39 -0.73,0.02 -0.83,0.43 -1.27,0.64 0.26,0.45 0.29,-0.1 0.68,-0.15 0.11,2.68 -4.82,6.13 -4.33,9.05 2.16,-2.17 2.37,-5.6 5.44,-7.19 -0.88,4.33 -5.37,6.38 -6.04,10.84 2.52,-3.1 3.91,-6.91 7.01,-9.64 -2.64,4.56 -7.46,10.22 -10.25,15.65 1.36,-3.12 1.71,-6.02 3.99,-8.98 -2.63,0.05 -2.53,4.34 -3.92,6.14 0.33,-6.42 6.36,-11.7 7.5,-18.56 -1.59,4.25 -4.15,6.24 -6.56,11.67 0.64,-5.07 3.42,-8.77 4.77,-13.38zm3.31 32.35c0.8,1.11 0.33,-0.89 1.27,-0.63 -1.49,-0.58 -2.36,0.15 -4.1,0.56 0.17,1.52 3.85,-0.8 2.83,0.07zm-8.98 -0.82c-0.47,-0.65 -2.54,0.08 -1.87,1.12 1.43,0.14 0.44,-1.26 1.87,-1.12zm-4.55 1.71c0.33,0.15 1.4,1.34 0.71,1.61 1.61,-0.55 1.14,-6.34 0.23,-8.5 -0.3,0 -0.29,0.2 -0.27,0.41 -0.22,0.05 -0.44,0.1 -0.67,0.14 2.24,2.72 -0.72,5.24 -0.49,8.91 1.25,-0.17 0.06,-1.89 0.49,-2.57zm-5.74 -9.99c0.4,-0.79 -1.6,-1.68 -2.01,-2.72 -0.48,0.94 1.49,1.87 2.01,2.72z"/>
   <path class="fil2" d="M35.53 59.72c0.4,-0.79 -1.6,-1.68 -2.01,-2.72 -0.48,0.94 1.49,1.87 2.01,2.72z"/>
   <path class="fil2" d="M31.55 43.36c-0.16,0.07 1.88,4.2 2.68,5.74 0.19,-1.81 -1.59,-4.43 -2.68,-5.74z"/>
   <path class="fil2" d="M27.26 47.83c-0.48,0.94 1.49,1.87 2.02,2.72 0.39,-0.79 -1.61,-1.68 -2.02,-2.72z"/>
   <path class="fil2" d="M19.18 51.03c0.78,0.73 1.77,1.13 2.53,1.9 -0.01,-0.6 -1.83,-2.24 -3.02,-2.49 -0.32,1.45 1.95,2.23 2.83,3.24 0.41,-0.96 -1.99,-1.38 -2.34,-2.65z"/>
   <path class="fil2" d="M15.56 55.35c2.85,2.15 6.65,2.83 9.54,4.93 -1.42,-2.33 -7.15,-4.12 -9.54,-4.93z"/>
   <path class="fil2" d="M15.45 56.43c-1.43,1.36 4.26,3.29 4.36,2.2 -1.56,-0.57 -3.49,-0.55 -4.36,-2.2z"/>
   <path class="fil2" d="M14.48 58.41c2.49,2.41 6.83,1.93 9.65,3.84 -1.5,-1.87 -7.56,-2.89 -9.65,-3.84z"/>
   <path class="fil2" d="M14.85 60.09c0.54,0.96 2.04,0.41 2.72,1.16 0.46,-0.77 -1.73,-1.19 -2.72,-1.16z"/>
   <path class="fil2" d="M20.62 59.16c0.18,1.39 3.81,1.25 4.85,2.79 -0.07,-1.55 -3.22,-2.17 -4.85,-2.79z"/>
   <path class="fil2" d="M18.91 60.95c0.72,2.19 5.65,1.69 7.75,3.2 -1.07,-1.63 -5.58,-1.79 -7.75,-3.2z"/>
   <path class="fil2" d="M25.21 62.36c-0.08,0.09 3.86,2.23 5.29,1.65 -1.45,-0.43 -2.27,-1.87 -3.95,-1.94 0.25,0.66 1.05,0.45 1.31,1.12 -0.83,-0.36 -1.72,-0.64 -2.65,-0.83z"/>
   <path class="fil2" d="M23.49 64.15c2.3,0.77 4.56,1.59 7.12,1.94 -0.4,-0.45 -2.37,-0.74 -1.71,-1.38 -1.32,-0.48 -3.51,0.06 -5.41,-0.56z"/>
   <path class="fil2" d="M41.27 69.71c0.33,0.15 1.4,1.34 0.71,1.61 1.61,-0.55 1.14,-6.34 0.23,-8.5 -0.3,0 -0.29,0.2 -0.27,0.41 -0.22,0.05 -0.44,0.1 -0.67,0.14 2.24,2.72 -0.72,5.24 -0.49,8.91 1.25,-0.16 0.06,-1.89 0.49,-2.57z"/>
   <path class="fil2" d="M30.79 74.85c-3.27,-0.13 -5.25,1.58 -8.57,2.61 2.69,0.17 5.25,-2.23 8.57,-2.61z"/>
   <path class="fil2" d="M45.7 75.41c1.27,2.53 4.56,4.99 6.71,8.02 0.82,1.16 0.78,3.14 2.5,3.32 -2.35,-4.9 -5.94,-7.86 -9.21,-11.34z"/>
   <path class="fil2" d="M26.21 81.15c-2.03,-0.23 -3.73,2.23 -5.26,3.28 1.67,0 3.33,-2.49 5.26,-3.28z"/>
   <path class="fil2" d="M23.19 81.82c-0.48,-0.38 -2.2,0.89 -2.87,1.34 0.7,0.52 2.24,-0.86 2.87,-1.34z"/>
   <path class="fil2" d="M44.21 97.22c0.66,-1.22 -1.07,-2.53 -1.49,-3.54 -0.72,-0.29 1.2,2.45 1.49,3.54z"/>
   <path class="fil2" d="M52.66 111.53c-1.02,-3.59 -2.3,-1.57 0,0z"/>
   <polygon class="fil3" points="240,95.9 68.51,95.9 68.51,45.2 240,45.2 "/>
   <path class="fil1" d="M76.53 57.33l0 -1.12 84.19 0 0 1.4 -71.89 0 0 29.43 -1.41 0 0 -29.43 -10.89 0 0 -0.28zm42.34 20.16l-5.63 -14.55 -5.84 14.55 11.47 0zm-11.97 1.26l-3.36 8.29 -1.41 0c3.49,-8.58 6.97,-17.17 10.46,-25.75l1.3 0c3.38,8.58 6.78,17.17 10.17,25.75l-1.37 0 -3.32 -8.29 -12.47 0zm44.55 8.29l-15.98 0 0 -25.75 1.27 0 0 24.49 14.71 0 0 1.26zm11.86 -25.75l0.99 0 0 25.75 -1.26 0 0 -25.75 0.27 0zm0 -5.13l0.99 0 0 3.47 -1.26 0 0 -3.47 0.27 0zm16.09 18.15l9.22 0c1.96,0 3.68,-0.56 4.88,-1.62 1.12,-0.99 1.79,-2.42 1.79,-4.24 0,-1.91 -0.56,-3.4 -1.68,-4.39 -1.11,-0.99 -2.78,-1.51 -4.99,-1.51l-9.22 0 0 11.76zm-0.28 12.73l-0.98 0 0 -25.75 10.48 0c2.5,0 4.5,0.62 5.86,1.85 1.35,1.21 2.07,2.98 2.07,5.31 0,2.25 -0.83,4 -2.24,5.2 -1.48,1.27 -3.59,1.92 -6.05,1.92l-8.86 0 0 11.47 -0.28 0zm40.97 -0.66c3.24,0 5.84,-1.22 7.65,-3.3 1.9,-2.17 2.95,-5.28 2.98,-8.91 -0.03,-3.64 -1.08,-6.75 -2.98,-8.92 -1.81,-2.08 -4.41,-3.3 -7.65,-3.3 -3.23,0 -5.83,1.22 -7.65,3.3 -1.89,2.17 -2.94,5.28 -2.98,8.92 0.04,3.63 1.09,6.74 2.98,8.91 1.82,2.08 4.42,3.3 7.65,3.3zm0 -25.69c3.7,0 6.58,1.41 8.58,3.69 2.18,2.48 3.31,5.98 3.31,9.79 0,3.81 -1.13,7.31 -3.31,9.78 -2,2.28 -4.88,3.69 -8.58,3.69 -3.69,0 -6.57,-1.41 -8.57,-3.69 -2.18,-2.47 -3.32,-5.97 -3.32,-9.78 0,-3.81 1.14,-7.31 3.32,-9.79 2,-2.28 4.88,-3.69 8.57,-3.69zm0.75 -6.59l-3.99 4.95 -1.17 0c1.61,-1.99 3.23,-3.98 4.85,-5.97l0.74 0 4.89 5.97 -1.17 0 -4.15 -4.95z"/>
   <path class="fil3" d="M77.88 99.4l5.08 0 0 1.12 -4.14 0 0 1.96 3.87 0 0 1.11 -3.87 0 0 2.19 4.18 0 0 1.13 -5.4 0 0 -7.51 0.28 0zm148.26 6.38l2 0 0 0.01 0.04 0 0 -0.01c0.43,0 0.82,-0.07 1.1,-0.25 0.25,-0.17 0.41,-0.45 0.41,-0.88l0 -0.02 0 0c0,-0.34 -0.12,-0.6 -0.36,-0.77 -0.26,-0.2 -0.67,-0.29 -1.19,-0.29l-2 0 0 2.21zm0 -3.33l2 0c0.44,0 0.76,-0.1 0.97,-0.26 0.21,-0.16 0.32,-0.39 0.32,-0.64 0,-0.35 -0.1,-0.61 -0.3,-0.77 -0.21,-0.17 -0.54,-0.26 -0.99,-0.26l-2 0 0 1.93zm-0.94 -3.05l2.94 0c0.69,0 1.35,0.14 1.83,0.5 0.41,0.32 0.68,0.79 0.68,1.48 0,0.43 -0.15,0.85 -0.41,1.18 -0.1,0.12 -0.21,0.24 -0.34,0.34 0.21,0.11 0.39,0.25 0.54,0.42 0.3,0.35 0.47,0.81 0.47,1.33 0,0.38 -0.07,0.94 -0.46,1.41 -0.39,0.47 -1.08,0.85 -2.31,0.85l-3.22 0 0 -7.51 0.28 0zm-12.58 0l0.94 0 0 4.58 0 0c0,0.73 0.16,1.22 0.46,1.53 0.29,0.29 0.74,0.42 1.3,0.42 0.57,0 1.02,-0.13 1.31,-0.43 0.3,-0.3 0.46,-0.79 0.46,-1.52l-0.01 0 0 -4.58 1.22 0 0 4.73c0,0.83 -0.24,1.6 -0.8,2.15 -0.49,0.48 -1.2,0.77 -2.18,0.77 -0.98,0 -1.69,-0.29 -2.17,-0.77 -0.56,-0.55 -0.81,-1.32 -0.81,-2.15l0 -4.73 0.28 0zm-11 0l0.94 0 0 6.38 3.9 0 0 1.13 -5.11 0 0 -7.51 0.27 0zm-7.88 2.44c-0.1,-0.46 -0.33,-0.82 -0.64,-1.06 -0.34,-0.27 -0.76,-0.41 -1.22,-0.41 -0.75,0 -1.3,0.29 -1.68,0.72 -0.45,0.54 -0.66,1.3 -0.66,2.06 0,0.76 0.21,1.53 0.66,2.06 0.38,0.44 0.93,0.72 1.68,0.72 0.54,0 0.98,-0.2 1.31,-0.53l0 0c0.36,-0.35 0.58,-0.87 0.64,-1.45l0.03 -0.25 1.22 0 -0.03 0.31c-0.1,0.92 -0.45,1.68 -1,2.22 -0.55,0.52 -1.29,0.82 -2.17,0.82 -1.11,0 -1.97,-0.42 -2.57,-1.07 -0.66,-0.73 -0.99,-1.76 -0.99,-2.83 0,-1.07 0.33,-2.09 0.99,-2.82 0.6,-0.66 1.46,-1.08 2.57,-1.08 0.75,0 1.51,0.24 2.08,0.7 0.52,0.43 0.9,1.03 0.99,1.8l0.04 0.31 -1.2 0 -0.05 -0.22zm-24.97 -2.44l5.08 0 0 1.12 -4.14 0 0 1.96 3.88 0 0 1.11 -3.88 0 0 2.19 4.19 0 0 1.13 -5.41 0 0 -7.51 0.28 0zm-12.38 0l0.9 0 2.08 5.71 2.05 -5.71 1.3 0 -2.79 7.51 -1.15 0 -2.79 -7.51 0.4 0zm-7.18 0l0.94 0 0 7.51 -1.22 0 0 -7.51 0.28 0zm-11.44 4.94l0 0.06 0 0c0,0.57 0.2,0.94 0.52,1.17 0.34,0.25 0.83,0.35 1.37,0.36l0.11 0c0.36,0 0.83,-0.11 1.17,-0.37 0.23,-0.17 0.39,-0.43 0.39,-0.76 0,-0.29 -0.15,-0.49 -0.36,-0.64 -0.24,-0.17 -0.57,-0.28 -0.86,-0.35 -0.3,0 -1.24,-0.38 -1.55,-0.38 -0.45,-0.11 -0.88,-0.28 -1.21,-0.57 -0.34,-0.31 -0.57,-0.74 -0.57,-1.37 0,-0.47 0.18,-1.16 0.79,-1.66 0.41,-0.34 1.01,-0.58 1.88,-0.58l0 0 0.03 0c0.74,0.01 1.44,0.21 1.95,0.61 0.53,0.41 0.87,1.02 0.87,1.81l0 0.01 0 0.29 -1.21 0 0 -0.27c-0.02,-0.42 -0.19,-0.73 -0.45,-0.95 -0.3,-0.25 -0.72,-0.38 -1.18,-0.38 -0.43,0 -0.84,0.09 -1.12,0.31 -0.21,0.16 -0.34,0.42 -0.34,0.8 0,0.23 0.08,0.4 0.22,0.51 0.15,0.14 0.37,0.22 0.62,0.28 0.21,0 1.37,0.35 1.7,0.42 0.53,0.14 1.01,0.33 1.38,0.64 0.38,0.34 0.63,0.8 0.63,1.46 0,0.34 -0.09,1.14 -0.84,1.69 -0.44,0.33 -1.1,0.57 -2.1,0.57 -0.07,0 -0.16,0 -0.25,-0.01 -0.8,-0.03 -1.49,-0.24 -1.99,-0.66 -0.51,-0.42 -0.82,-1.05 -0.82,-1.89 0,-0.04 0.01,-0.09 0.01,-0.16l0.01 -0.27 1.21 0 -0.01 0.28zm-13.16 -4.94l0.94 0 0 4.58 0 0c-0.01,0.73 0.16,1.22 0.46,1.53 0.29,0.29 0.73,0.42 1.3,0.42 0.57,0 1.01,-0.13 1.31,-0.43 0.3,-0.3 0.46,-0.79 0.45,-1.52l0 0 0 -4.58 1.22 0 0 4.73c0,0.83 -0.24,1.6 -0.8,2.15 -0.49,0.48 -1.2,0.77 -2.18,0.77 -0.98,0 -1.69,-0.29 -2.18,-0.77 -0.55,-0.55 -0.8,-1.32 -0.8,-2.15l0 -4.73 0.28 0zm-11 0l0.94 0 0 6.38 3.89 0 0 1.13 -5.11 0 0 -7.51 0.28 0zm-7.88 2.44c-0.1,-0.46 -0.33,-0.82 -0.65,-1.06 -0.33,-0.27 -0.75,-0.41 -1.21,-0.41 -0.75,0 -1.31,0.29 -1.68,0.72 -0.46,0.54 -0.66,1.3 -0.66,2.06 0,0.76 0.2,1.53 0.66,2.06 0.37,0.44 0.93,0.72 1.68,0.72 0.54,0 0.98,-0.2 1.31,-0.53 0.36,-0.36 0.58,-0.87 0.64,-1.45l0.03 -0.25 1.22 0 -0.04 0.31c-0.1,0.92 -0.45,1.68 -1,2.22 -0.54,0.52 -1.28,0.82 -2.16,0.82 -1.12,0 -1.97,-0.42 -2.57,-1.07 -0.66,-0.73 -0.99,-1.76 -0.99,-2.83 0,-1.07 0.33,-2.09 0.99,-2.82 0.6,-0.66 1.45,-1.08 2.57,-1.08 0.75,0 1.5,0.24 2.08,0.7 0.52,0.43 0.9,1.03 0.99,1.8l0.04 0.31 -1.2 0 -0.05 -0.22zm-16.91 -2.44l0.93 0 1.82 2.7 1.89 -2.7 1.41 0 -2.57 3.66 2.71 3.85 -1.48 0 -1.97 -2.86 -1.99 2.86 -1.43 0 2.7 -3.87 -2.55 -3.64 0.53 0z"/>
  </g>
 </g>
</svg>
