<?xml version="1.0" encoding="UTF-8"?>
<!DOCTYPE svg PUBLIC "-//W3C//DTD SVG 1.1//EN" "http://www.w3.org/Graphics/SVG/1.1/DTD/svg11.dtd">
<!-- Creator: CorelDRAW 2017 -->
<svg xmlns="http://www.w3.org/2000/svg" xml:space="preserve" width="192px" height="200px" version="1.1" style="shape-rendering:geometricPrecision; text-rendering:geometricPrecision; image-rendering:optimizeQuality; fill-rule:evenodd; clip-rule:evenodd"
viewBox="0 0 192 200"
 xmlns:xlink="http://www.w3.org/1999/xlink">
 <defs>
  <style type="text/css">
   <![CDATA[
    .fil0 {fill:none}
    .fil1 {fill:#590006}
    .fil2 {fill:#590006;fill-rule:nonzero}
   ]]>
  </style>
 </defs>
 <g id="Camada_x0020_1">
  <metadata id="CorelCorpID_0Corel-Layer"/>
  <g id="_2098632902288">
   <rect class="fil0" width="192" height="200"/>
   <path class="fil1" d="M74.15 71.95l0 66.94 -3.86 0 -0.11 0 -31.78 0 0 -125.87 115.2 0 0 125.87 -31.78 0 -3.97 0 0 -66.94 -19.86 -12.53 0 79.47 -3.98 0 0 -79.47 -19.86 12.53zm31.78 -2.57l0 65.17 -3.97 0 0 -67.68 3.97 2.51zm7.95 5.01l0 60.16 -3.98 0 0 -62.67 3.98 2.51zm7.94 -4.94l0 65.1 27.81 0 0 -117.19 -107.26 0 -0.06 117.19 27.87 0 0 -65.1 0 0 0 0 25.82 -16.29 25.82 16.29z"/>
   <path class="fil2" d="M28.62 154.63l-5.86 14.82 11.74 0 -5.88 -14.82zm0 -10.6l16.78 41.88 -4.76 0 -4.79 -12.35 -14.4 0 -4.79 12.35 -4.74 0 16.7 -41.88z"/>
   <path id="1" class="fil2" d="M46.37 181.67l3.38 -2.47c0.64,1.34 1.43,2.33 2.41,3 0.98,0.66 2.13,1 3.45,1 1.29,0 2.34,-0.35 3.14,-1.04 0.8,-0.7 1.2,-1.62 1.2,-2.75 0,-0.88 -0.28,-1.61 -0.82,-2.2 -0.55,-0.58 -1.49,-1.13 -2.81,-1.62l-0.66 -0.25c-5.6,-2.1 -8.4,-4.75 -8.4,-7.93 0,-2.24 0.75,-4.07 2.26,-5.48 1.51,-1.41 3.47,-2.12 5.89,-2.12 2,0 3.71,0.43 5.14,1.31 1.43,0.87 2.45,2.1 3.07,3.7l-3.19 2.15c-0.47,-1.16 -1.17,-2.05 -2.08,-2.67 -0.92,-0.63 -1.98,-0.94 -3.19,-0.94 -1.16,0 -2.11,0.36 -2.84,1.06 -0.73,0.71 -1.09,1.61 -1.09,2.72 0,1.54 1.53,2.84 4.58,3.88 0.58,0.2 1.03,0.36 1.37,0.47 2.49,0.88 4.24,1.89 5.22,3.01 0.98,1.13 1.47,2.61 1.47,4.47 0,2.38 -0.78,4.32 -2.33,5.79 -1.55,1.48 -3.58,2.22 -6.08,2.22 -2.15,0 -3.97,-0.44 -5.48,-1.33 -1.49,-0.87 -2.71,-2.2 -3.61,-3.98z"/>
   <path id="2" class="fil2" d="M69.09 148.58c0,-0.86 0.28,-1.6 0.84,-2.22 0.57,-0.61 1.26,-0.92 2.06,-0.92 0.78,0 1.47,0.31 2.03,0.94 0.56,0.62 0.84,1.37 0.84,2.25 0,0.87 -0.27,1.61 -0.83,2.21 -0.55,0.61 -1.24,0.91 -2.04,0.91 -0.8,0 -1.49,-0.3 -2.06,-0.91 -0.56,-0.6 -0.84,-1.36 -0.84,-2.26zm0.92 37.33l0 -25.2 3.98 0 0 25.2 -3.98 0z"/>
   <path id="3" class="fil2" d="M82.3 185.91l0 -25.2 3.87 0 0 3.89c0.99,-1.61 2.19,-2.82 3.58,-3.61 1.39,-0.78 3.01,-1.18 4.83,-1.18 2.73,0 4.85,0.79 6.37,2.37 1.53,1.58 2.3,3.77 2.3,6.58l0 17.15 -4.03 0 0 -14.84c0,-2.55 -0.49,-4.44 -1.47,-5.68 -0.99,-1.24 -2.5,-1.86 -4.54,-1.86 -1.18,0 -2.26,0.24 -3.22,0.71 -0.96,0.47 -1.76,1.12 -2.41,1.99 -0.48,0.66 -0.83,1.42 -1.04,2.25 -0.21,0.85 -0.32,2.31 -0.32,4.41l0 13.02 -3.92 0z"/>
   <path id="4" class="fil2" d="M128.69 173.45c0,-2.81 -0.71,-5.07 -2.14,-6.78 -1.43,-1.72 -3.31,-2.57 -5.65,-2.57 -2.33,0 -4.15,0.77 -5.46,2.33 -1.31,1.56 -1.97,3.71 -1.97,6.47 0,3.1 0.66,5.53 1.99,7.28 1.33,1.75 3.16,2.63 5.49,2.63 2.43,0 4.32,-0.83 5.68,-2.48 1.37,-1.65 2.06,-3.95 2.06,-6.88zm3.82 -30.21l0 42.67 -3.82 0 0 -4.56c-0.91,1.82 -2.08,3.21 -3.53,4.17 -1.44,0.97 -3.06,1.46 -4.84,1.46 -3.31,0 -5.97,-1.24 -7.99,-3.73 -2.02,-2.49 -3.04,-5.78 -3.04,-9.87 0,-4.13 0.99,-7.43 2.98,-9.88 1.97,-2.46 4.61,-3.69 7.91,-3.69 1.91,0 3.57,0.47 4.98,1.42 1.42,0.95 2.55,2.37 3.43,4.24l0 -22.23 3.92 0z"/>
   <path id="5" class="fil2" d="M139.82 148.58c0,-0.86 0.29,-1.6 0.85,-2.22 0.57,-0.61 1.25,-0.92 2.06,-0.92 0.78,0 1.46,0.31 2.03,0.94 0.56,0.62 0.84,1.37 0.84,2.25 0,0.87 -0.27,1.61 -0.83,2.21 -0.55,0.61 -1.24,0.91 -2.04,0.91 -0.81,0 -1.49,-0.3 -2.06,-0.91 -0.56,-0.6 -0.85,-1.36 -0.85,-2.26zm0.93 37.33l0 -25.2 3.98 0 0 25.2 -3.98 0z"/>
   <polygon id="6" class="fil2" points="153.45,185.91 153.45,145.61 157.79,145.61 157.79,163.53 173.27,145.61 178.51,145.61 162.7,163.75 180.07,185.91 174.41,185.91 157.79,164.22 157.79,185.91 "/>
  </g>
 </g>
</svg>
