<?xml version="1.0" encoding="UTF-8"?>
<!DOCTYPE svg PUBLIC "-//W3C//DTD SVG 1.1//EN" "http://www.w3.org/Graphics/SVG/1.1/DTD/svg11.dtd">
<!-- Creator: CorelDRAW 2017 -->
<svg xmlns="http://www.w3.org/2000/svg" xml:space="preserve" width="50px" height="50px" version="1.1" style="shape-rendering:geometricPrecision; text-rendering:geometricPrecision; image-rendering:optimizeQuality; fill-rule:evenodd; clip-rule:evenodd"
viewBox="0 0 50 50"
 xmlns:xlink="http://www.w3.org/1999/xlink">
 <defs>
  <style type="text/css">
   <![CDATA[
    .fil0 {fill:none}
    .fil1 {fill:#552B2C}
    .fil2 {fill:#590006}
   ]]>
  </style>
 </defs>
 <g id="Camada_x0020_1">
  <metadata id="CorelCorpID_0Corel-Layer"/>
  <g id="_2098628684528">
   <rect class="fil0" width="50" height="50"/>
   <path class="fil1" d="M17.14 23.68l0 22.03 -1.38 0 -0.05 0 -11.42 0 0 -41.43 41.42 0 0 41.43 -11.42 0 -1.43 0 0 -22.03 -7.15 -4.12 0 26.15 -1.42 0 0 -26.15 -7.15 4.12zm11.43 -0.85l0 21.45 -1.43 0 0 -22.27 1.43 0.82zm2.86 1.65l0 19.8 -1.43 0 0 -20.62 1.43 0.82zm2.86 -1.62l0 21.42 10 0 0 -38.57 -38.58 0 -0.02 38.57 10.02 0 0 -21.42 0 0 0.01 0 9.28 -5.36 9.29 5.36z"/>
   <polygon class="fil2" points="4.29,45.71 4.29,4.28 45.71,4.28 45.71,45.71 32.86,45.71 32.86,23.68 25.71,19.56 24.29,19.56 17.14,23.68 17.14,45.71 "/>
  </g>
 </g>
</svg>
