<?xml version="1.0" encoding="UTF-8"?>
<!DOCTYPE svg PUBLIC "-//W3C//DTD SVG 1.1//EN" "http://www.w3.org/Graphics/SVG/1.1/DTD/svg11.dtd">
<!-- Creator: CorelDRAW 2018 (64 Bit Versão de avaliação) -->
<svg xmlns="http://www.w3.org/2000/svg" xml:space="preserve" width="40px" height="40px" version="1.1" style="shape-rendering:geometricPrecision; text-rendering:geometricPrecision; image-rendering:optimizeQuality; fill-rule:evenodd; clip-rule:evenodd"
viewBox="0 0 40 40"
 xmlns:xlink="http://www.w3.org/1999/xlink">
 <defs>
  <style type="text/css">
   <![CDATA[
    .fil0 {fill:#3DC14F}
    .fil1 {fill:white}
   ]]>
  </style>
 </defs>
 <g id="Camada_x0020_1">
  <metadata id="CorelCorpID_0Corel-Layer"/>
  <circle class="fil0" cx="20" cy="20" r="20"/>
  <g id="g12" sodipodi:absref="C:\Users\suitedoalex\sites\14D73113.png">
   <g id="g10" sodipodi:absref="C:\Users\suitedoalex\sites\14D73111.png">
    <path id="path8" class="fil1" d="M5.89 34.17l2 -7.28c-1.23,-2.13 -1.88,-4.54 -1.87,-7.01 0,-7.75 6.3,-14.05 14.04,-14.05 3.76,0 7.29,1.46 9.94,4.12 2.65,2.65 4.11,6.18 4.11,9.93 0,7.75 -6.31,14.04 -14.05,14.04 0,0 0,0 0,0l-0.01 0c-2.35,0 -4.66,-0.59 -6.71,-1.71l-7.45 1.96 0 0zm7.79 -4.5l0.43 0.25c1.79,1.07 3.85,1.63 5.94,1.63l0.01 0c6.43,0 11.67,-5.23 11.67,-11.67 0,-3.12 -1.21,-6.05 -3.42,-8.25 -2.2,-2.21 -5.14,-3.43 -8.25,-3.43 -6.44,0 -11.68,5.24 -11.68,11.67 0,2.21 0.61,4.36 1.78,6.21l0.28 0.45 -1.18 4.3 4.42 -1.16 0 0z" inkscape:connector-curvature="0"/>
   </g>
  </g>
  <path id="path35" class="fil1" d="M16.49 14c-0.26,-0.59 -0.54,-0.6 -0.78,-0.61 -0.21,-0.01 -0.44,-0.01 -0.68,-0.01 -0.23,0 -0.61,0.09 -0.93,0.44 -0.33,0.35 -1.23,1.2 -1.23,2.93 0,1.72 1.26,3.39 1.43,3.63 0.18,0.24 2.44,3.89 6,5.3 2.96,1.17 3.57,0.94 4.21,0.88 0.64,-0.06 2.07,-0.85 2.37,-1.67 0.29,-0.83 0.29,-1.53 0.2,-1.67 -0.09,-0.15 -0.32,-0.24 -0.67,-0.41 -0.35,-0.18 -2.08,-1.03 -2.4,-1.15 -0.32,-0.12 -0.56,-0.18 -0.79,0.18 -0.23,0.34 -0.91,1.13 -1.11,1.37 -0.2,0.24 -0.41,0.26 -0.76,0.09 -0.35,-0.18 -1.48,-0.55 -2.82,-1.75 -1.05,-0.93 -1.75,-2.08 -1.96,-2.43 -0.2,-0.35 -0.02,-0.54 0.16,-0.71 0.15,-0.16 0.35,-0.41 0.52,-0.62 0.18,-0.2 0.24,-0.35 0.35,-0.58 0.12,-0.24 0.07,-0.44 -0.02,-0.61 -0.09,-0.18 -0.78,-1.91 -1.09,-2.6l0 0 0 0z" inkscape:connector-curvature="0"/>
 </g>
</svg>
