<?xml version="1.0" encoding="UTF-8"?>
<!DOCTYPE svg PUBLIC "-//W3C//DTD SVG 1.1//EN" "http://www.w3.org/Graphics/SVG/1.1/DTD/svg11.dtd">
<!-- Creator: CorelDRAW 2018 (64 Bit Versão de avaliação) -->
<svg xmlns="http://www.w3.org/2000/svg" xml:space="preserve" width="812px" height="815px" version="1.1" style="shape-rendering:geometricPrecision; text-rendering:geometricPrecision; image-rendering:optimizeQuality; fill-rule:evenodd; clip-rule:evenodd"
viewBox="0 0 812 815.49"
 xmlns:xlink="http://www.w3.org/1999/xlink"
 sodipodi:role="line"
 xmlns:dc="http://purl.org/dc/elements/1.1/"
 xmlns:cc="http://creativecommons.org/ns#"
 xmlns:rdf="http://www.w3.org/1999/02/22-rdf-syntax-ns#"
 xmlns:svg="http://www.w3.org/2000/svg"
 xmlns:sodipodi="http://sodipodi.sourceforge.net/DTD/sodipodi-0.dtd"
 xmlns:inkscape="http://www.inkscape.org/namespaces/inkscape"
 sodipodi:docname="whatsapp-logo.svg"
 inkscape:version="0.92.2 (5c3e80d, 2017-08-06)">
 <defs>
  <style type="text/css">
   <![CDATA[
    .fil0 {fill:white}
    .fil1 {fill:url(#id0)}
    .fil2 {fill:url(#id1)}
   ]]>
  </style>
  <linearGradient id="id0" gradientUnits="userSpaceOnUse" x1="405.52" y1="799.4" x2="405.52" y2="12.41">
   <stop offset="0" style="stop-opacity:1; stop-color:#20B038"/>
   <stop offset="1" style="stop-opacity:1; stop-color:#60D66A"/>
  </linearGradient>
  <linearGradient id="id1" gradientUnits="userSpaceOnUse" x1="405.42" y1="814.91" x2="405.42" y2="-1.16">
   <stop offset="0" style="stop-opacity:1; stop-color:#F9F9F9"/>
   <stop offset="1" style="stop-opacity:1; stop-color:white"/>
  </linearGradient>
 </defs>
 <g id="Camada_x0020_1">
  <metadata id="CorelCorpID_0Corel-Layer"/>
  <g id="_2021203529968">
   <sodipodi:namedview pagecolor="#ffffff" bordercolor="#666666" borderopacity="1" objecttolerance="10" gridtolerance="10" guidetolerance="10" inkscape:pageopacity="0" inkscape:pageshadow="2" inkscape:window-width="1600" inkscape:window-height="837" id="namedview43" showgrid="false" inkscape:zoom="0.44240321" inkscape:cx="208.8384" inkscape:cy="563.69153" inkscape:window-x="-8" inkscape:window-y="-8" inkscape:window-maximized="1" inkscape:current-layer="svg41"/>
   <g id="WhatsApp_Logo">
    <g id="shape_4">
     <g id="g12" sodipodi:absref="C:\Users\suitedoalex\sites\14D73113.png">
      <g id="g10" sodipodi:absref="C:\Users\suitedoalex\sites\14D73111.png">
       <path id="path8" class="fil0" d="M0 815.49l57.38 -209.35c-35.28,-61.25 -54.08,-130.84 -53.89,-201.98 0,-222.92 181.44,-404.16 404.35,-404.16 108.17,0 209.74,42.06 285.92,118.44 76.37,76.37 118.43,177.94 118.24,285.91 0,222.92 -181.44,404.16 -404.35,404.16 0,0 0,0 0,0l-0.2 0c-67.65,0 -134.14,-17.06 -193.26,-49.23l-214.19 56.21zm224.27 -129.49l12.22 7.37c51.56,30.63 110.68,46.71 170.96,46.91l0.2 0c185.12,0 335.92,-150.62 335.92,-335.93 0,-89.75 -34.89,-174.07 -98.27,-237.65 -63.39,-63.58 -147.9,-98.47 -237.65,-98.47 -185.31,0 -336.12,150.62 -336.12,335.93 0,63.38 17.64,125.22 51.36,178.72l7.95 12.79 -33.92 123.87 127.35 -33.54z" inkscape:connector-curvature="0"/>
      </g>
     </g>
    </g>
    <path id="shape_3" class="fil1" d="M14.15 801.34l55.44 -202.18c-34.12,-59.12 -52.14,-126.38 -52.14,-195 0,-215.16 175.23,-390.2 390.2,-390.2 104.48,0 202.37,40.7 276.03,114.36 73.66,73.66 114.17,171.75 114.17,276.03 0,215.17 -175.23,390.21 -390.2,390.21 0,0 0,0 0,0l-0.2 -0.01c-65.32,0 -129.48,-16.47 -186.47,-47.49l-206.83 54.28z" inkscape:connector-curvature="0"/>
    <g id="shape_2">
     <g id="g30" sodipodi:absref="C:\Users\suitedoalex\sites\14D73117.png">
      <path id="path28" class="fil2" d="M0 815.49l57.38 -209.35c-35.28,-61.25 -54.08,-130.84 -53.89,-201.98 0,-222.92 181.44,-404.16 404.35,-404.16 108.17,0 209.74,42.06 285.92,118.44 76.37,76.37 118.43,177.94 118.24,285.91 0,222.92 -181.44,404.16 -404.35,404.16 0,0 0,0 0,0l-0.2 0c-67.65,0 -134.14,-17.06 -193.26,-49.23l-214.19 56.21zm224.27 -129.49l12.22 7.37c51.56,30.63 110.68,46.71 170.96,46.91l0.2 0c185.12,0 335.92,-150.62 335.92,-335.93 0,-89.75 -34.89,-174.07 -98.27,-237.65 -63.39,-63.58 -147.9,-98.47 -237.65,-98.47 -185.31,0 -336.12,150.62 -336.12,335.93 0,63.38 17.64,125.22 51.36,178.72l7.95 12.79 -33.92 123.87 127.35 -33.54z" inkscape:connector-curvature="0"/>
     </g>
    </g>
    <g id="shape_1">
     <g id="g37" sodipodi:absref="C:\Users\suitedoalex\sites\14D73110.png">
      <path id="path35" class="fil0" d="M306.66 234.94c-7.56,-16.87 -15.51,-17.26 -22.68,-17.45 -5.82,-0.19 -12.6,-0.19 -19.39,-0.19 -6.78,0 -17.64,2.52 -26.94,12.6 -9.31,10.08 -35.28,34.5 -35.28,84.32 0,49.62 36.25,97.69 41.29,104.48 5.04,6.78 69.97,112.04 172.52,152.55 85.29,33.73 102.73,26.94 121.15,25.2 18.61,-1.74 59.7,-24.42 68.23,-48.07 8.34,-23.65 8.34,-43.81 5.81,-48.08 -2.51,-4.26 -9.3,-6.78 -19.38,-11.82 -10.08,-5.04 -59.7,-29.46 -69.01,-32.95 -9.3,-3.49 -16.09,-5.04 -22.68,5.04 -6.78,10.08 -26.16,32.76 -31.98,39.54 -5.82,6.79 -11.82,7.56 -21.9,2.52 -10.08,-5.04 -42.65,-15.7 -81.22,-50.2 -30.05,-26.75 -50.4,-59.9 -56.22,-69.98 -5.81,-10.08 -0.58,-15.51 4.46,-20.55 4.46,-4.46 10.08,-11.82 15.12,-17.64 5.04,-5.81 6.79,-10.08 10.08,-16.86 3.3,-6.78 1.75,-12.6 -0.77,-17.64 -2.52,-5.04 -22.3,-54.86 -31.21,-74.82l0 0z" inkscape:connector-curvature="0"/>
     </g>
    </g>
   </g>
   <g id="background_1_">
   </g>
  </g>
 </g>
</svg>
